<svg width="21" height="21" viewBox="0 0 21 21" fill="none" xmlns="http://www.w3.org/2000/svg">
<path d="M8.99951 -0.000488281C13.9675 -0.000488281 17.9995 4.03151 17.9995 8.99951C17.9995 13.9675 13.9675 17.9995 8.99951 17.9995C4.03151 17.9995 -0.000488281 13.9675 -0.000488281 8.99951C-0.000488281 4.03151 4.03151 -0.000488281 8.99951 -0.000488281ZM8.99951 16C9.91889 16.0002 10.8293 15.8193 11.6787 15.4675C12.5281 15.1158 13.3 14.6001 13.9501 13.9501C14.6001 13.3 15.1158 12.5281 15.4675 11.6787C15.8193 10.8293 16.0002 9.91889 16 8.99951C16.0002 8.08021 15.8193 7.16988 15.4675 6.32053C15.1157 5.47119 14.6001 4.69948 13.95 4.0495C13.2998 3.39952 12.528 2.88402 11.6786 2.53245C10.8292 2.18087 9.91882 2.00012 8.99951 2.00051C8.08033 2.00031 7.17012 2.18121 6.32088 2.53288C5.47163 2.88454 4.69999 3.40008 4.05003 4.05003C3.40008 4.69999 2.88454 5.47163 2.53288 6.32088C2.18121 7.17012 2.00031 8.08033 2.00051 8.99951C2.00012 9.91882 2.18087 10.8292 2.53245 11.6786C2.88402 12.528 3.39952 13.2998 4.0495 13.95C4.69948 14.6001 5.47119 15.1157 6.32053 15.4675C7.16988 15.8193 8.08021 16.0002 8.99951 16ZM17.485 16.0705L20.314 18.8995L18.8995 20.314L16.0705 17.485L17.485 16.0705Z" fill="#70C160"/>
</svg>
