<svg width="24" height="24" viewBox="0 0 24 24" fill="none" xmlns="http://www.w3.org/2000/svg">
<path d="M15.0948 4.95399C15.0948 5.48799 15.5292 5.92119 16.062 5.92119H19.5612C19.4832 3.80799 17.7468 2.11719 15.6144 2.11719H15.0948V4.95399Z" fill="url(#paint0_linear_491_665)"/>
<path d="M16.0632 7.36216C14.736 7.36216 13.656 6.28216 13.656 4.95496V2.11816H7.17122C4.98962 2.11816 3.22083 3.88696 3.22083 6.06856V17.0822C3.22083 19.2638 4.98962 21.0326 7.17122 21.0326H10.1208C10.6608 21.0326 11.1828 20.8394 11.5932 20.489L18.7728 14.3486C19.2756 13.9178 19.566 13.289 19.566 12.6266V7.36216H16.0632ZM14.2656 15.2546H8.52002C8.12282 15.2546 7.80002 14.9318 7.80002 14.5346C7.80002 14.1374 8.12282 13.8146 8.52002 13.8146H14.2656C14.6628 13.8146 14.9856 14.1374 14.9856 14.5346C14.9856 14.9318 14.664 15.2546 14.2656 15.2546ZM14.2656 10.7138H8.52002C8.12282 10.7138 7.80002 10.391 7.80002 9.99376C7.80002 9.59656 8.12282 9.27376 8.52002 9.27376H14.2656C14.6628 9.27376 14.9856 9.59656 14.9856 9.99376C14.9856 10.391 14.664 10.7138 14.2656 10.7138ZM20.8752 16.1258L20.3556 15.5162C20.223 15.3612 20.0344 15.2651 19.8311 15.2489C19.6277 15.2327 19.4263 15.2977 19.2708 15.4298L14.244 19.7174C14.1648 19.7858 14.1 19.8686 14.0532 19.9622L13.4616 21.1622C13.2696 21.5534 13.6068 21.995 14.0352 21.9122L15.4428 21.6386C15.5724 21.6134 15.6936 21.5546 15.7944 21.4682L20.7876 17.2082C21.1116 16.9346 21.1512 16.4486 20.8752 16.1258Z" fill="url(#paint1_linear_491_665)"/>
<defs>
<linearGradient id="paint0_linear_491_665" x1="17.328" y1="2.11719" x2="17.328" y2="5.92119" gradientUnits="userSpaceOnUse">
<stop stop-color="white" stop-opacity="0.8"/>
<stop offset="1" stop-color="white"/>
</linearGradient>
<linearGradient id="paint1_linear_491_665" x1="12.1399" y1="2.11816" x2="12.1399" y2="21.9223" gradientUnits="userSpaceOnUse">
<stop stop-color="white" stop-opacity="0.8"/>
<stop offset="1" stop-color="white"/>
</linearGradient>
</defs>
</svg>
