<svg width="50" height="60" viewBox="0 0 50 60" fill="none" xmlns="http://www.w3.org/2000/svg">
<path d="M10.9375 38.6719H39.0625C41.8597 38.6719 44.5423 39.7831 46.5203 41.761C48.4982 43.7389 49.6094 46.4215 49.6094 49.2188V52.7344C49.6094 54.5992 48.8686 56.3876 47.55 57.7062C46.2314 59.0248 44.4429 59.7656 42.5781 59.7656H7.42188C5.55707 59.7656 3.76864 59.0248 2.45003 57.7062C1.13141 56.3876 0.390625 54.5992 0.390625 52.7344V49.2188C0.390625 46.4215 1.50181 43.7389 3.47973 41.761C5.45765 39.7831 8.1403 38.6719 10.9375 38.6719ZM25 35.1562C20.338 35.1562 15.8669 33.3043 12.5704 30.0077C9.27385 26.7112 7.42188 22.2401 7.42188 17.5781C7.42188 12.9161 9.27385 8.44505 12.5704 5.14851C15.8669 1.85198 20.338 0 25 0C29.662 0 34.1331 1.85198 37.4296 5.14851C40.7262 8.44505 42.5781 12.9161 42.5781 17.5781C42.5781 22.2401 40.7262 26.7112 37.4296 30.0077C34.1331 33.3043 29.662 35.1562 25 35.1562Z" fill="#DADDEE"/>
</svg>
