<svg width="20" height="13" viewBox="0 0 20 13" fill="none" xmlns="http://www.w3.org/2000/svg">
<path d="M6.91442 12.7886C6.59065 12.7785 6.2834 12.6433 6.05726 12.4114L0.940127 7.32C0.706012 7.07718 0.575195 6.75302 0.575195 6.41571C0.575195 6.07841 0.706012 5.75425 0.940127 5.51142C1.05803 5.39273 1.19825 5.29853 1.35271 5.23425C1.50717 5.16997 1.67282 5.13688 1.84013 5.13688C2.00743 5.13688 2.17308 5.16997 2.32754 5.23425C2.482 5.29853 2.62222 5.39273 2.74013 5.51142L6.91442 9.71142L17.5772 0.377135C17.6938 0.25765 17.8331 0.162696 17.9869 0.0978642C18.1408 0.0330326 18.306 -0.000366211 18.473 -0.000366211C18.6399 -0.000366211 18.8051 0.0330326 18.959 0.0978642C19.1128 0.162696 19.2521 0.25765 19.3687 0.377135C19.4874 0.495041 19.5816 0.635261 19.6459 0.789722C19.7101 0.944182 19.7432 1.10983 19.7432 1.27713C19.7432 1.44444 19.7101 1.61009 19.6459 1.76455C19.5816 1.91901 19.4874 2.05923 19.3687 2.17713L7.81442 12.4114C7.57617 12.6513 7.25251 12.7869 6.91442 12.7886Z" fill="white"/>
</svg>
