<svg width="26" height="17" viewBox="0 0 26 17" fill="none" xmlns="http://www.w3.org/2000/svg">
<path d="M0.443359 16.123V6.15039H0.645508L3.61035 13.2705V16.123H0.443359ZM0.443359 2.4668V0.400391H2.91406L7.2041 10.7998L9.58496 5.43164H9.80957V12.7314L8.30469 16.123H6.12598L0.443359 2.4668ZM11.0225 16.123V0.400391H14.1895V16.123H11.0225ZM20.1191 16.123C17.9779 16.123 16.6302 14.6331 16.0762 11.6533C15.8965 10.665 15.8066 9.53451 15.8066 8.26172C15.8066 3.47005 17.027 0.864583 19.4678 0.445312C19.6774 0.415365 19.8945 0.400391 20.1191 0.400391V3.41016C19.3555 3.58984 18.9362 4.67546 18.8613 6.66699C18.8464 7.01139 18.8389 7.46061 18.8389 8.01465V8.50879C18.8389 10.5752 19.0186 11.9079 19.3779 12.5068C19.5726 12.8363 19.8197 13.0384 20.1191 13.1133V16.123ZM21.3545 16.123V13.1133C22.1182 12.9336 22.5374 11.848 22.6123 9.85645C22.6273 9.51204 22.6348 9.06283 22.6348 8.50879V8.01465C22.6348 5.94824 22.4551 4.61556 22.0957 4.0166C21.901 3.68717 21.654 3.48503 21.3545 3.41016V0.400391C23.4958 0.400391 24.8434 1.8903 25.3975 4.87012C25.5771 5.8584 25.667 6.98893 25.667 8.26172C25.667 13.0534 24.4466 15.6589 22.0059 16.0781C21.7962 16.1081 21.5791 16.123 21.3545 16.123Z" fill="#07C160"/>
</svg>
