<svg width="16" height="20" viewBox="0 0 16 20" fill="none" xmlns="http://www.w3.org/2000/svg">
<path d="M13.5575 6.9948H12.9177C12.9845 6.66711 13.0114 6.33254 12.9977 5.9984V5.00199C12.9977 2.23947 10.76 0 7.99956 0C5.23915 0 3.00137 2.23947 3.00137 5.00199V5.9984C3.00036 6.3342 3.04065 6.66884 3.12133 6.9948H2.48157C1.08116 7.03213 -0.0263623 8.19412 0.00250484 9.59584V17.399C-0.012085 18.7951 1.08741 19.9487 2.48161 20H13.5175C14.9221 19.9612 16.0306 18.7927 15.9966 17.387V9.59584C16.0079 9.26463 15.9536 8.93446 15.837 8.62425C15.7204 8.31405 15.5437 8.02992 15.317 7.78816C15.0905 7.54652 14.8184 7.35204 14.5164 7.21588C14.2145 7.07973 13.8886 7.0046 13.5575 6.9948ZM5.04063 5.00199C5.04063 3.34449 6.38329 2.0008 8.03952 2.0008C9.69577 2.0008 11.0384 3.34449 11.0384 5.00199V7.0068H5.04065V5.00199H5.04063ZM10.9185 18.2273L10.3587 17.3229C9.2186 18.1023 7.76866 18.2713 6.4801 17.7751C4.60911 17.0845 3.44157 15.215 3.64114 13.2293L4.96067 13.2173C4.78772 14.4131 5.32911 15.5997 6.3453 16.2521C7.36149 16.9045 8.66491 16.9023 9.67891 16.2465C9.51897 16.0144 9.03915 15.2901 9.03915 15.2901L12.238 15.07L10.9185 18.2273ZM12.4779 13.8896L11.1584 13.9056C11.3913 12.4812 10.5883 11.09 9.23907 10.5802C8.27532 10.2164 7.19333 10.3623 6.36014 10.9684L6.99991 12.0288L4.08098 12.0528L5.08061 8.97559L5.64042 9.83994C6.83391 9.04959 8.32797 8.86305 9.67891 9.33574C11.5266 10.0539 12.6706 11.9153 12.4779 13.8896Z" fill="url(#paint0_linear_491_714)"/>
<defs>
<linearGradient id="paint0_linear_491_714" x1="8.00001" y1="0" x2="8.00001" y2="20" gradientUnits="userSpaceOnUse">
<stop stop-color="white" stop-opacity="0.8"/>
<stop offset="1" stop-color="white"/>
</linearGradient>
</defs>
</svg>
