<svg width="17" height="20" viewBox="0 0 17 20" fill="none" xmlns="http://www.w3.org/2000/svg">
<path d="M14.3571 7.5V5.57143C14.3571 2.5 11.7143 0 8.42857 0C5.21429 0 2.57143 2.5 2.57143 5.57143V7.42857C1.14286 7.5 0 8.64286 0 10.0714V17.2857C0 18.7143 1.21429 19.9286 2.78571 19.9286H13.9286C15.4286 19.9286 16.7143 18.7143 16.7143 17.2857V10.1429C16.6429 8.78571 15.7143 7.71429 14.3571 7.5ZM9.71429 14.2857V16.7143H7.64286V14.2857C6.92857 13.9286 6.5 13.2857 6.5 12.4286C6.5 11.2857 7.5 10.3571 8.64286 10.3571C9.85714 10.3571 10.7857 11.2857 10.7857 12.4286C10.7857 13.2143 10.3571 13.9286 9.71429 14.2857ZM12.5 7.5H4.42857V5.92857C4.42857 3.78571 6.21429 2.07143 8.5 2.07143C10.7143 2.07143 12.5714 3.78571 12.5714 5.92857V7.5H12.5Z" fill="url(#paint0_linear_491_394)"/>
<defs>
<linearGradient id="paint0_linear_491_394" x1="8.35714" y1="0" x2="8.35714" y2="19.9286" gradientUnits="userSpaceOnUse">
<stop stop-color="white" stop-opacity="0.8"/>
<stop offset="1" stop-color="white"/>
</linearGradient>
</defs>
</svg>
