<svg width="21" height="21" viewBox="0 0 21 21" fill="none" xmlns="http://www.w3.org/2000/svg">
<g clip-path="url(#clip0_153_614)">
<path d="M9.1582 12.7646H11.6982V15.3047H9.1582V12.7646Z" fill="#FFB300"/>
<path d="M12.3829 16.2496H8.4668V15.0241C8.4668 14.7913 8.6585 14.6064 8.88443 14.6064H11.9653C12.1981 14.6064 12.3829 14.7981 12.3829 15.0241V16.2496Z" fill="#FFCA28"/>
<path d="M14.3616 20.6518H6.48819C6.25541 20.6518 6.07056 20.4601 6.07056 20.2341V16.6603C6.07056 16.4275 6.26226 16.2427 6.48819 16.2427H14.3547C14.5875 16.2427 14.7724 16.4344 14.7724 16.6603V20.2341C14.7792 20.4669 14.5875 20.6518 14.3616 20.6518Z" fill="#455A64"/>
<path d="M12.958 19.6043H7.89167C7.77528 19.6043 7.68628 19.5085 7.68628 19.3989V17.3724C7.68628 17.256 7.78213 17.167 7.89167 17.167H12.958C13.0744 17.167 13.1634 17.2628 13.1634 17.3724V19.3921C13.1634 19.5085 13.0744 19.6043 12.958 19.6043Z" fill="#CFD8DC"/>
<path d="M5.31744 2.59096V8.30087C3.63322 8.06809 2.33925 6.61665 2.33925 4.87766V2.59096H5.31744ZM6.3581 1.54346H2.12701C1.66145 1.54346 1.29175 1.92001 1.29175 2.37872V4.87766C1.29175 7.36976 3.31144 9.3826 5.79669 9.3826H6.36494L6.3581 1.54346ZM18.5173 2.59096V4.77497C18.5173 6.54134 17.2234 8.01332 15.5391 8.28718V2.59096H18.5173ZM18.7227 1.54346H14.4848V9.3826H14.9504C17.4972 9.3826 19.558 7.32183 19.558 4.77497V2.37872C19.5648 1.92001 19.1883 1.54346 18.7227 1.54346Z" fill="#FFB300"/>
<path d="M10.4248 13.2643C7.15907 13.2643 4.51636 10.6216 4.51636 7.35582V0.824338C4.51636 0.605253 4.69436 0.427246 4.91345 0.427246H15.9362C16.1553 0.427246 16.3333 0.605253 16.3333 0.824338V7.35582C16.3333 10.6216 13.6906 13.2643 10.4248 13.2643Z" fill="#FFCA28"/>
<path d="M15.9501 9.46493L12.9993 5.58301L8.85034 8.55435L12.1982 12.9977C13.0814 12.7101 13.6976 12.3199 14.2795 11.8269C14.9847 11.245 15.5461 10.4645 15.9501 9.46493Z" fill="#FFB806"/>
<path d="M10.6303 3.84406L11.2602 5.11065C11.2876 5.17226 11.3492 5.21334 11.4177 5.22703L12.8212 5.43243C12.9924 5.45981 13.0608 5.67205 12.9376 5.78844L11.9243 6.77432C11.8764 6.82225 11.849 6.89071 11.8627 6.95918L12.1023 8.35585C12.1297 8.52701 11.9517 8.65709 11.7942 8.57493L10.4455 7.86975L9.09674 8.58178C8.93927 8.66394 8.76127 8.53385 8.78865 8.36269L9.02828 6.96602C9.04197 6.89756 9.02143 6.8291 8.96666 6.78117L7.95339 5.79529C7.83015 5.67205 7.89862 5.45981 8.06978 5.43927L9.47329 5.23388C9.54176 5.22703 9.59653 5.17911 9.63076 5.11749L10.2606 3.8509C10.3359 3.69344 10.555 3.69344 10.6303 3.84406Z" fill="#FFF8E1"/>
</g>
<defs>
<clipPath id="clip0_153_614">
<rect width="20.5392" height="20.5392" fill="white" transform="translate(0.155273 0.27002)"/>
</clipPath>
</defs>
</svg>
