<svg width="20" height="20" viewBox="0 0 20 20" fill="none" xmlns="http://www.w3.org/2000/svg">
<g clip-path="url(#clip0_491_399)">
<path d="M4.17134 10.0019C4.17233 9.37285 4.27565 8.74816 4.47727 8.15231L1.04905 5.58789C0.362855 6.95722 0.0055542 8.46774 0.0055542 9.99939C0.0055542 11.531 0.362855 13.0416 1.04905 14.4109L4.47528 11.8425C4.27625 11.2489 4.17496 10.6269 4.17534 10.0009" fill="#FBBC05"/>
<path d="M10.193 4.07869C11.5562 4.07529 12.8796 4.53853 13.9431 5.39139L16.9074 2.49205C15.7297 1.47963 14.3383 0.74655 12.8373 0.347633C11.3363 -0.0512838 9.76454 -0.10572 8.23954 0.188396C6.71454 0.482512 5.27576 1.11757 4.03078 2.04608C2.7858 2.9746 1.76682 4.17254 1.05005 5.55035L4.47627 8.11577C4.88572 6.92914 5.65752 5.90108 6.68272 5.17671C7.70792 4.45234 8.93473 4.06826 10.19 4.07869" fill="#EA4335"/>
<path d="M10.193 15.9248C8.93765 15.9346 7.71088 15.5503 6.68549 14.826C5.66009 14.1018 4.88776 13.0741 4.47729 11.8877L1.04907 14.4521C1.90838 16.1342 3.21878 17.544 4.83366 18.5237C6.44854 19.5035 8.30419 20.0146 10.193 19.9999C12.6372 20.0267 15.0037 19.1416 16.8305 17.5174L13.5732 15.054C12.548 15.6522 11.3766 15.9537 10.19 15.9248" fill="#34A853"/>
<path d="M19.9897 10.0342C19.9807 9.42389 19.9029 8.81652 19.7578 8.22363H10.2599V12.0718H15.7237C15.6038 12.6857 15.3568 13.2678 14.9985 13.7806C14.6402 14.2933 14.1785 14.7254 13.6432 15.0491L16.8974 17.5125C17.9145 16.5574 18.716 15.3963 19.2484 14.1067C19.7808 12.817 20.0318 11.4286 19.9847 10.0342" fill="#4285F4"/>
</g>
<defs>
<clipPath id="clip0_491_399">
<rect width="20" height="20" fill="white"/>
</clipPath>
</defs>
</svg>
