<svg width="20" height="20" viewBox="0 0 20 20" fill="none" xmlns="http://www.w3.org/2000/svg">
<path d="M18.9063 4.24289C18.885 3.62908 18.3736 3.05045 17.7701 2.94465C17.7701 2.94465 15.4243 2.57812 14.1079 2.11189C12.4639 1.52985 10.8373 0.256036 10.8373 0.256036C10.3293 -0.103895 9.55297 -0.0826361 9.08015 0.309061C9.08015 0.309061 7.92999 1.46265 5.78139 2.13315C3.96072 2.85766 2.47482 2.98619 2.23975 3.00256C2.21678 3.00427 2.19406 3.00622 2.17133 3.00989C1.58709 3.10421 1.09227 3.64154 1.08176 4.24313C1.08176 4.24313 1.00064 7.39381 1.10302 10.1599C1.14188 15.11 7.04445 20 10.0292 20C12.9646 20 18.0418 16.5917 18.8391 10.2305C19.0368 6.45892 18.9063 4.24387 18.9063 4.24387V4.24289ZM16.2355 7.4852V7.45686L9.35212 13.8995C9.20078 14.042 9.00629 14.1302 8.79933 14.15C8.59236 14.1698 8.38468 14.1202 8.20904 14.0089L8.02919 13.8572L4.2256 9.93826C4.14131 9.84756 4.07586 9.74104 4.03303 9.62486C3.9902 9.50869 3.97085 9.38517 3.9761 9.26146C3.98135 9.13776 4.0111 9.01632 4.06361 8.9042C4.11613 8.79207 4.19038 8.69147 4.28205 8.60825C4.46781 8.43895 4.71293 8.34989 4.96405 8.36046C5.21516 8.37103 5.45193 8.48038 5.62281 8.66469L8.74881 11.9202L14.9478 6.10192C15.1335 5.93263 15.3787 5.84357 15.6298 5.85414C15.8809 5.86471 16.1177 5.97406 16.2885 6.15837C16.3731 6.24852 16.4388 6.35458 16.482 6.47038C16.5251 6.58618 16.5448 6.70941 16.5399 6.83289C16.5349 6.95637 16.5055 7.07763 16.4532 7.18962C16.401 7.30161 16.327 7.40209 16.2355 7.4852Z" fill="url(#paint0_linear_491_510)"/>
<defs>
<linearGradient id="paint0_linear_491_510" x1="9.9999" y1="0" x2="9.9999" y2="20" gradientUnits="userSpaceOnUse">
<stop stop-color="white" stop-opacity="0.8"/>
<stop offset="1" stop-color="white"/>
</linearGradient>
</defs>
</svg>
