<svg width="18" height="20" viewBox="0 0 18 20" fill="none" xmlns="http://www.w3.org/2000/svg">
<path d="M13.9811 3.404C14.5644 3.82067 15.0821 4.29289 15.5341 4.82067C15.9887 5.34845 16.375 5.91915 16.6983 6.53279C17.0215 7.14643 17.269 7.79289 17.4356 8.47723C17.6023 9.16158 17.6882 9.85602 17.6882 10.558C17.6882 11.7702 17.4584 12.9065 16.9988 13.9697C16.5392 15.0328 15.918 15.957 15.1351 16.7474C14.3523 17.5353 13.4331 18.1616 12.3775 18.6237C11.3245 19.0858 10.1932 19.3181 8.99118 19.3181C7.80179 19.3181 6.67805 19.0858 5.6225 18.6237C4.56694 18.1616 3.64522 17.5353 2.85482 16.7474C2.06694 15.9596 1.4432 15.0328 0.991182 13.9697C0.539162 12.9065 0.31189 11.7702 0.31189 10.558C0.31189 9.86612 0.392698 9.18935 0.554314 8.52521C0.71593 7.86107 0.945728 7.22976 1.24371 6.62875C1.54169 6.03026 1.91037 5.46966 2.34977 4.94693C2.78916 4.42673 3.28159 3.95703 3.82452 3.54036C4.10987 3.33077 4.41795 3.25249 4.74623 3.30552C5.07704 3.35855 5.34472 3.52016 5.55179 3.79289C5.75886 4.06562 5.83714 4.3737 5.78411 4.71208C5.73108 5.05047 5.57199 5.32572 5.29926 5.53279C4.48613 6.1338 3.85987 6.86865 3.42805 7.74238C2.99371 8.61612 2.77654 9.55299 2.77654 10.558C2.77654 11.4192 2.93815 12.2298 3.26138 12.9924C3.58462 13.755 4.02654 14.4192 4.58967 14.9873C5.1528 15.5555 5.81189 16.005 6.56947 16.3358C7.32452 16.6692 8.1326 16.8333 8.98613 16.8333C9.83967 16.8333 10.6452 16.6666 11.4028 16.3358C12.1604 16.0025 12.8195 15.553 13.3826 14.9873C13.9457 14.4192 14.3927 13.755 14.721 12.9924C15.0518 12.2298 15.2159 11.4192 15.2159 10.558C15.2159 9.54289 14.9811 8.58077 14.5164 7.6742C14.0518 6.76764 13.3977 6.02269 12.5568 5.4343C12.2715 5.23733 12.1023 4.97218 12.0442 4.6338C11.9861 4.29542 12.0543 3.98228 12.2488 3.69441C12.4432 3.42168 12.7084 3.25501 13.0442 3.19693C13.3851 3.13885 13.6957 3.20703 13.9811 3.404ZM8.99371 10.6186C8.65785 10.6186 8.36997 10.4974 8.13007 10.2575C7.89017 10.0151 7.77149 9.72723 7.77149 9.38632V1.95703C7.77149 1.61865 7.8927 1.32572 8.13007 1.07824C8.36997 0.830769 8.65785 0.707031 8.99371 0.707031C9.34219 0.707031 9.63765 0.830769 9.87755 1.07824C10.1174 1.32572 10.2361 1.61865 10.2361 1.95703V9.38632C10.2361 9.72471 10.1149 10.0151 9.87755 10.2575C9.63512 10.4974 9.34219 10.6186 8.99371 10.6186Z" fill="url(#paint0_linear_491_729)"/>
<defs>
<linearGradient id="paint0_linear_491_729" x1="9.00002" y1="0.707031" x2="9.00002" y2="19.3181" gradientUnits="userSpaceOnUse">
<stop stop-color="white" stop-opacity="0.8"/>
<stop offset="1" stop-color="white"/>
</linearGradient>
</defs>
</svg>
