<svg width="16" height="16" viewBox="0 0 16 16" fill="none" xmlns="http://www.w3.org/2000/svg">
<g clip-path="url(#clip0_0_1960)">
<path d="M2.95533 2.46465C2.85454 2.37095 2.72134 2.32 2.58375 2.32251C2.44616 2.32502 2.3149 2.38079 2.2176 2.4781C2.12029 2.5754 2.06451 2.70666 2.062 2.84425C2.05949 2.98184 2.11044 3.11504 2.20413 3.21583L2.95531 3.96474C3.05645 4.05577 3.18864 4.10455 3.32466 4.10103C3.46068 4.0975 3.59017 4.04195 3.68646 3.94581C3.78275 3.84967 3.8385 3.72027 3.84223 3.58425C3.84596 3.44824 3.79738 3.31597 3.70651 3.2147L2.95531 2.46465H2.95533ZM13.0463 2.46465L12.2951 3.21583C12.2451 3.26498 12.2054 3.32354 12.1782 3.38814C12.151 3.45274 12.1369 3.52209 12.1366 3.59218C12.1364 3.66227 12.15 3.73172 12.1768 3.7965C12.2036 3.86128 12.2429 3.92012 12.2925 3.9696C12.3422 4.01909 12.4011 4.05825 12.466 4.08481C12.5309 4.11138 12.6003 4.12482 12.6704 4.12437C12.7405 4.12392 12.8098 4.10958 12.8743 4.08218C12.9389 4.05478 12.9973 4.01487 13.0463 3.96474L13.7975 3.2147C13.8467 3.16537 13.8858 3.10683 13.9124 3.04241C13.939 2.978 13.9527 2.90897 13.9527 2.83927C13.9526 2.76956 13.9388 2.70055 13.9121 2.63618C13.8854 2.5718 13.8462 2.51332 13.7969 2.46407C13.7476 2.41482 13.6891 2.37577 13.6246 2.34915C13.5602 2.32252 13.4912 2.30885 13.4215 2.3089C13.3518 2.30895 13.2828 2.32274 13.2184 2.34946C13.154 2.37618 13.0955 2.41532 13.0463 2.46465ZM1.62708 6.66334H0.565149C0.49549 6.66333 0.42651 6.67704 0.36215 6.70368C0.297789 6.73033 0.239309 6.7694 0.190048 6.81865C0.140787 6.86791 0.10171 6.92638 0.0750502 6.99074C0.0483899 7.05509 0.034668 7.12407 0.034668 7.19373C0.034668 7.26339 0.0483899 7.33236 0.0750502 7.39672C0.10171 7.46108 0.140787 7.51955 0.190048 7.5688C0.239309 7.61805 0.297789 7.65712 0.36215 7.68377C0.42651 7.71042 0.49549 7.72413 0.565149 7.72412H1.62707C1.69672 7.72413 1.7657 7.71042 1.83006 7.68377C1.89443 7.65712 1.95291 7.61805 2.00217 7.5688C2.05143 7.51955 2.0905 7.46108 2.11716 7.39672C2.14382 7.33236 2.15755 7.26339 2.15755 7.19373C2.15755 7.12407 2.14382 7.05509 2.11716 6.99074C2.0905 6.92638 2.05143 6.86791 2.00217 6.81865C1.95291 6.7694 1.89443 6.73033 1.83006 6.70368C1.7657 6.67704 1.69674 6.66333 1.62708 6.66334ZM15.4364 6.66334H14.3745C14.3049 6.66333 14.2359 6.67704 14.1715 6.70368C14.1072 6.73033 14.0487 6.7694 13.9994 6.81865C13.9502 6.86791 13.9111 6.92638 13.8844 6.99074C13.8578 7.05509 13.8441 7.12407 13.8441 7.19373C13.8441 7.26339 13.8578 7.33236 13.8844 7.39672C13.9111 7.46108 13.9502 7.51955 13.9994 7.5688C14.0487 7.61805 14.1072 7.65712 14.1715 7.68377C14.2359 7.71042 14.3049 7.72413 14.3745 7.72412H15.4364C15.509 7.72887 15.5818 7.71868 15.6503 7.69418C15.7187 7.66967 15.7815 7.63138 15.8345 7.58166C15.8876 7.53194 15.9299 7.47186 15.9589 7.40513C15.9878 7.33841 16.0027 7.26645 16.0027 7.19373C16.0027 7.121 15.9878 7.04905 15.9589 6.98232C15.9299 6.91559 15.8876 6.85551 15.8345 6.8058C15.7815 6.75608 15.7187 6.71778 15.6503 6.69328C15.5818 6.66878 15.509 6.65859 15.4364 6.66334ZM7.46928 0.562776V1.62356C7.46928 1.76453 7.52528 1.89972 7.62496 1.9994C7.72464 2.09908 7.85984 2.15508 8.00081 2.15508C8.14178 2.15508 8.27697 2.09908 8.37665 1.9994C8.47633 1.89972 8.53233 1.76453 8.53233 1.62356V0.562776C8.53233 0.421807 8.47633 0.286611 8.37665 0.18693C8.27697 0.0872499 8.14178 0.03125 8.00081 0.03125C7.85984 0.03125 7.72464 0.0872499 7.62496 0.18693C7.52528 0.286611 7.46928 0.421807 7.46928 0.562776ZM4.28242 7.98933C4.28257 7.50128 4.37889 7.01804 4.56586 6.56723C4.75284 6.11642 5.02681 5.70687 5.37212 5.36198C5.71743 5.01708 6.12732 4.74361 6.57836 4.55719C7.0294 4.37077 7.51276 4.27504 8.00081 4.27549C8.48881 4.27519 8.9721 4.37101 9.42307 4.55749C9.87405 4.74396 10.2839 5.01744 10.6292 5.3623C10.9744 5.70716 11.2484 6.11665 11.4355 6.56739C11.6225 7.01814 11.7189 7.50131 11.7192 7.98931C11.7183 8.9747 11.3261 9.91938 10.6288 10.6156C9.93147 11.3119 8.98619 11.7026 8.00081 11.702C7.01543 11.7026 6.07016 11.3118 5.37286 10.6156C4.67556 9.91938 4.28333 8.9747 4.28242 7.98933ZM3.22051 7.98933C3.22081 8.61673 3.3447 9.23793 3.58511 9.81745C3.82552 10.397 4.17773 10.9234 4.62164 11.3668C5.06555 11.8102 5.59245 12.1618 6.17225 12.4015C6.75205 12.6412 7.3734 12.7644 8.00081 12.7639C10.6414 12.7639 12.7811 10.6264 12.7811 7.98933C12.7808 7.36192 12.6569 6.74072 12.4165 6.16121C12.1761 5.58169 11.8239 5.05521 11.38 4.61183C10.9361 4.16845 10.4092 3.81687 9.82936 3.57715C9.24956 3.33743 8.62821 3.21428 8.00081 3.21473C5.36026 3.21473 3.22051 5.35219 3.22051 7.98933ZM5.26922 14.3551H10.7324C10.8021 14.3551 10.871 14.3414 10.9354 14.3148C10.9998 14.2881 11.0582 14.249 11.1075 14.1998C11.1568 14.1505 11.1958 14.0921 11.2225 14.0277C11.2492 13.9633 11.2629 13.8944 11.2629 13.8247C11.2629 13.7551 11.2492 13.6861 11.2225 13.6217C11.1958 13.5574 11.1568 13.4989 11.1075 13.4496C11.0582 13.4004 10.9998 13.3613 10.9354 13.3347C10.871 13.308 10.8021 13.2943 10.7324 13.2943H5.26922C5.19956 13.2943 5.13058 13.308 5.06622 13.3347C5.00186 13.3613 4.94338 13.4004 4.89412 13.4496C4.84486 13.4989 4.80578 13.5574 4.77912 13.6217C4.75246 13.6861 4.73874 13.7551 4.73874 13.8247C4.73874 13.8944 4.75246 13.9633 4.77912 14.0277C4.80578 14.0921 4.84486 14.1505 4.89412 14.1998C4.94338 14.249 5.00186 14.2881 5.06622 14.3148C5.13058 14.3414 5.19956 14.3551 5.26922 14.3551ZM6.40738 15.9667H9.59423C9.66389 15.9667 9.73287 15.953 9.79723 15.9264C9.86159 15.8997 9.92007 15.8607 9.96933 15.8114C10.0186 15.7622 10.0577 15.7037 10.0843 15.6393C10.111 15.575 10.1247 15.506 10.1247 15.4363C10.1247 15.3667 10.111 15.2977 10.0843 15.2334C10.0577 15.169 10.0186 15.1105 9.96933 15.0613C9.92007 15.012 9.86159 14.973 9.79723 14.9463C9.73287 14.9197 9.66389 14.9059 9.59423 14.906H6.40738C6.33772 14.9059 6.26874 14.9197 6.20438 14.9463C6.14002 14.973 6.08154 15.012 6.03228 15.0613C5.98302 15.1105 5.94394 15.169 5.91728 15.2334C5.89062 15.2977 5.8769 15.3667 5.8769 15.4363C5.8769 15.506 5.89062 15.575 5.91728 15.6393C5.94394 15.7037 5.98302 15.7622 6.03228 15.8114C6.08154 15.8607 6.14002 15.8997 6.20438 15.9264C6.26874 15.953 6.33772 15.9667 6.40738 15.9667Z" fill="#70C160"/>
</g>
<defs>
<clipPath id="clip0_0_1960">
<rect width="16" height="16" fill="white"/>
</clipPath>
</defs>
</svg>
