<svg width="17" height="20" viewBox="0 0 17 20" fill="none" xmlns="http://www.w3.org/2000/svg">
<path d="M11.0312 2.9375C11.1875 2.96875 11.3125 3.03125 11.4688 3.0625C12.2812 3.3125 13.2188 3.75 14.0312 4.5625L16.6562 0.9375C16.7188 0.84375 16.7812 0.71875 16.7812 0.59375C16.7812 0.25 16.5 0 16.1875 0H11.1875C10.9062 0 10.6875 0.1875 10.625 0.4375L9.46875 2.71875C9.5 2.71875 10.1562 2.71875 11.0312 2.9375ZM11.25 4.0625C11.2188 4.0625 11.2188 4.0625 11.1875 4.03125C11 3.96875 10.8125 3.90625 10.625 3.875H10.5938C10.4062 3.8125 10.2188 3.78125 10.0312 3.75C10 3.75 9.96875 3.75 9.9375 3.71875C9.75 3.6875 9.53125 3.65625 9.34375 3.65625H9.21875C9 3.65625 8.8125 3.625 8.59375 3.625C4.0625 3.625 0.40625 7.28125 0.40625 11.8125V12.3438C0.40625 12.4375 0.40625 12.5312 0.4375 12.625C0.4375 12.6875 0.4375 12.7188 0.46875 12.7812C0.46875 12.875 0.5 12.9375 0.5 13.0312C0.5 13.0938 0.53125 13.1562 0.53125 13.1875C0.53125 13.2812 0.5625 13.375 0.5625 13.4375C0.5625 13.5 0.59375 13.5625 0.59375 13.625C0.625 13.6875 0.625 13.7812 0.65625 13.8438C0.65625 13.9062 0.6875 13.9688 0.71875 14.0312C0.75 14.0938 0.75 14.1562 0.78125 14.25C0.8125 14.3125 0.8125 14.375 0.84375 14.4375C0.84375 14.4375 0.875 14.5312 0.875 14.5938C0.90625 14.6562 0.90625 14.7188 0.9375 14.75C0.96875 14.8125 1 14.875 1 14.9375C1.03125 15 1.0625 15.0625 1.0625 15.0938C1.125 15.1875 1.15625 15.25 1.1875 15.3125C1.21875 15.375 1.25 15.4375 1.28125 15.4688L1.375 15.6562C1.40625 15.7188 1.4375 15.75 1.46875 15.8125L1.5625 16C1.59375 16.0625 1.625 16.0938 1.65625 16.1562C1.6875 16.2188 1.71875 16.2812 1.78125 16.3125C1.8125 16.375 1.84375 16.4062 1.875 16.4688C1.90625 16.5312 1.9375 16.5938 2 16.625C2.03125 16.6875 2.0625 16.7188 2.125 16.7812C2.15625 16.8438 2.21875 16.875 2.25 16.9375C2.28125 17 2.3125 17.0312 2.375 17.0938C2.40625 17.1562 2.46875 17.1875 2.5 17.25L2.625 17.375C2.65625 17.4375 2.71875 17.4688 2.75 17.5312L2.875 17.6562C2.9375 17.6875 2.96875 17.75 3.03125 17.7812L3.15625 17.9062C3.21875 17.9375 3.25 18 3.3125 18.0312C3.375 18.0625 3.40625 18.125 3.46875 18.1562C3.53125 18.1875 3.5625 18.25 3.625 18.2812C3.6875 18.3125 3.71875 18.3438 3.78125 18.4062C3.84375 18.4375 3.875 18.4688 3.9375 18.5312C4 18.5625 4.03125 18.5938 4.09375 18.625C4.15625 18.6562 4.21875 18.6875 4.25 18.7188C4.3125 18.75 4.34375 18.7812 4.40625 18.8125C4.46875 18.8438 4.53125 18.875 4.5625 18.9062C4.625 18.9375 4.6875 18.9688 4.71875 19L4.90625 19.0938L5.09375 19.1875L5.28125 19.2812L5.46875 19.375C5.53125 19.4062 5.59375 19.4375 5.65625 19.4375C5.71875 19.4688 5.78125 19.5 5.84375 19.5C5.90625 19.5312 5.96875 19.5312 6.03125 19.5625C6.09375 19.5938 6.15625 19.5938 6.21875 19.625C6.28125 19.6562 6.34375 19.6562 6.40625 19.6875C6.46875 19.7188 6.53125 19.7188 6.59375 19.75C6.65625 19.7812 6.71875 19.7812 6.78125 19.7812C6.84375 19.7812 6.90625 19.8125 6.96875 19.8125C7.03125 19.8125 7.09375 19.8438 7.15625 19.8438C7.21875 19.8438 7.28125 19.875 7.34375 19.875C7.40625 19.875 7.46875 19.9062 7.53125 19.9062C7.65625 19.9375 7.78125 19.9375 7.9375 19.9375C8 19.9375 8.0625 19.9375 8.15625 19.9688H8.59375C13.125 19.9688 16.7812 16.3125 16.7812 11.7812C16.7812 8.21875 14.4688 5.15625 11.25 4.0625ZM12.8125 10.9062L11.1875 12.5312L11.5625 14.7812C11.6875 15.5312 11.25 15.875 10.5938 15.5L8.59375 14.4375L6.59375 15.5C5.9375 15.8438 5.46875 15.5625 5.625 14.7812L6 12.5312L4.375 10.9375C3.84375 10.4062 4 9.875 4.75 9.75L6.96875 9.40625L7.96875 7.34375C8.3125 6.65625 8.84375 6.625 9.1875 7.34375L10.1562 9.375L10.1875 9.40625L12.4062 9.75C13.1875 9.84375 13.375 10.375 12.8125 10.9062ZM7.6875 2.71875L6.53125 0.4375C6.46875 0.1875 6.25 0 6 0H0.53125L3.15625 4.53125C5.09375 2.65625 7.6875 2.71875 7.6875 2.71875Z" fill="url(#paint0_linear_491_396)"/>
<defs>
<linearGradient id="paint0_linear_491_396" x1="8.59375" y1="0" x2="8.59375" y2="19.9688" gradientUnits="userSpaceOnUse">
<stop stop-color="white" stop-opacity="0.8"/>
<stop offset="1" stop-color="white"/>
</linearGradient>
</defs>
</svg>
