<svg width="20" height="20" viewBox="0 0 20 20" fill="none" xmlns="http://www.w3.org/2000/svg">
<path d="M16.6309 10.6445H8.1543C7.80859 10.6445 7.5293 10.3652 7.5293 10.0195C7.5293 9.67383 7.80859 9.39453 8.1543 9.39453H16.6309C16.9766 9.39453 17.2559 9.67383 17.2559 10.0195C17.2559 10.3652 16.9766 10.6445 16.6309 10.6445Z" fill="#333333"/>
<path d="M5.00977 10C5.00977 10.1658 5.07561 10.3247 5.19282 10.4419C5.31003 10.5592 5.46901 10.625 5.63477 10.625C5.80053 10.625 5.9595 10.5592 6.07671 10.4419C6.19392 10.3247 6.25977 10.1658 6.25977 10C6.25977 9.83424 6.19392 9.67527 6.07671 9.55806C5.9595 9.44085 5.80053 9.375 5.63477 9.375C5.46901 9.375 5.31003 9.44085 5.19282 9.55806C5.07561 9.67527 5.00977 9.83424 5.00977 10Z" fill="#333333"/>
<path d="M2.50977 10C2.50977 10.1658 2.57561 10.3247 2.69282 10.4419C2.81003 10.5592 2.96901 10.625 3.13477 10.625C3.30053 10.625 3.4595 10.5592 3.57671 10.4419C3.69392 10.3247 3.75977 10.1658 3.75977 10C3.75977 9.83424 3.69392 9.67527 3.57671 9.55806C3.4595 9.44085 3.30053 9.375 3.13477 9.375C2.96901 9.375 2.81003 9.44085 2.69282 9.55806C2.57561 9.67527 2.50977 9.83424 2.50977 10Z" fill="#333333"/>
<path d="M12.5215 14.9878C12.3613 14.9878 12.2012 14.9272 12.0801 14.8042C11.8359 14.5601 11.8359 14.1655 12.0801 13.9194L15.9941 9.99951L12.0801 6.07764C11.8359 5.8335 11.8359 5.43701 12.0801 5.19287C12.3242 4.94873 12.7207 4.94873 12.9648 5.19287L17.3203 9.55615C17.5645 9.80029 17.5645 10.1948 17.3203 10.439L12.9648 14.8042C12.8418 14.9272 12.6816 14.9878 12.5215 14.9878Z" fill="#333333"/>
</svg>
