<svg width="12" height="12" viewBox="0 0 12 12" fill="none" xmlns="http://www.w3.org/2000/svg">
<g clip-path="url(#clip0_0_2583)">
<path d="M2.21637 1.84849C2.14078 1.77822 2.04088 1.74 1.93769 1.74188C1.8345 1.74376 1.73606 1.78559 1.66307 1.85857C1.59009 1.93155 1.54826 2.02999 1.54638 2.13319C1.54449 2.23638 1.58271 2.33628 1.65298 2.41187L2.21636 2.97356C2.29221 3.04183 2.39136 3.07841 2.49337 3.07577C2.59539 3.07313 2.69251 3.03146 2.76472 2.95936C2.83694 2.88725 2.87875 2.7902 2.88155 2.68819C2.88435 2.58618 2.84792 2.48698 2.77976 2.41102L2.21636 1.84849H2.21637ZM9.7846 1.84849L9.22121 2.41187C9.18373 2.44873 9.15393 2.49266 9.13353 2.54111C9.11312 2.58955 9.10253 2.64157 9.10235 2.69414C9.10217 2.7467 9.11241 2.79879 9.13248 2.84737C9.15255 2.89596 9.18205 2.94009 9.21928 2.9772C9.25651 3.01432 9.30073 3.04369 9.34937 3.06361C9.39802 3.08353 9.45013 3.09362 9.5027 3.09328C9.55527 3.09294 9.60725 3.08218 9.65564 3.06164C9.70402 3.04109 9.74786 3.01115 9.7846 2.97356L10.348 2.41102C10.3849 2.37403 10.4142 2.33012 10.4342 2.28181C10.4542 2.2335 10.4644 2.18173 10.4644 2.12945C10.4643 2.07717 10.454 2.02542 10.434 1.97713C10.4139 1.92885 10.3846 1.88499 10.3476 1.84805C10.3106 1.81112 10.2667 1.78183 10.2184 1.76186C10.17 1.74189 10.1183 1.73164 10.066 1.73168C10.0137 1.73172 9.96196 1.74205 9.91368 1.76209C9.8654 1.78214 9.82154 1.81149 9.7846 1.84849ZM1.22019 4.9975H0.42374C0.371495 4.99749 0.31976 5.00778 0.27149 5.02776C0.22322 5.04775 0.179359 5.07705 0.142414 5.11399C0.105468 5.15093 0.0761608 5.19478 0.0561656 5.24305C0.0361704 5.29132 0.0258789 5.34305 0.0258789 5.3953C0.0258789 5.44754 0.0361704 5.49927 0.0561656 5.54754C0.0761608 5.59581 0.105468 5.63966 0.142414 5.6766C0.179359 5.71354 0.22322 5.74284 0.27149 5.76283C0.31976 5.78281 0.371495 5.7931 0.42374 5.79309H1.22018C1.27242 5.7931 1.32416 5.78281 1.37243 5.76283C1.4207 5.74284 1.46456 5.71354 1.5015 5.6766C1.53845 5.63966 1.56776 5.59581 1.58775 5.54754C1.60775 5.49927 1.61804 5.44754 1.61804 5.3953C1.61804 5.34305 1.60775 5.29132 1.58775 5.24305C1.56776 5.19478 1.53845 5.15093 1.5015 5.11399C1.46456 5.07705 1.4207 5.04775 1.37243 5.02776C1.32416 5.00778 1.27243 4.99749 1.22019 4.9975ZM11.5772 4.9975H10.7808C10.7285 4.99749 10.6768 5.00778 10.6285 5.02776C10.5803 5.04775 10.5364 5.07705 10.4995 5.11399C10.4625 5.15093 10.4332 5.19478 10.4132 5.24305C10.3932 5.29132 10.3829 5.34305 10.3829 5.3953C10.3829 5.44754 10.3932 5.49927 10.4132 5.54754C10.4332 5.59581 10.4625 5.63966 10.4995 5.6766C10.5364 5.71354 10.5803 5.74284 10.6285 5.76283C10.6768 5.78281 10.7285 5.7931 10.7808 5.79309H11.5772C11.6316 5.79665 11.6862 5.78901 11.7376 5.77063C11.7889 5.75225 11.836 5.72353 11.8758 5.68624C11.9156 5.64896 11.9473 5.6039 11.969 5.55385C11.9907 5.50381 12.0019 5.44984 12.0019 5.3953C12.0019 5.34075 11.9907 5.28679 11.969 5.23674C11.9473 5.1867 11.9156 5.14163 11.8758 5.10435C11.836 5.06706 11.7889 5.03834 11.7376 5.01996C11.6862 5.00158 11.6316 4.99394 11.5772 4.9975ZM5.60184 0.422082V1.21767C5.60184 1.32339 5.64384 1.42479 5.7186 1.49955C5.79336 1.57431 5.89475 1.61631 6.00048 1.61631C6.10621 1.61631 6.20761 1.57431 6.28237 1.49955C6.35713 1.42479 6.39913 1.32339 6.39913 1.21767V0.422082C6.39913 0.316355 6.35713 0.214958 6.28237 0.140198C6.20761 0.0654375 6.10621 0.0234375 6.00048 0.0234375C5.89475 0.0234375 5.79336 0.0654375 5.7186 0.140198C5.64384 0.214958 5.60184 0.316355 5.60184 0.422082ZM3.2117 5.992C3.21181 5.62596 3.28404 5.26353 3.42427 4.92542C3.56451 4.58731 3.76998 4.28015 4.02897 4.02148C4.28795 3.76281 4.59537 3.55771 4.93365 3.41789C5.27193 3.27807 5.63445 3.20628 6.00048 3.20662C6.36649 3.20639 6.72895 3.27826 7.06718 3.41812C7.40541 3.55797 7.71279 3.76308 7.97175 4.02172C8.23071 4.28037 8.4362 4.58749 8.57647 4.92555C8.71674 5.2636 8.78905 5.62598 8.78928 5.99198C8.7886 6.73102 8.49443 7.43953 7.97146 7.96171C7.44848 8.48389 6.73952 8.77698 6.00048 8.77652C5.26145 8.77697 4.55249 8.48389 4.02952 7.96171C3.50655 7.43954 3.21237 6.73103 3.2117 5.992ZM2.41526 5.992C2.41548 6.46255 2.5084 6.92845 2.68871 7.36309C2.86902 7.79772 3.13318 8.19259 3.46611 8.52512C3.79904 8.85765 4.19421 9.12134 4.62907 9.30113C5.06392 9.48092 5.52993 9.57328 6.00048 9.57295C7.9809 9.57295 9.5857 7.96984 9.5857 5.992C9.58548 5.52144 9.49256 5.05554 9.31225 4.62091C9.13195 4.18627 8.86779 3.79141 8.53486 3.45887C8.20193 3.12634 7.80675 2.86265 7.3719 2.68286C6.93705 2.50307 6.47104 2.41071 6.00048 2.41105C4.02007 2.41105 2.41526 4.01415 2.41526 5.992ZM3.95179 10.7663H8.04918C8.10143 10.7663 8.15316 10.7561 8.20143 10.7361C8.2497 10.7161 8.29356 10.6868 8.33051 10.6498C8.36746 10.6129 8.39676 10.569 8.41676 10.5208C8.43675 10.4725 8.44705 10.4208 8.44705 10.3685C8.44705 10.3163 8.43675 10.2646 8.41676 10.2163C8.39676 10.168 8.36746 10.1242 8.33051 10.0872C8.29356 10.0503 8.2497 10.021 8.20143 10.001C8.15316 9.98101 8.10143 9.97073 8.04918 9.97074H3.95179C3.89955 9.97073 3.84781 9.98101 3.79954 10.001C3.75127 10.021 3.70741 10.0503 3.67047 10.0872C3.63352 10.1242 3.60421 10.168 3.58422 10.2163C3.56422 10.2646 3.55393 10.3163 3.55393 10.3685C3.55393 10.4208 3.56422 10.4725 3.58422 10.5208C3.60421 10.569 3.63352 10.6129 3.67047 10.6498C3.70741 10.6868 3.75127 10.7161 3.79954 10.7361C3.84781 10.7561 3.89955 10.7663 3.95179 10.7663ZM4.80541 11.9751H7.19555C7.2478 11.9751 7.29953 11.9648 7.3478 11.9448C7.39607 11.9248 7.43993 11.8955 7.47688 11.8586C7.51382 11.8216 7.54313 11.7778 7.56313 11.7295C7.58312 11.6812 7.59341 11.6295 7.59341 11.5773C7.59341 11.525 7.58312 11.4733 7.56313 11.425C7.54313 11.3767 7.51382 11.3329 7.47688 11.296C7.43993 11.259 7.39607 11.2297 7.3478 11.2097C7.29953 11.1897 7.2478 11.1795 7.19555 11.1795H4.80541C4.75317 11.1795 4.70143 11.1897 4.65316 11.2097C4.60489 11.2297 4.56103 11.259 4.52409 11.296C4.48714 11.3329 4.45783 11.3767 4.43784 11.425C4.41784 11.4733 4.40755 11.525 4.40755 11.5773C4.40755 11.6295 4.41784 11.6812 4.43784 11.7295C4.45783 11.7778 4.48714 11.8216 4.52409 11.8586C4.56103 11.8955 4.60489 11.9248 4.65316 11.9448C4.70143 11.9648 4.75317 11.9751 4.80541 11.9751Z" fill="white"/>
</g>
<defs>
<clipPath id="clip0_0_2583">
<rect width="12" height="12" fill="white"/>
</clipPath>
</defs>
</svg>
