<svg width="33" height="34" viewBox="0 0 33 34" fill="none" xmlns="http://www.w3.org/2000/svg">
<path d="M16.4935 3.34839C9.39768 3.34839 3.64618 9.24367 3.64618 16.5168C3.64618 23.79 9.39768 29.6853 16.4935 29.6853C23.5892 29.6853 29.3407 23.79 29.3407 16.5168C29.3407 9.24367 23.5892 3.34839 16.4935 3.34839ZM9.25995 12.2261L14.0648 8.26146C14.3597 8.0169 14.8 8.23362 14.8 8.62333V11.22H18.827C20.1946 11.22 23.3565 11.4149 23.8938 15.296C23.9209 15.4929 23.6804 15.6062 23.5524 15.4571C22.8327 14.628 21.9831 14.0017 20.311 14.0017H14.7981V16.5546C14.7981 16.9443 14.3577 17.1591 14.0629 16.9165L9.25995 12.9479C9.20727 12.9045 9.16475 12.8495 9.13554 12.7871C9.10633 12.7246 9.09116 12.6562 9.09116 12.587C9.09116 12.5177 9.10633 12.4493 9.13554 12.3869C9.16475 12.3244 9.20727 12.2695 9.25995 12.2261ZM23.7289 20.4358L18.924 24.4004C18.6292 24.645 18.1888 24.4283 18.1888 24.0386V21.4418H14.1618C12.7943 21.4418 9.63239 21.247 9.09507 17.3658C9.06791 17.169 9.30845 17.0557 9.43647 17.2048C10.1561 18.0339 11.0058 18.6602 12.6779 18.6602H18.1908V16.1092C18.1908 15.7195 18.6311 15.5048 18.926 15.7474L23.7308 19.712C23.9539 19.8989 23.9539 20.2489 23.7289 20.4358Z" fill="#56A3F8"/>
<path d="M27.253 10.4101C27.253 10.1097 27.2453 9.81142 27.2318 9.5151C24.9634 5.80907 20.9768 3.34839 16.4323 3.34839C9.37028 3.34839 3.64618 9.28484 3.64618 16.6088C3.64618 21.4761 6.17714 25.7287 9.94559 28.0352C10.0479 28.0372 10.1522 28.0392 10.2564 28.0392C19.6428 28.0392 27.253 20.1467 27.253 10.4101ZM9.23129 12.2881L14.0133 8.29577C14.3067 8.0495 14.745 8.26774 14.745 8.66017V11.275H18.7547C20.1158 11.275 23.2626 11.4712 23.7973 15.3795C23.8244 15.5777 23.585 15.6918 23.4576 15.5417C22.7413 14.7067 21.8957 14.0761 20.2316 14.0761H14.745V16.6469C14.745 17.0393 14.3067 17.2555 14.0133 17.0113L9.23129 13.0149C9.17885 12.9712 9.13654 12.9159 9.10747 12.853C9.07839 12.7901 9.0633 12.7213 9.0633 12.6515C9.0633 12.5818 9.07839 12.5129 9.10747 12.45C9.13654 12.3871 9.17885 12.3318 9.23129 12.2881ZM18.1157 24.1831V21.5682H14.1059C12.7449 21.5682 9.59809 21.372 9.06333 17.4637C9.0363 17.2655 9.27569 17.1514 9.4031 17.3016C10.1193 18.1365 10.9649 18.7672 12.6291 18.7672H18.1157V16.1984C18.1157 15.8059 18.554 15.5897 18.8474 15.834L23.6294 19.8263C23.8533 20.0125 23.8533 20.3669 23.6294 20.5531L18.8474 24.5454C18.554 24.7917 18.1157 24.5755 18.1157 24.1831Z" fill="#6AAEF9"/>
<path d="M3.64618 16.6124C3.64618 18.4372 4.00161 20.1738 4.64292 21.7562C4.96165 21.7742 5.28231 21.7842 5.60683 21.7842C7.51339 21.7842 9.34655 21.4597 11.058 20.8588C10.1269 20.292 9.31758 19.2784 9.07032 17.4677C9.04328 17.2694 9.28281 17.1552 9.4103 17.3055C10.1269 18.1407 10.973 18.7717 12.6381 18.7717H15.1165C16.2249 17.9951 17.2415 17.0862 18.1453 16.0636C18.184 15.9294 18.2786 15.8292 18.3945 15.7772C18.8504 15.2383 19.2754 14.6715 19.6656 14.0786H14.7533V16.6505C14.7533 17.0431 14.3148 17.2594 14.0212 17.015L9.23645 13.017C9.18398 12.9733 9.14165 12.9179 9.11256 12.855C9.08347 12.7921 9.06836 12.7232 9.06836 12.6534C9.06836 12.5837 9.08347 12.5148 9.11256 12.4519C9.14165 12.3889 9.18398 12.3336 9.23645 12.2899L14.0212 8.29587C14.3148 8.04949 14.7533 8.26782 14.7533 8.66042V11.2764H18.7654C19.3198 11.2764 20.1717 11.3084 21.0216 11.6129C21.9608 9.5321 22.4958 7.27993 22.5959 4.98487C20.7101 3.90896 18.5921 3.34596 16.4397 3.3484C9.37553 3.34639 3.64618 9.28736 3.64618 16.6124Z" fill="#7FBDFF"/>
<path d="M3.64618 15.3646C5.71932 15.0654 7.72072 14.3704 9.54852 13.3149L9.18482 13.0126C9.13228 12.9689 9.08988 12.9136 9.06075 12.8507C9.03161 12.7879 9.01649 12.719 9.01649 12.6493C9.01649 12.5796 9.03161 12.5107 9.06075 12.4478C9.08988 12.385 9.13228 12.3297 9.18482 12.286L13.9767 8.29459C14.2708 8.04839 14.7099 8.26657 14.7099 8.6589V8.73497C15.9168 7.133 16.8462 5.32677 17.457 3.39643C17.1051 3.36531 16.752 3.34928 16.3988 3.34839C9.73037 3.34639 4.2517 8.62488 3.64618 15.3646Z" fill="#ABD3FF"/>
</svg>
