<svg width="33" height="34" viewBox="0 0 33 34" fill="none" xmlns="http://www.w3.org/2000/svg">
<path d="M16.5036 20.594C29.3155 20.594 29.1866 28.5111 29.1866 28.5111C29.2838 29.2296 28.7645 29.8122 28.0251 29.8122H4.98124C4.2427 29.8122 3.69499 29.2213 3.81973 28.5111C3.81973 28.5111 3.6917 20.594 16.5036 20.594ZM16.5 3.47528C12.0702 3.47528 8.47983 7.01154 8.47983 11.3765C8.47983 15.7414 12.0708 19.2774 16.5 19.2774C20.9292 19.2774 24.5199 15.7411 24.5199 11.3765V3.47528H16.5ZM20.3531 14.8718C19.2536 15.6403 17.9389 16.0531 16.5908 16.0531C15.2427 16.0531 13.928 15.6403 12.8285 14.8718C12.3362 14.527 12.1899 13.9364 12.4433 13.658C12.6975 13.3768 13.1764 13.4305 13.5587 13.6954C14.4448 14.3148 15.5044 14.6475 16.5909 14.6475C17.6774 14.6475 18.7371 14.3148 19.6232 13.6954C20.0052 13.4302 20.4841 13.3768 20.7383 13.658C20.992 13.9364 20.8457 14.527 20.3531 14.8718Z" fill="#60EFD7"/>
<path d="M16.4851 20.5416C5.24796 20.5416 3.95055 26.6499 3.80197 28.1661C3.90183 28.633 4.02165 29.0918 4.16145 29.5427C4.38274 29.7201 4.65972 29.8153 4.9445 29.8121H28.0234C28.7639 29.8121 29.2839 29.2262 29.1866 28.5037C29.1866 28.5037 29.3157 20.5416 16.4851 20.5416ZM24.5137 8.24911C24.013 8.20249 23.5063 8.17888 22.9934 8.17828C17.385 8.17828 12.4488 11.0263 9.58202 15.3399C10.2939 16.5222 11.3042 17.5012 12.5137 18.1809C13.7232 18.8607 15.0905 19.2179 16.4815 19.2175C20.9175 19.2175 24.5131 15.6611 24.5131 11.2717L24.5137 8.24911ZM20.3402 14.7866C19.2392 15.5596 17.9225 15.9748 16.5725 15.9748C15.2224 15.9748 13.9057 15.5596 12.8047 14.7866C12.3116 14.4401 12.1651 13.8462 12.4189 13.5661C12.6735 13.2834 13.1531 13.3373 13.5359 13.6038C14.4233 14.2267 15.4845 14.5613 16.5726 14.5613C17.6607 14.5613 18.7219 14.2267 19.6093 13.6038C19.9918 13.3371 20.4714 13.2834 20.726 13.5661C20.9801 13.8462 20.8336 14.4401 20.3402 14.7866Z" fill="#59DEC3"/>
<path d="M16.5925 20.6511C15.503 20.6468 14.4144 20.7116 13.3334 20.8452C10.9375 23.2835 9.41632 26.4208 8.99988 29.7824H28.0556C28.7913 29.7824 29.3079 29.2053 29.2112 28.4936C29.2112 28.4936 29.3395 20.6511 16.5925 20.6511ZM15.1872 19.2263C16.6572 19.4821 18.1709 19.3289 19.5567 18.7841C20.9424 18.2393 22.1449 17.3246 23.0278 16.1437C20.1782 16.4572 17.4686 17.5225 15.1872 19.2263Z" fill="#2ED6B9"/>
<path d="M15.5595 29.8122H28.0297C28.7662 29.8122 29.2835 29.2159 29.1866 28.4805C29.1866 28.4805 29.2549 24.1455 24.2987 21.817C20.4881 23.2615 17.3636 26.1201 15.5595 29.8122Z" fill="#12CEAA"/>
<path d="M16.4718 5.49405C16.7022 5.7881 15.4901 6.15106 14.2109 6.87543C12.9317 7.5998 12.0708 8.41044 11.8403 8.11639C11.6098 7.82234 12.3171 6.81507 13.596 6.09096C14.8749 5.36685 16.2413 5.20026 16.4718 5.49405Z" fill="white"/>
</svg>
