<svg width="32" height="32" viewBox="0 0 32 32" fill="none" xmlns="http://www.w3.org/2000/svg">
<path d="M6.44697 10.0985V7.46351H28.2601C28.071 6.11191 26.9116 5.07031 25.5073 5.07031H6.05947C4.52187 5.07031 3.27722 6.31651 3.27722 7.85256V23.4719C3.27722 25.0095 4.52342 26.2542 6.05947 26.2542H25.5089C27.0465 26.2542 28.2911 25.008 28.2911 23.4719V10.0985H6.44697ZM23.3838 19.1335C22.1934 19.1335 21.2293 18.1694 21.2293 16.979C21.2293 15.7886 22.1934 14.8245 23.3838 14.8245C24.5742 14.8245 25.5383 15.7886 25.5383 16.979C25.5383 18.1694 24.5742 19.1335 23.3838 19.1335Z" fill="#FD8D3C"/>
<path d="M28.2911 10.0985H6.44697V7.46351H28.2601C28.071 6.11191 26.9116 5.07031 25.5073 5.07031H6.05947C4.52187 5.07031 3.27722 6.31651 3.27722 7.85256V23.4719C3.27722 25.0095 4.52342 26.2542 6.05947 26.2542H13.8916C21.4153 24.4887 27.2061 18.6917 28.2927 10.9743V10.0985H28.2911ZM23.3838 19.1335C22.1934 19.1335 21.2293 18.1694 21.2293 16.979C21.2293 15.7886 22.1934 14.8245 23.3838 14.8245C24.5742 14.8245 25.5383 15.7886 25.5383 16.979C25.5383 18.1694 24.5742 19.1335 23.3838 19.1335Z" fill="#FFAB65"/>
<path d="M6.44697 7.46351H22.226C22.5003 6.68696 22.7251 5.88871 22.8956 5.07031H6.05947C4.52187 5.07031 3.27722 6.31651 3.27722 7.85256V20.0402C3.62597 20.0588 3.97627 20.0697 4.32967 20.0697C11.7449 20.0697 18.165 16.2613 21.282 10.0985H6.44697V7.46351Z" fill="#FEBC80"/>
<path d="M10.88 10.0985H6.44697V7.46351H13.3755C14.0792 6.71951 14.724 5.91971 15.299 5.07031H6.05947C4.52187 5.07031 3.27722 6.31651 3.27722 7.85256V13.0404C6.08272 12.4855 8.66812 11.7369 10.88 10.0985Z" fill="#FFC995"/>
</svg>
