<svg width="33" height="33" viewBox="0 0 33 33" fill="none" xmlns="http://www.w3.org/2000/svg">
<path d="M28.7525 14.8144L24.0833 10.0627L18.1192 3.99342C17.9133 3.78397 17.6685 3.61775 17.3989 3.50433C17.1293 3.39091 16.8402 3.33252 16.5482 3.33252C16.2562 3.33252 15.967 3.39091 15.6974 3.50433C15.4278 3.61775 15.183 3.78397 14.9771 3.99342L9.01302 10.0627L4.34385 14.8144C3.32239 15.8529 3.99124 17.7319 5.38335 17.7319H7.03177V28.4629C7.03177 28.7829 7.15744 29.0898 7.38114 29.316C7.60484 29.5423 7.90824 29.6694 8.22459 29.6694H13.6807V17.7319H19.4156V29.6694H24.872C25.1884 29.6694 25.4918 29.5423 25.7155 29.316C25.9392 29.0898 26.0648 28.7829 26.0648 28.4629V17.7319H27.7133C29.1051 17.7319 29.7739 15.8529 28.7525 14.8144Z" fill="#ADB1FF"/>
<path d="M24.003 10.1305L20.9639 7.09473C13.7933 7.43109 8.08274 13.3083 8.08274 20.5093C8.07824 23.9104 9.37862 27.1856 11.7196 29.6692H13.4393V17.7732H19.263V29.6692H24.804C25.1252 29.6692 25.4333 29.5425 25.6605 29.3171C25.8877 29.0916 26.0153 28.7857 26.0153 28.4669V17.7732H27.6892C29.1029 17.7732 29.7821 15.9019 28.7448 14.8658L24.003 10.1305Z" fill="#9D9EFE"/>
<path d="M24.9647 10.8569C20.9329 11.5886 17.5256 14.1431 15.6076 17.6477H19.3496V29.669H24.8425C25.161 29.669 25.4664 29.541 25.6916 29.3131C25.9168 29.0853 26.0433 28.7762 26.0433 28.454V17.6477H27.7027C29.1042 17.6477 29.7775 15.7567 28.7492 14.7097L24.9647 10.8569Z" fill="#7C82FC"/>
<path d="M19.37 23.701V29.6694H24.863C25.1815 29.6694 25.4869 29.544 25.7121 29.3209C25.9373 29.0977 26.0638 28.7949 26.0638 28.4793V17.8943H27.7233C28.5533 17.8943 29.1292 17.2447 29.2463 16.501C24.9075 17.1892 21.2643 19.9373 19.37 23.701Z" fill="#6C6CEA"/>
<path d="M15.582 6.78481C15.7895 7.1279 14.6982 7.55139 13.5472 8.39626C12.3961 9.24113 11.6201 10.1876 11.4135 9.84448C11.2069 9.50139 11.8424 8.32613 12.9934 7.48217C14.1445 6.63821 15.3746 6.44173 15.582 6.78481Z" fill="white"/>
</svg>
