<svg width="38" height="30" viewBox="0 0 38 30" fill="none" xmlns="http://www.w3.org/2000/svg">
<path d="M34.833 0H3.16702C1.41794 0 0 1.43924 0 3.21459V4.28756H38V3.21459C38 1.43924 36.5821 0 34.833 0ZM0 26.7854C0 28.5608 1.41794 30 3.16702 30H34.833C36.5821 30 38 28.5608 38 26.7854V6.42919H0V26.7854ZM23.222 11.2468C23.222 10.9537 23.4597 10.7124 23.7484 10.7124H33.2495C33.5382 10.7124 33.7759 10.9537 33.7759 11.2468V12.3197C33.7759 12.6128 33.5382 12.8541 33.2495 12.8541H23.7527C23.464 12.8541 23.2262 12.6128 23.2262 12.3197V11.2468H23.222ZM23.222 15.5343C23.222 15.2413 23.4597 15 23.7484 15H33.2495C33.5382 15 33.7759 15.2413 33.7759 15.5343V16.6073C33.7759 16.9003 33.5382 17.1416 33.2495 17.1416H23.7527C23.464 17.1416 23.2262 16.9003 23.2262 16.6073V15.5343H23.222ZM23.222 19.8219C23.222 19.5289 23.4597 19.2876 23.7484 19.2876H33.2495C33.5382 19.2876 33.7759 19.5289 33.7759 19.8219V20.8905C33.7759 21.1836 33.5382 21.4249 33.2495 21.4249H23.7527C23.464 21.4249 23.2262 21.1836 23.2262 20.8905V19.8219H23.222ZM11.611 10.7124C13.9417 10.7124 15.8351 12.6343 15.8351 15C15.8351 17.3657 13.9417 19.2876 11.611 19.2876C9.2803 19.2876 7.38688 17.3657 7.38688 15C7.38688 12.6343 9.28455 10.7124 11.611 10.7124ZM4.42789 24.3852C4.98402 22.6659 6.57178 21.4249 8.44397 21.4249H8.98313C9.79399 21.7653 10.677 21.9592 11.611 21.9592C12.545 21.9592 13.4322 21.7653 14.2389 21.4249H14.778C16.6502 21.4249 18.2422 22.6616 18.7941 24.3852C19.0064 25.0488 18.4502 25.7124 17.7667 25.7124H5.45526C4.77176 25.7124 4.21562 25.0445 4.42789 24.3852Z" fill="url(#paint0_linear_0_11726)"/>
<defs>
<linearGradient id="paint0_linear_0_11726" x1="19" y1="0" x2="19" y2="30" gradientUnits="userSpaceOnUse">
<stop stop-color="white" stop-opacity="0.67"/>
<stop offset="1" stop-color="white" stop-opacity="0"/>
</linearGradient>
</defs>
</svg>
