<svg width="52" height="52" viewBox="0 0 52 52" fill="none" xmlns="http://www.w3.org/2000/svg">
<path d="M34.3435 28.3461L31.2966 18.9465C31.1039 18.339 30.7231 17.8084 30.2092 17.4315C29.6953 17.0545 29.0749 16.8506 28.4376 16.8492H23.7657C23.3562 16.854 22.9521 16.9435 22.5789 17.1122C22.2057 17.2809 21.8715 17.525 21.5974 17.8293C21.4907 17.9715 21.379 18.1086 21.2622 18.2355C21.1949 18.3498 21.1355 18.4686 21.0845 18.591C21.7386 18.8214 22.3304 19.2005 22.8133 19.6983C23.2961 20.1962 23.6569 20.7993 23.8673 21.4601L26.9142 30.8547C27.1538 31.5927 27.1232 32.3918 26.8278 33.1093V41.7777C26.8278 42.0151 26.8746 42.2502 26.9654 42.4695C27.0563 42.6889 27.1895 42.8882 27.3573 43.056C27.5252 43.2239 27.7245 43.3571 27.9438 43.4479C28.1632 43.5388 28.3982 43.5855 28.6356 43.5855C28.8731 43.5855 29.1081 43.5388 29.3275 43.4479C29.5468 43.3571 29.7461 43.2239 29.914 43.056C30.0818 42.8882 30.215 42.6889 30.3058 42.4695C30.3967 42.2502 30.4435 42.0151 30.4435 41.7777V27.8636L30.9513 29.4582C31.0655 29.8186 31.2913 30.1335 31.5962 30.3571C31.9011 30.5808 32.2692 30.7017 32.6474 30.7023C32.8356 30.7017 33.0225 30.6708 33.2009 30.6109C33.5365 30.501 33.8322 30.2944 34.0508 30.0171C34.2695 29.7397 34.4013 29.4039 34.4298 29.0519C34.4465 28.8133 34.4171 28.5737 34.3435 28.3461Z" fill="url(#paint0_linear_0_11723)"/>
<path d="M23.8673 35.6179C23.6401 35.6229 23.4131 35.599 23.1919 35.5468V44.1797C23.3407 44.2407 23.4985 44.2768 23.6591 44.2863C24.1245 44.2537 24.5581 44.0384 24.8653 43.6874C25.1726 43.3364 25.3286 42.8781 25.2993 42.4125V35.1508C25.1398 35.2662 24.9697 35.3665 24.7915 35.4504C24.496 35.5613 24.1829 35.6181 23.8673 35.6179ZM24.4056 15.2343C25.1809 15.498 26.0198 15.5085 26.8015 15.2644C27.5832 15.0204 28.2671 14.5343 28.7546 13.8764C29.2421 13.2184 29.5081 12.4227 29.514 11.6038C29.52 10.7849 29.2657 9.98535 28.7878 9.32038C28.3099 8.65541 27.6332 8.15943 26.8551 7.904C26.0771 7.64857 25.2381 7.64688 24.459 7.89918C23.68 8.15148 23.0012 8.64473 22.5207 9.30778C22.0401 9.97082 21.7826 10.7694 21.7853 11.5883C21.7909 12.3925 22.046 13.1751 22.5153 13.8282C22.9847 14.4813 23.6451 14.9726 24.4056 15.2343Z" fill="url(#paint1_linear_0_11723)"/>
<path d="M32.2867 32.7996C32.062 32.8012 31.8382 32.7721 31.6214 32.7132V41.3765C31.7693 41.4405 31.9277 41.4766 32.0886 41.4832C32.554 41.4506 32.9876 41.2353 33.2949 40.8842C33.6021 40.5332 33.7581 40.0749 33.7289 39.6093V32.3324C33.571 32.4504 33.4007 32.5508 33.221 32.632C32.9227 32.7453 32.6058 32.8021 32.2867 32.7996ZM44.1796 25.5277L41.1328 16.1281C40.9389 15.5207 40.557 14.9907 40.0421 14.6146C39.5273 14.2385 38.9063 14.0359 38.2687 14.0359H33.6019C33.1915 14.04 32.7865 14.1292 32.4124 14.2979C32.0382 14.4666 31.7032 14.7111 31.4285 15.016C31.3269 15.1531 31.2152 15.2902 31.0984 15.4222C31.0314 15.5358 30.9704 15.6527 30.9156 15.7726C31.5707 16.0024 32.1634 16.3811 32.6472 16.879C33.131 17.3769 33.4926 17.9803 33.7035 18.6417L36.7503 28.0363C36.9876 28.776 36.9588 29.5753 36.6691 30.296V38.9593C36.6561 39.2044 36.6931 39.4497 36.778 39.68C36.8628 39.9103 36.9937 40.121 37.1626 40.2991C37.3315 40.4772 37.535 40.6191 37.7605 40.716C37.986 40.8129 38.2289 40.8629 38.4744 40.8629C38.7198 40.8629 38.9627 40.8129 39.1883 40.716C39.4138 40.6191 39.6172 40.4772 39.7861 40.2991C39.955 40.121 40.0859 39.9103 40.1707 39.68C40.2556 39.4497 40.2926 39.2044 40.2796 38.9593V25.0503L40.7874 26.6398C40.9016 27.0003 41.1275 27.3151 41.4324 27.5387C41.7373 27.7624 42.1054 27.8833 42.4835 27.8839C42.6713 27.8822 42.8577 27.8532 43.0371 27.7976C43.3707 27.6852 43.6642 27.4777 43.8817 27.2008C44.0991 26.9238 44.2309 26.5894 44.2609 26.2386C44.2823 25.9986 44.2546 25.7567 44.1796 25.5277ZM34.2417 12.4007C35.0426 12.6992 35.9241 12.6992 36.7249 12.4007C37.5922 12.1065 38.3268 11.5138 38.7978 10.7283C39.2687 9.9428 39.4453 9.01559 39.2962 8.11197C39.1471 7.20834 38.6819 6.38705 37.9836 5.79451C37.2853 5.20197 36.3992 4.87671 35.4833 4.87671C34.5675 4.87671 33.6814 5.20197 32.9831 5.79451C32.2848 6.38705 31.8196 7.20834 31.6705 8.11197C31.5213 9.01559 31.698 9.9428 32.1689 10.7283C32.6399 11.5138 33.3745 12.1065 34.2417 12.4007ZM21.4347 22.4656C21.2344 21.8548 20.8461 21.3231 20.3252 20.9464C19.8044 20.5697 19.1779 20.3674 18.5351 20.3683H13.7972C13.1545 20.3674 12.5279 20.5697 12.0071 20.9464C11.4863 21.3231 11.0979 21.8548 10.8976 22.4656L7.82534 31.8652C7.75033 32.0925 7.72267 32.3327 7.74409 32.571C7.77335 32.9243 7.90667 33.2609 8.12722 33.5384C8.34776 33.8159 8.64562 34.0218 8.98315 34.13C9.16486 34.1908 9.35523 34.2216 9.54682 34.2214C9.92766 34.2219 10.2989 34.1018 10.6072 33.8783C10.9156 33.6548 11.1452 33.3394 11.2632 32.9773L11.771 31.3828V45.2968C11.771 45.7817 11.9636 46.2467 12.3065 46.5895C12.6493 46.9323 13.1143 47.125 13.5992 47.125C14.084 47.125 14.549 46.9323 14.8918 46.5895C15.2347 46.2467 15.4273 45.7817 15.4273 45.2968V34.4093H16.8746V45.2968C16.8746 45.7817 17.0672 46.2467 17.41 46.5895C17.7528 46.9323 18.2178 47.125 18.7027 47.125C19.1875 47.125 19.6525 46.9323 19.9954 46.5895C20.3382 46.2467 20.5308 45.7817 20.5308 45.2968V31.3828L21.0386 32.9773C21.1566 33.3394 21.3863 33.6548 21.6946 33.8783C22.003 34.1018 22.3742 34.2219 22.755 34.2214C22.945 34.2221 23.1338 34.1912 23.3136 34.13C23.6521 34.0226 23.951 33.8171 24.1725 33.5396C24.394 33.262 24.5281 32.9249 24.5578 32.571C24.5792 32.3327 24.5515 32.0925 24.4765 31.8652L21.4347 22.4656ZM14.5691 18.7382C15.3714 19.038 16.255 19.038 17.0574 18.7382C17.9228 18.4435 18.6555 17.8511 19.125 17.0666C19.5944 16.282 19.7701 15.3563 19.6207 14.4543C19.4714 13.5524 19.0066 12.7327 18.3094 12.1414C17.6121 11.5501 16.7275 11.2255 15.8132 11.2255C14.899 11.2255 14.0144 11.5501 13.3171 12.1414C12.6198 12.7327 12.1551 13.5524 12.0057 14.4543C11.8563 15.3563 12.032 16.282 12.5015 17.0666C12.9709 17.8511 13.7036 18.4435 14.5691 18.7382Z" fill="url(#paint2_linear_0_11723)"/>
<defs>
<linearGradient id="paint0_linear_0_11723" x1="27.7594" y1="7.71118" x2="27.7594" y2="44.2863" gradientUnits="userSpaceOnUse">
<stop stop-color="white" stop-opacity="0.8"/>
<stop offset="1" stop-color="white" stop-opacity="0.55"/>
</linearGradient>
<linearGradient id="paint1_linear_0_11723" x1="27.7594" y1="7.71118" x2="27.7594" y2="44.2863" gradientUnits="userSpaceOnUse">
<stop stop-color="white" stop-opacity="0.8"/>
<stop offset="1" stop-color="white" stop-opacity="0.55"/>
</linearGradient>
<linearGradient id="paint2_linear_0_11723" x1="26.0025" y1="4.87671" x2="26.0025" y2="47.125" gradientUnits="userSpaceOnUse">
<stop stop-color="white" stop-opacity="0.63"/>
<stop offset="1" stop-color="white" stop-opacity="0"/>
</linearGradient>
</defs>
</svg>
