<svg width="24" height="24" viewBox="0 0 24 24" fill="none" xmlns="http://www.w3.org/2000/svg">
<path d="M10.9995 1.99951C15.9675 1.99951 19.9995 6.03151 19.9995 10.9995C19.9995 15.9675 15.9675 19.9995 10.9995 19.9995C6.03151 19.9995 1.99951 15.9675 1.99951 10.9995C1.99951 6.03151 6.03151 1.99951 10.9995 1.99951ZM10.9995 18C11.9189 18.0002 12.8293 17.8193 13.6787 17.4675C14.5281 17.1158 15.3 16.6001 15.9501 15.9501C16.6001 15.3 17.1158 14.5281 17.4675 13.6787C17.8193 12.8293 18.0002 11.9189 18 10.9995C18.0002 10.0802 17.8193 9.16988 17.4675 8.32053C17.1157 7.47119 16.6001 6.69948 15.95 6.0495C15.2998 5.39952 14.528 4.88402 13.6786 4.53245C12.8292 4.18087 11.9188 4.00012 10.9995 4.00051C10.0803 4.00031 9.17012 4.18121 8.32088 4.53288C7.47163 4.88454 6.69999 5.40008 6.05003 6.05003C5.40008 6.69999 4.88454 7.47163 4.53288 8.32088C4.18121 9.17012 4.00031 10.0803 4.00051 10.9995C4.00012 11.9188 4.18087 12.8292 4.53245 13.6786C4.88402 14.528 5.39952 15.2998 6.0495 15.95C6.69948 16.6001 7.47119 17.1157 8.32053 17.4675C9.16988 17.8193 10.0802 18.0002 10.9995 18ZM18.7778 18.7778C19.1684 18.3872 19.8017 18.3872 20.1923 18.7778L21.6068 20.1923C21.9974 20.5829 21.9974 21.2162 21.6068 21.6068C21.2162 21.9974 20.5829 21.9974 20.1923 21.6068L18.7778 20.1923C18.3872 19.8017 18.3872 19.1684 18.7778 18.7778Z" fill="#999999"/>
</svg>
