<svg width="33" height="32" viewBox="0 0 33 32" fill="none" xmlns="http://www.w3.org/2000/svg">
<g clip-path="url(#clip0_0_459)">
<g filter="url(#filter0_f_0_459)">
<ellipse cx="19.6624" cy="18.7694" rx="9.23067" ry="9.23062" fill="#00FF69"/>
</g>
<path d="M23.2996 16.8691C26.3941 16.8691 28.9586 19.4022 28.9382 22.4961V22.4971C28.9145 25.5485 26.4448 28.0184 23.3933 28.042H23.3523C20.273 28.042 17.7625 25.4893 17.7625 22.4062V17.3154C17.7625 17.0698 17.9631 16.8691 18.2087 16.8691H23.2996ZM19.6931 22.4062C19.6931 23.3863 20.078 24.3159 20.7751 25.0215C21.4723 25.7242 22.3875 26.1113 23.3523 26.1113H23.3806L23.5603 26.1055C24.3987 26.0597 25.1859 25.73 25.8074 25.166L25.9382 25.041C26.6204 24.3558 26.9991 23.4493 27.0076 22.4834C27.0131 21.5212 26.6371 20.6059 25.9431 19.9062C25.5975 19.5579 25.1954 19.2857 24.7488 19.0947C24.2884 18.8983 23.7996 18.7998 23.2996 18.7998H19.6931V22.4062ZM10.4294 18.7998C9.92654 18.7998 9.44063 18.8983 8.98022 19.0947C8.5336 19.2857 8.13154 19.5579 7.78589 19.9062V19.9072C7.09186 20.6041 6.71303 21.5214 6.72144 22.4834C6.72705 23.4491 7.10857 24.3586 7.79077 25.041C8.47608 25.7235 9.38322 26.1029 10.3494 26.1113H10.3767C11.3445 26.1113 12.2597 25.7241 12.9539 25.0215C13.651 24.3159 14.0359 23.3863 14.0359 22.4062V18.7998H10.4294ZM10.3796 3.90039C13.4637 3.90039 15.9665 6.40242 15.9666 9.48926V14.627C15.9664 14.8725 15.7658 15.0732 15.5203 15.0732H10.3796C7.29577 15.0731 4.7937 12.5732 4.7937 9.48633C4.79377 6.39384 7.28421 3.90056 10.3796 3.90039ZM23.3494 3.90039C26.4303 3.90057 28.9294 6.39665 28.9382 9.47461C28.9412 12.5539 26.3798 15.0732 23.3025 15.0732H18.2087C17.9632 15.0732 17.7626 14.8725 17.7625 14.627V9.48633C17.7625 6.40239 20.2624 3.90039 23.3494 3.90039ZM23.3494 5.83105C22.3723 5.83105 21.4543 6.21253 20.7634 6.90332C20.0727 7.59409 19.6931 8.51189 19.6931 9.48926V13.1455H23.3025C23.7993 13.1455 24.2827 13.0436 24.741 12.8496C25.1871 12.6616 25.5864 12.3899 25.9324 12.0439C26.6266 11.3469 27.0073 10.4374 27.0046 9.48145V9.48047C27.0046 8.50623 26.6231 7.58832 25.9324 6.90039C25.2416 6.20966 24.3237 5.83114 23.3494 5.83105ZM10.3796 5.83105C9.39928 5.83113 8.47848 6.20976 7.79077 6.89746C7.10308 7.5852 6.7244 8.50595 6.72437 9.48633C6.72437 10.4636 7.10304 11.3815 7.7937 12.0723C8.48442 12.763 9.40235 13.1425 10.3796 13.1426H14.0359V9.48633C14.0359 8.50897 13.6563 7.59115 12.9656 6.90039C12.2748 6.20975 11.3569 5.83105 10.3796 5.83105ZM15.9695 22.4092C15.9695 25.4893 13.459 28.0449 10.3796 28.0449H10.3386C7.28715 28.0213 4.81746 25.5514 4.7937 22.5V22.499C4.77046 19.4023 7.33486 16.8691 10.4294 16.8691H15.5203C15.7661 16.8691 15.9657 17.0694 15.9695 17.3135V22.4092Z" fill="#333333" stroke="#333333" stroke-width="0.2"/>
</g>
<defs>
<filter id="filter0_f_0_459" x="6.4317" y="5.53882" width="26.4614" height="26.4612" filterUnits="userSpaceOnUse" color-interpolation-filters="sRGB">
<feFlood flood-opacity="0" result="BackgroundImageFix"/>
<feBlend mode="normal" in="SourceGraphic" in2="BackgroundImageFix" result="shape"/>
<feGaussianBlur stdDeviation="2" result="effect1_foregroundBlur_0_459"/>
</filter>
<clipPath id="clip0_0_459">
<rect width="32" height="32" fill="white" transform="translate(0.893311)"/>
</clipPath>
</defs>
</svg>
