<svg width="31" height="31" viewBox="0 0 31 31" fill="none" xmlns="http://www.w3.org/2000/svg">
<g filter="url(#filter0_f_0_416)">
<circle cx="17.6175" cy="17.6893" r="9.31066" fill="url(#paint0_linear_0_416)"/>
</g>
<path d="M0.858276 12.103H2.72041V8.37873H25.066V23.2758H2.72041V19.5515H0.858276V23.2758C0.858276 23.7697 1.05446 24.2433 1.40368 24.5925C1.7529 24.9417 2.22654 25.1379 2.72041 25.1379H25.066C25.5599 25.1379 26.0335 24.9417 26.3827 24.5925C26.7319 24.2433 26.9281 23.7697 26.9281 23.2758V8.37873C26.9281 7.88487 26.7319 7.41123 26.3827 7.06201C26.0335 6.71279 25.5599 6.5166 25.066 6.5166H2.72041C2.22654 6.5166 1.7529 6.71279 1.40368 7.06201C1.05446 7.41123 0.858276 7.88487 0.858276 8.37873V12.103Z" fill="black"/>
<path d="M0.858276 19.5516H2.72041V12.103H0.858276V19.5516ZM17.6175 16.7584H19.4796C19.4796 15.9874 19.7527 15.3295 20.2989 14.7845C20.8427 14.2383 21.5006 13.9652 22.2728 13.9652H25.066V16.7584H26.9281V12.103H22.2728C21.0381 12.103 19.854 12.5935 18.981 13.4665C18.1079 14.3396 17.6175 15.5237 17.6175 16.7584ZM17.6175 16.7584H19.4796C19.4796 17.5293 19.7527 18.1872 20.2989 18.7322C20.8439 19.2784 21.5019 19.5516 22.2728 19.5516H25.066V16.7584H26.9281V21.4137H22.2728C21.0381 21.4137 19.854 20.9232 18.981 20.0502C18.1079 19.1771 17.6175 17.993 17.6175 16.7584Z" fill="black"/>
<path d="M21.3419 16.7582C21.3419 17.0051 21.44 17.242 21.6147 17.4166C21.7893 17.5912 22.0261 17.6893 22.273 17.6893C22.5199 17.6893 22.7568 17.5912 22.9314 17.4166C23.106 17.242 23.2041 17.0051 23.2041 16.7582C23.2041 16.5113 23.106 16.2745 22.9314 16.0999C22.7568 15.9252 22.5199 15.8271 22.273 15.8271C22.0261 15.8271 21.7893 15.9252 21.6147 16.0999C21.44 16.2745 21.3419 16.5113 21.3419 16.7582Z" fill="black"/>
<path d="M16.1092 2.29899L17.6548 7.70289C17.6821 7.80097 17.7243 7.89159 17.7814 7.97476C17.8385 8.05794 17.9068 8.12994 17.9862 8.19077C18.0682 8.25284 18.1569 8.2994 18.2525 8.33043C18.3506 8.36271 18.4493 8.37885 18.5486 8.37885C18.6107 8.37885 18.6715 8.37264 18.7311 8.36023C18.7907 8.34781 18.8484 8.33043 18.9043 8.30809C18.9614 8.2845 19.0154 8.25595 19.0663 8.22243C19.1159 8.18767 19.1631 8.14918 19.2078 8.10698C19.25 8.06353 19.2885 8.01635 19.3233 7.96545C19.3568 7.91456 19.3853 7.86055 19.4089 7.80345C19.4325 7.74758 19.4499 7.68986 19.461 7.63027C19.4735 7.56944 19.4797 7.50861 19.4797 7.44778C19.4797 7.36088 19.4673 7.27584 19.4424 7.19267L17.5803 0.675209C17.5654 0.615621 17.5443 0.557895 17.517 0.502031C17.4872 0.449891 17.4537 0.400234 17.4164 0.35306C17.3767 0.304645 17.3339 0.261195 17.2879 0.222711C17.242 0.182985 17.1924 0.148226 17.139 0.118432C17.0856 0.0886375 17.0297 0.063809 16.9714 0.0439463C16.913 0.0265664 16.8534 0.0141522 16.7926 0.00670371C16.7318 -0.000744812 16.6716 -0.0019863 16.612 0.00297939C16.5524 0.00794507 16.4928 0.0184972 16.4332 0.0346357C16.3687 0.053257 16.3066 0.0780854 16.247 0.109121L4.14315 6.62658C4.06867 6.66755 4.00101 6.71721 3.94018 6.77555C3.87935 6.83266 3.82783 6.89783 3.78562 6.97108C3.74217 7.04308 3.70928 7.11943 3.68693 7.20012C3.66458 7.28081 3.65341 7.36336 3.65341 7.44778C3.65341 7.50985 3.65962 7.57068 3.67203 7.63027C3.68445 7.68986 3.70183 7.74758 3.72417 7.80345C3.74776 7.86055 3.77631 7.91456 3.80983 7.96545C3.84459 8.01511 3.88308 8.06229 3.92528 8.10698C3.96873 8.14918 4.01591 8.18767 4.06681 8.22243C4.1177 8.25595 4.17171 8.2845 4.22881 8.30809C4.28467 8.33167 4.3424 8.34905 4.40199 8.36023C4.46158 8.37264 4.52179 8.37885 4.58262 8.37885C4.73903 8.37885 4.88614 8.3416 5.02394 8.26712L16.1092 2.29899Z" fill="black"/>
<path d="M8.61778 4.65461H2.72041V8.37888H0.858276V4.65461C0.858276 4.16074 1.05446 3.6871 1.40368 3.33789C1.7529 2.98867 2.22654 2.79248 2.72041 2.79248H12.6512L8.61778 4.65461ZM17.3065 2.79248L17.9284 4.65461H21.3417V8.37888H23.2039V4.65461C23.2039 4.16074 23.0077 3.6871 22.6584 3.33789C22.3092 2.98867 21.8356 2.79248 21.3417 2.79248H17.3065Z" fill="black"/>
<defs>
<filter id="filter0_f_0_416" x="4.30685" y="4.37866" width="26.6213" height="26.6213" filterUnits="userSpaceOnUse" color-interpolation-filters="sRGB">
<feFlood flood-opacity="0" result="BackgroundImageFix"/>
<feBlend mode="normal" in="SourceGraphic" in2="BackgroundImageFix" result="shape"/>
<feGaussianBlur stdDeviation="2" result="effect1_foregroundBlur_0_416"/>
</filter>
<linearGradient id="paint0_linear_0_416" x1="8.30685" y1="17.6893" x2="26.9282" y2="17.6893" gradientUnits="userSpaceOnUse">
<stop offset="1" stop-color="#00FF69"/>
</linearGradient>
</defs>
</svg>
