<svg width="33" height="32" viewBox="0 0 33 32" fill="none" xmlns="http://www.w3.org/2000/svg">
<g clip-path="url(#clip0_0_464)">
<g filter="url(#filter0_f_0_464)">
<circle cx="18.679" cy="20.7144" r="11" fill="#E6DFFF"/>
</g>
<path d="M32.1464 20.1533C31.8246 19.3783 31.2058 18.7783 30.4527 18.5096C29.7371 18.2533 28.9683 18.3096 28.2902 18.6721C28.2871 18.6752 28.2808 18.6752 28.2777 18.6783L22.9871 21.6002C22.5027 21.8658 22.3277 22.4752 22.5964 22.9596C22.8621 23.444 23.4714 23.619 23.9558 23.3502L29.2371 20.4346C29.4558 20.319 29.6527 20.3471 29.7777 20.394C29.9996 20.4721 30.1902 20.6658 30.2964 20.9252C30.5183 21.4533 30.3402 22.094 29.9027 22.3471C29.8964 22.3502 29.8933 22.3533 29.8871 22.3565C26.0464 24.6908 18.7652 29.1065 17.2121 30.0002H7.50269C6.94956 30.0002 6.50269 30.4471 6.50269 31.0002C6.50269 31.5533 6.94956 32.0002 7.50269 32.0002H17.4746C17.6402 32.0002 17.8058 31.9596 17.9527 31.8783C19.1027 31.2533 30.3433 24.419 30.9214 24.069C31.5558 23.6971 32.0277 23.0846 32.2527 22.3471C32.4714 21.6252 32.4339 20.8471 32.1464 20.1533Z" fill="#333333"/>
<path d="M10.2777 22.3596C11.8746 22.3783 13.3589 22.5033 14.9339 22.6346C16.1589 22.7377 17.4277 22.844 18.9058 22.919C19.4402 22.9471 19.7808 23.3877 19.7621 23.7814L19.7589 23.8408C19.7371 24.2783 19.2871 24.6377 18.7496 24.6502L13.9777 24.3346C13.4277 24.2971 12.9496 24.7158 12.9152 25.2658C12.8777 25.8158 13.2964 26.2939 13.8464 26.3283L18.6558 26.6471C18.6777 26.6471 18.6996 26.6502 18.7214 26.6502C20.3496 26.6502 21.6839 25.4596 21.7589 23.9377L21.7621 23.8783C21.8371 22.3283 20.6027 21.0033 19.0089 20.9221C17.5621 20.8502 16.3121 20.7439 15.1027 20.6408C13.4933 20.5064 11.9714 20.3783 10.3058 20.3564C8.49018 20.3346 6.55268 21.0408 4.54018 22.4564C2.91518 23.6033 1.54955 24.9908 0.665179 25.9377C0.287054 26.3408 0.308929 26.9752 0.712054 27.3502C0.905804 27.5314 1.14955 27.6189 1.3933 27.6189C1.66205 27.6189 1.92768 27.5127 2.12455 27.3033C2.94955 26.4221 4.21518 25.1315 5.69018 24.0908C7.32455 22.9377 8.84955 22.3565 10.2183 22.3565C10.2371 22.3596 10.2558 22.3596 10.2777 22.3596Z" fill="#333333"/>
<path d="M21.3122 3.45473C20.8597 3.45473 20.4194 3.54088 19.9939 3.71386C19.5676 3.88697 19.1871 4.14123 18.8519 4.47799L16.3904 6.94675L13.929 4.47799C13.5933 4.14123 13.2131 3.88697 12.7865 3.71386C12.3682 3.5424 11.9203 3.45437 11.4682 3.45473C10.8336 3.45473 10.25 3.61026 9.71783 3.92227C9.18497 4.23374 8.76395 4.65665 8.45289 5.19087C8.14209 5.72535 7.98683 6.31042 7.98683 6.94675C7.98672 7.4004 8.07439 7.84978 8.24501 8.27012C8.41772 8.6975 8.67185 9.07889 9.00712 9.41551L16.3904 16.8221L23.7732 9.41551C24.1082 9.07875 24.362 8.6975 24.5342 8.27012C24.7055 7.84995 24.7934 7.40049 24.7932 6.94675C24.7932 6.31042 24.6374 5.72535 24.3269 5.19087C24.0166 4.65665 23.595 4.23374 23.0616 3.92227C22.5297 3.61012 21.9467 3.45473 21.3116 3.45473H21.3121H21.3122ZM21.3122 1.70898C22.2596 1.70898 23.1333 1.94363 23.9338 2.41172C24.7338 2.88061 25.3666 3.51545 25.8331 4.31772C26.2997 5.11986 26.533 5.99611 26.5338 6.94675C26.5338 7.62906 26.4027 8.29163 26.1429 8.93472C25.8818 9.57713 25.5025 10.1492 25.0035 10.6499L16.3905 19.2908L7.7768 10.6499C7.27855 10.1499 6.89892 9.57754 6.6379 8.93472C6.37782 8.29095 6.24704 7.62866 6.24704 6.94662C6.24704 5.99666 6.48034 5.1204 6.94774 4.31772C7.4142 3.5145 8.04756 2.8798 8.84699 2.41172C9.6475 1.94363 10.5204 1.70953 11.4683 1.70898C12.1526 1.70898 12.8129 1.83882 13.4496 2.09822C14.086 2.35708 14.6566 2.73928 15.1589 3.24415L16.3895 4.47799L17.6199 3.24415C18.1187 2.74347 18.6884 2.36303 19.33 2.1016C19.9708 1.84017 20.6313 1.70898 21.3112 1.70898H21.3122Z" fill="#333333" stroke="#333333" stroke-width="0.4"/>
</g>
<defs>
<filter id="filter0_f_0_464" x="3.67902" y="5.71436" width="30" height="30" filterUnits="userSpaceOnUse" color-interpolation-filters="sRGB">
<feFlood flood-opacity="0" result="BackgroundImageFix"/>
<feBlend mode="normal" in="SourceGraphic" in2="BackgroundImageFix" result="shape"/>
<feGaussianBlur stdDeviation="2" result="effect1_foregroundBlur_0_464"/>
</filter>
<clipPath id="clip0_0_464">
<rect width="32" height="32" fill="white" transform="translate(0.393311)"/>
</clipPath>
</defs>
</svg>
