<svg width="51" height="50" viewBox="0 0 51 50" fill="none" xmlns="http://www.w3.org/2000/svg">
<g clip-path="url(#clip0_0_471)">
<path d="M14.6516 46.4844C14.5539 46.4844 14.4598 46.4476 14.3879 46.3815C14.316 46.3154 14.2716 46.2247 14.2633 46.1274L12.7688 28.7469L7.81802 30.8688C6.83381 31.2895 5.99492 31.9902 5.40559 32.8837C4.81625 33.7772 4.50245 34.8242 4.50317 35.8946V46.0938C4.50317 46.1974 4.46202 46.2967 4.38876 46.37C4.31551 46.4432 4.21615 46.4844 4.11255 46.4844C4.00895 46.4844 3.90959 46.4432 3.83634 46.37C3.76308 46.2967 3.72192 46.1974 3.72192 46.0938V35.8946C3.72121 34.6711 4.07986 33.4744 4.75333 32.453C5.4268 31.4317 6.38543 30.6306 7.51021 30.1492L12.9579 27.8149C13.0148 27.7909 13.0765 27.7806 13.1381 27.7848C13.1997 27.789 13.2594 27.8076 13.3125 27.8391C13.3657 27.8707 13.4106 27.9145 13.4433 27.967C13.4761 28.0195 13.4958 28.079 13.5008 28.1406L15.0422 46.0602C15.0511 46.1634 15.0187 46.2658 14.952 46.3451C14.8853 46.4244 14.7899 46.4739 14.6868 46.4828L14.6516 46.4844ZM21.6977 46.4844L21.6633 46.4828C21.5602 46.4739 21.4648 46.4244 21.3981 46.3451C21.3314 46.2658 21.299 46.1634 21.3079 46.0602L22.85 28.1406C22.8555 28.0791 22.8754 28.0198 22.9082 27.9674C22.9409 27.9151 22.9856 27.8712 23.0386 27.8395C23.0915 27.8077 23.1512 27.7889 23.2128 27.7846C23.2744 27.7804 23.3362 27.7907 23.393 27.8149L28.8407 30.1492C29.9654 30.6306 30.9241 31.4317 31.5976 32.453C32.271 33.4744 32.6297 34.6711 32.629 35.8946V39.4531H40.05C40.1536 39.4531 40.253 39.4943 40.3263 39.5676C40.3995 39.6408 40.4407 39.7402 40.4407 39.8438V46.0938C40.4407 46.1974 40.3995 46.2967 40.3263 46.37C40.253 46.4432 40.1536 46.4844 40.05 46.4844H29.8938C28.7546 46.483 27.6626 46.0298 26.857 45.2243C26.0515 44.4188 25.5984 43.3267 25.5969 42.1875V39.8438C25.5969 39.7402 25.6381 39.6408 25.7113 39.5676C25.7846 39.4943 25.8839 39.4531 25.9876 39.4531C26.0912 39.4531 26.1905 39.4943 26.2638 39.5676C26.337 39.6408 26.3782 39.7402 26.3782 39.8438V42.1875C26.3782 44.1258 27.9555 45.7031 29.8938 45.7031H39.6594V40.2344H32.2375C32.1339 40.2344 32.0346 40.1932 31.9613 40.12C31.8881 40.0467 31.8469 39.9474 31.8469 39.8438V35.8946C31.8476 34.8241 31.5338 33.777 30.9445 32.8834C30.3552 31.9898 29.5163 31.289 28.5321 30.868L23.5813 28.7461L22.086 46.1266C22.0778 46.224 22.0333 46.3148 21.9615 46.381C21.8896 46.4473 21.7955 46.4842 21.6977 46.4844ZM46.643 45.7031H41.6125C41.5089 45.7031 41.4096 45.662 41.3363 45.5887C41.2631 45.5155 41.2219 45.4161 41.2219 45.3125C41.2219 45.2089 41.2631 45.1096 41.3363 45.0363C41.4096 44.9631 41.5089 44.9219 41.6125 44.9219H46.643C46.9822 44.9206 47.3118 44.8096 47.5826 44.6054C47.8535 44.4012 48.0509 44.1148 48.1454 43.7891L49.0188 40.7328C49.0356 40.6748 49.0386 40.6136 49.0275 40.5541C49.0163 40.4947 48.9914 40.4387 48.9547 40.3906C48.9186 40.3421 48.8716 40.3028 48.8174 40.2757C48.7633 40.2487 48.7035 40.2348 48.643 40.2352H41.6125C41.5089 40.2352 41.4096 40.194 41.3363 40.1208C41.2631 40.0475 41.2219 39.9482 41.2219 39.8446C41.2219 39.741 41.2631 39.6416 41.3363 39.5683C41.4096 39.4951 41.5089 39.4539 41.6125 39.4539H48.643C49.0149 39.4539 49.3555 39.6242 49.579 39.9203C49.8024 40.2164 49.8719 40.5906 49.7696 40.9485L48.8961 44.0047C48.7546 44.4933 48.4586 44.9229 48.0524 45.2291C47.6462 45.5353 47.1517 45.7016 46.643 45.7031Z" fill="#263238"/>
<path d="M47.4688 36.7188H38.0039C36.4813 36.7188 35.5438 35.0539 36.3344 33.7523L41.1743 25.7812H44.2993L49.1383 33.7523C49.9289 35.0539 48.9914 36.7188 47.4688 36.7188Z" fill="#65D78D"/>
<path d="M47.4688 37.1096H38.004C37.5877 37.1126 37.1783 37.0033 36.8189 36.7932C36.4595 36.5832 36.1634 36.28 35.9618 35.9158C35.755 35.5544 35.6495 35.144 35.6564 34.7276C35.6633 34.3113 35.7823 33.9046 36.0008 33.5502L40.8399 25.5791C40.8749 25.5218 40.924 25.4744 40.9826 25.4416C41.0411 25.4088 41.1071 25.3916 41.1743 25.3916H44.2993C44.436 25.3916 44.5626 25.4627 44.6337 25.5791L49.4727 33.5502C49.9172 34.2838 49.9329 35.1682 49.5118 35.9158C49.3099 36.28 49.0137 36.5831 48.6542 36.7931C48.2946 37.0032 47.8852 37.1125 47.4688 37.1096ZM41.3938 26.1721L36.6688 33.9557C36.5229 34.1919 36.4434 34.4631 36.4387 34.7407C36.434 35.0183 36.5043 35.292 36.6422 35.533C36.7767 35.7758 36.9742 35.9779 37.2138 36.118C37.4534 36.2581 37.7264 36.331 38.004 36.3291H47.4688C48.0407 36.3291 48.5501 36.0314 48.8305 35.533C48.9682 35.2919 49.0384 35.0183 49.0337 34.7407C49.029 34.4631 48.9497 34.192 48.804 33.9557L44.079 26.1721H41.3938Z" fill="#263238"/>
<path d="M44.2985 26.1719H41.1735C41.0699 26.1719 40.9705 26.1307 40.8972 26.0575C40.824 25.9842 40.7828 25.8849 40.7828 25.7812V24.2188C40.7828 24.1151 40.824 24.0158 40.8972 23.9425C40.9705 23.8693 41.0699 23.8281 41.1735 23.8281H44.2985C44.4021 23.8281 44.5014 23.8693 44.5747 23.9425C44.6479 24.0158 44.6891 24.1151 44.6891 24.2188V25.7812C44.6891 25.8849 44.6479 25.9842 44.5747 26.0575C44.5014 26.1307 44.4021 26.1719 44.2985 26.1719ZM41.5641 25.3906H43.9078V24.6094H41.5641V25.3906ZM43.3219 33.5938H41.5641C41.4605 33.5938 41.3611 33.5526 41.2879 33.4793C41.2146 33.4061 41.1735 33.3067 41.1735 33.2031C41.1735 33.0995 41.2146 33.0002 41.2879 32.9269C41.3611 32.8537 41.4605 32.8125 41.5641 32.8125H43.3219C43.6446 32.8125 43.9078 32.5492 43.9078 32.2266C43.9078 31.9039 43.6446 31.6406 43.3219 31.6406H42.15C41.3961 31.6406 40.7828 31.0273 40.7828 30.2734C40.7828 29.5195 41.3969 28.9062 42.15 28.9062H43.9078C44.0114 28.9062 44.1108 28.9474 44.1841 29.0207C44.2573 29.0939 44.2985 29.1933 44.2985 29.2969C44.2985 29.4005 44.2573 29.4998 44.1841 29.5731C44.1108 29.6463 44.0114 29.6875 43.9078 29.6875H42.15C41.8274 29.6875 41.5641 29.9508 41.5641 30.2734C41.5641 30.5961 41.8274 30.8594 42.15 30.8594H43.3219C44.0758 30.8594 44.6891 31.4727 44.6891 32.2266C44.6891 32.9805 44.0758 33.5938 43.3219 33.5938Z" fill="#263238"/>
<path d="M42.736 29.2969C42.6324 29.2969 42.533 29.2557 42.4597 29.1825C42.3865 29.1092 42.3453 29.0099 42.3453 28.9062V28.125C42.3453 28.0214 42.3865 27.922 42.4597 27.8488C42.533 27.7755 42.6324 27.7344 42.736 27.7344C42.8396 27.7344 42.9389 27.7755 43.0122 27.8488C43.0854 27.922 43.1266 28.0214 43.1266 28.125V28.9062C43.1266 29.0099 43.0854 29.1092 43.0122 29.1825C42.9389 29.2557 42.8396 29.2969 42.736 29.2969ZM42.736 34.7656C42.6324 34.7656 42.533 34.7245 42.4597 34.6512C42.3865 34.578 42.3453 34.4786 42.3453 34.375V33.5938C42.3453 33.4901 42.3865 33.3908 42.4597 33.3175C42.533 33.2443 42.6324 33.2031 42.736 33.2031C42.8396 33.2031 42.9389 33.2443 43.0122 33.3175C43.0854 33.3908 43.1266 33.4901 43.1266 33.5938V34.375C43.1266 34.4786 43.0854 34.578 43.0122 34.6512C42.9389 34.7245 42.8396 34.7656 42.736 34.7656Z" fill="#263238"/>
<path d="M44.2993 24.2188H41.1743L39.6118 19.5312H45.8618L44.2993 24.2188Z" fill="#65D78D"/>
<path d="M44.2985 24.6094H41.1735C41.0914 24.6092 41.0115 24.5834 40.9449 24.5355C40.8784 24.4875 40.8285 24.4199 40.8024 24.3422L39.2399 19.6547C39.2201 19.596 39.2147 19.5334 39.2239 19.4722C39.2332 19.411 39.2569 19.3528 39.2931 19.3026C39.3293 19.2524 39.3769 19.2115 39.432 19.1833C39.4872 19.1551 39.5483 19.1405 39.6102 19.1406H45.8602C45.986 19.1406 46.1039 19.2008 46.1766 19.3031C46.2508 19.4047 46.2703 19.5359 46.2305 19.6547L44.668 24.3422C44.6424 24.42 44.593 24.4878 44.5266 24.5357C44.4602 24.5837 44.3804 24.6095 44.2985 24.6094ZM41.4555 23.8281H44.0172L45.3196 19.9219H40.1531L41.4555 23.8281Z" fill="#263238"/>
<path d="M42.736 22.2656C42.6324 22.2656 42.533 22.2245 42.4598 22.1512C42.3865 22.078 42.3454 21.9786 42.3454 21.875V19.5313C42.3454 19.4277 42.3865 19.3283 42.4598 19.255C42.533 19.1818 42.6324 19.1406 42.736 19.1406C42.8396 19.1406 42.9389 19.1818 43.0122 19.255C43.0855 19.3283 43.1266 19.4277 43.1266 19.5313V21.875C43.1266 21.9786 43.0855 22.078 43.0122 22.1512C42.9389 22.2245 42.8396 22.2656 42.736 22.2656ZM18.175 26.9531C16.1991 26.9606 14.2764 26.3127 12.7079 25.1108C11.1394 23.9089 10.0138 22.2209 9.50708 20.3109C8.24927 20.2719 7.23755 19.2359 7.23755 17.9688C7.23755 16.7016 8.24927 15.6656 9.50708 15.6266C10.561 11.6992 14.0782 8.98438 18.175 8.98438C22.2719 8.98438 25.7891 11.6992 26.843 15.6266C28.1008 15.6656 29.1125 16.7016 29.1125 17.9688C29.1125 19.2359 28.1008 20.2719 26.843 20.3109C26.3363 22.2209 25.2107 23.9089 23.6422 25.1108C22.0737 26.3127 20.151 26.9606 18.175 26.9531ZM9.7563 19.5148C9.94302 19.5148 10.1469 19.632 10.1883 19.8109C11.0485 23.5563 14.3329 26.1719 18.175 26.1719C22.0172 26.1719 25.3016 23.5563 26.1625 19.8109C26.1824 19.7159 26.2377 19.632 26.3173 19.5762C26.3968 19.5205 26.4945 19.4972 26.5907 19.5109C26.6915 19.525 26.7297 19.5313 26.7688 19.5313C27.6305 19.5313 28.3313 18.8305 28.3313 17.9688C28.3313 17.107 27.6305 16.4063 26.7688 16.4063C26.7329 16.4063 26.6977 16.4125 26.6633 16.4172C26.4657 16.4438 26.2079 16.3242 26.1618 16.1266C25.3016 12.3813 22.0172 9.76563 18.175 9.76563C14.3329 9.76563 11.0485 12.3813 10.1875 16.1266C10.1653 16.2196 10.11 16.3014 10.032 16.3567C9.95397 16.4121 9.85849 16.4372 9.76333 16.4273C9.65317 16.4125 9.61802 16.4063 9.5813 16.4063C8.71958 16.4063 8.0188 17.107 8.0188 17.9688C8.0188 18.8305 8.71958 19.5313 9.5813 19.5313C9.62114 19.5313 9.66021 19.5242 9.69771 19.5188C9.71714 19.5163 9.73671 19.515 9.7563 19.5148Z" fill="#263238"/>
<path d="M10.3625 17.1875H9.97192V12.1094H12.3157V15.2344C12.3157 15.7524 12.1099 16.2492 11.7436 16.6154C11.3773 16.9817 10.8805 17.1875 10.3625 17.1875Z" fill="#F36C12"/>
<path d="M10.3625 17.5781H9.97192C9.86832 17.5781 9.76897 17.537 9.69571 17.4637C9.62245 17.3905 9.5813 17.2911 9.5813 17.1875V12.1094C9.5813 12.0058 9.62245 11.9064 9.69571 11.8332C9.76897 11.7599 9.86832 11.7188 9.97192 11.7188H12.3157C12.4193 11.7188 12.5186 11.7599 12.5919 11.8332C12.6651 11.9064 12.7063 12.0058 12.7063 12.1094V15.2344C12.7063 16.5266 11.6547 17.5781 10.3625 17.5781ZM10.3625 12.5V16.7969C11.2243 16.7969 11.925 16.0961 11.925 15.2344V12.5H10.3625Z" fill="#263238"/>
<path d="M24.0344 12.0703V15.2344C24.0344 15.7524 24.2402 16.2492 24.6065 16.6154C24.9728 16.9817 25.4695 17.1875 25.9875 17.1875H26.3782V10.9883C25.7432 11.6058 24.9162 11.9876 24.0344 12.0703Z" fill="#F36C12"/>
<path d="M26.3782 17.5783H25.9875C24.6953 17.5783 23.6438 16.5267 23.6438 15.2345V12.0705C23.6438 11.8697 23.7953 11.7017 23.9953 11.6822C24.7879 11.6062 25.5313 11.2635 26.1039 10.7103C26.1042 10.6462 26.1203 10.5832 26.1508 10.5268C26.1812 10.4705 26.2251 10.4225 26.2785 10.3871C26.3319 10.3517 26.3933 10.33 26.457 10.324C26.5208 10.318 26.5851 10.3277 26.6442 10.3525C26.7033 10.3772 26.7554 10.4161 26.7959 10.4658C26.8364 10.5154 26.864 10.5743 26.8764 10.6372C26.8887 10.7001 26.8853 10.765 26.8665 10.8263C26.8478 10.8875 26.8142 10.9432 26.7688 10.9884V17.1876C26.7688 17.2912 26.7276 17.3906 26.6544 17.4639C26.5811 17.5371 26.4818 17.5783 26.3782 17.5783ZM24.425 12.4095V15.2345C24.425 16.0962 25.1258 16.797 25.9875 16.797V11.7962C25.5114 12.1001 24.9807 12.3084 24.425 12.4095ZM18.175 22.2642C17.6108 22.2651 17.052 22.1546 16.5306 21.9391C16.0092 21.7235 15.5355 21.4071 15.1368 21.008C15.0656 20.9343 15.0262 20.8356 15.0271 20.7332C15.028 20.6308 15.0691 20.5328 15.1415 20.4604C15.2139 20.3879 15.3119 20.3469 15.4143 20.346C15.5168 20.3451 15.6154 20.3845 15.6891 20.4556C16.3489 21.1137 17.2427 21.4833 18.1746 21.4833C19.1065 21.4833 20.0004 21.1137 20.6602 20.4556C20.7339 20.3845 20.8325 20.3451 20.935 20.346C21.0374 20.3469 21.1353 20.3879 21.2078 20.4604C21.2802 20.5328 21.3213 20.6308 21.3222 20.7332C21.3231 20.8356 21.2837 20.9343 21.2125 21.008C20.8139 21.4071 20.3404 21.7236 19.8191 21.9391C19.2979 22.1547 18.7391 22.2652 18.175 22.2642Z" fill="#263238"/>
<path d="M23.6438 12.1094H9.97192C9.97192 10.5554 10.5892 9.06502 11.6881 7.96617C12.7869 6.86733 14.2773 6.25 15.8313 6.25H19.8977C21.5938 6.25 23.2688 5.88203 24.8086 5.17109L27.55 3.90625V8.20312C27.55 9.23913 27.1385 10.2327 26.4059 10.9653C25.6734 11.6978 24.6798 12.1094 23.6438 12.1094Z" fill="#F36C12"/>
<path d="M23.6438 12.5002H9.97192C9.86832 12.5002 9.76897 12.459 9.69571 12.3858C9.62245 12.3125 9.5813 12.2132 9.5813 12.1096C9.5813 8.66347 12.3852 5.85956 15.8313 5.85956H19.8977C21.5366 5.8572 23.1557 5.50146 24.6446 4.81659L27.386 3.55175C27.4455 3.5242 27.511 3.51208 27.5765 3.51652C27.6419 3.52096 27.7052 3.54181 27.7605 3.57715C27.8158 3.61249 27.8612 3.66119 27.8927 3.71873C27.9242 3.77628 27.9407 3.84083 27.9407 3.90644V8.20331C27.9407 10.5721 26.0125 12.5002 23.6438 12.5002ZM10.3766 11.7189H23.6438C25.5821 11.7189 27.1594 10.1416 27.1594 8.20331V4.51659L24.9727 5.52597C23.3809 6.25832 21.6499 6.63859 19.8977 6.64081H15.8313C12.9477 6.64081 10.5774 8.88534 10.3766 11.7189Z" fill="#263238"/>
<path d="M20.1282 43.7992L18.175 46.0938L16.2219 43.7992L17.3938 32.0312H18.9563L20.1282 43.7992Z" fill="#9ECEFD"/>
<path d="M18.175 46.4842C18.1184 46.4842 18.0625 46.4719 18.0111 46.4482C17.9597 46.4244 17.9141 46.3898 17.8774 46.3467L15.9243 44.0514C15.8902 44.0113 15.8646 43.9648 15.849 43.9146C15.8335 43.8643 15.8282 43.8115 15.8336 43.7592L17.0055 31.992C17.0149 31.8956 17.0598 31.8061 17.1316 31.7411C17.2034 31.6761 17.2969 31.6402 17.3938 31.6404H18.9563C19.1571 31.6404 19.325 31.792 19.3446 31.992L20.5165 43.7592C20.5219 43.8115 20.5167 43.8643 20.5011 43.9146C20.4856 43.9648 20.4599 44.0113 20.4258 44.0514L18.4727 46.3467C18.436 46.3898 18.3904 46.4244 18.339 46.4482C18.2876 46.4719 18.2317 46.4842 18.175 46.4842ZM16.6274 43.6717L18.175 45.4912L19.7227 43.6725L18.6016 32.4225H17.7469L16.6274 43.6717ZM10.3625 46.4842C10.2589 46.4842 10.1596 46.443 10.0863 46.3698C10.0131 46.2965 9.97192 46.1972 9.97192 46.0936V38.2811C9.97192 38.1775 10.0131 38.0781 10.0863 38.0048C10.1596 37.9316 10.2589 37.8904 10.3625 37.8904C10.4661 37.8904 10.5655 37.9316 10.6388 38.0048C10.712 38.0781 10.7532 38.1775 10.7532 38.2811V46.0936C10.7532 46.1972 10.712 46.2965 10.6388 46.3698C10.5655 46.443 10.4661 46.4842 10.3625 46.4842ZM25.9875 46.4842C25.8839 46.4842 25.7846 46.443 25.7113 46.3698C25.6381 46.2965 25.5969 46.1972 25.5969 46.0936V38.2811C25.5969 38.1775 25.6381 38.0781 25.7113 38.0048C25.7846 37.9316 25.8839 37.8904 25.9875 37.8904C26.0911 37.8904 26.1905 37.9316 26.2638 38.0048C26.337 38.0781 26.3782 38.1775 26.3782 38.2811V46.0936C26.3782 46.1972 26.337 46.2965 26.2638 46.3698C26.1905 46.443 26.0911 46.4842 25.9875 46.4842ZM13.4368 32.4217C13.3387 32.4222 13.2441 32.3856 13.172 32.3192C13.0998 32.2528 13.0554 32.1616 13.0477 32.0639L12.7227 28.2068C12.7157 28.125 12.7347 28.0431 12.7769 27.9727C12.8191 27.9023 12.8824 27.847 12.9579 27.8146L14.8961 26.9842C14.9801 26.9484 15.0739 26.9432 15.1614 26.9693C15.2488 26.9954 15.3244 27.0512 15.375 27.1271L16.9375 29.4709C16.9933 29.5544 17.0148 29.6562 16.9975 29.7551C16.9801 29.8541 16.9254 29.9425 16.8446 30.0021L13.6688 32.3459C13.6014 32.3951 13.5202 32.4216 13.4368 32.4217ZM13.5243 28.4225L13.7672 31.3021L16.0813 29.5943L14.9055 27.8303L13.5243 28.4225ZM22.9071 32.4217C22.8235 32.4218 22.7421 32.3949 22.675 32.3451L19.5055 30.0014C19.4247 29.9417 19.37 29.8533 19.3526 29.7544C19.3353 29.6554 19.3568 29.5536 19.4125 29.4701L20.975 27.1264C21.0797 26.9701 21.2797 26.9107 21.454 26.9834L23.3922 27.8139C23.4677 27.8465 23.5309 27.902 23.5731 27.9725C23.6153 28.043 23.6343 28.125 23.6274 28.2068L23.2954 32.0639C23.2872 32.1613 23.2427 32.2521 23.1708 32.3183C23.0989 32.3846 23.0048 32.4214 22.9071 32.4217ZM20.2688 29.5943L22.5774 31.3021L22.825 28.4225L21.4446 27.8303L20.2688 29.5943Z" fill="#263238"/>
<path d="M18.9563 32.4219H17.3938C16.7477 32.4219 16.2219 31.8961 16.2219 31.25V30.4688C16.2219 29.8227 16.7477 29.2969 17.3938 29.2969H18.9563C19.6024 29.2969 20.1282 29.8227 20.1282 30.4688V31.25C20.1282 31.8961 19.6024 32.4219 18.9563 32.4219ZM17.3938 30.0781C17.179 30.0781 17.0032 30.2539 17.0032 30.4688V31.25C17.0032 31.4648 17.179 31.6406 17.3938 31.6406H18.9563C19.1711 31.6406 19.3469 31.4648 19.3469 31.25V30.4688C19.3469 30.2539 19.1711 30.0781 18.9563 30.0781H17.3938Z" fill="#263238"/>
<path d="M16.8032 30.3639L16.7821 30.3631C16.7215 30.3597 16.6624 30.3423 16.6097 30.3122C16.557 30.2821 16.5119 30.2402 16.4782 30.1897L14.725 27.56C14.6821 27.496 14.6593 27.4207 14.6594 27.3436V25.9678C14.6593 25.9041 14.6748 25.8414 14.7045 25.7851C14.7342 25.7287 14.7773 25.6805 14.8299 25.6446C14.8825 25.6087 14.9431 25.5862 15.0064 25.5791C15.0697 25.572 15.1337 25.5805 15.193 25.6038C17.1098 26.3577 19.241 26.3577 21.1579 25.6038C21.2171 25.5807 21.2812 25.5723 21.3444 25.5795C21.4076 25.5867 21.4681 25.6093 21.5206 25.6451C21.5732 25.681 21.6162 25.7291 21.646 25.7853C21.6758 25.8416 21.6914 25.9042 21.6915 25.9678V27.3436C21.6916 27.4207 21.6687 27.496 21.6258 27.56L19.8727 30.1897C19.8391 30.2403 19.7941 30.2823 19.7413 30.3124C19.6885 30.3425 19.6295 30.3599 19.5688 30.3631C19.5078 30.3691 19.4463 30.3593 19.3901 30.3349C19.3339 30.3104 19.2849 30.272 19.2477 30.2233C19.2124 30.1795 19.1682 30.1439 19.1179 30.1188C19.0676 30.0937 19.0125 30.0798 18.9563 30.078H17.3938C17.3374 30.0796 17.2821 30.0936 17.2317 30.119C17.1814 30.1443 17.1372 30.1805 17.1024 30.2249C17.0657 30.2685 17.0199 30.3035 16.9682 30.3275C16.9165 30.3516 16.8602 30.364 16.8032 30.3639ZM15.4407 27.2256L16.8985 29.4124C17.0524 29.3374 17.2211 29.2967 17.3938 29.2967H18.9563C19.129 29.2967 19.2985 29.3374 19.4516 29.4116L20.9094 27.2249V26.5217C19.1314 27.0936 17.2187 27.0936 15.4407 26.5217V27.2256Z" fill="#263238"/>
<path d="M9.19067 26.5625H3.3313C3.2277 26.5625 3.12834 26.5213 3.05509 26.4481C2.98183 26.3748 2.94067 26.2755 2.94067 26.1719C2.94067 26.0683 2.98183 25.9689 3.05509 25.8957C3.12834 25.8224 3.2277 25.7812 3.3313 25.7812H9.19067C9.29427 25.7812 9.39363 25.8224 9.46689 25.8957C9.54014 25.9689 9.5813 26.0683 9.5813 26.1719C9.5813 26.2755 9.54014 26.3748 9.46689 26.4481C9.39363 26.5213 9.29427 26.5625 9.19067 26.5625Z" fill="#263238"/>
<path d="M1.7688 26.5625H0.987549C0.883949 26.5625 0.784592 26.5213 0.711335 26.4481C0.638079 26.3748 0.596924 26.2755 0.596924 26.1719C0.596924 26.0683 0.638079 25.9689 0.711335 25.8957C0.784592 25.8224 0.883949 25.7812 0.987549 25.7812H1.7688C1.8724 25.7812 1.97176 25.8224 2.04501 25.8957C2.11827 25.9689 2.15942 26.0683 2.15942 26.1719C2.15942 26.2755 2.11827 26.3748 2.04501 26.4481C1.97176 26.5213 1.8724 26.5625 1.7688 26.5625Z" fill="#263238"/>
<path d="M41.2219 14.4531H38.0969C37.9933 14.4531 37.894 14.412 37.8207 14.3387C37.7475 14.2655 37.7063 14.1661 37.7063 14.0625C37.7063 13.9589 37.7475 13.8595 37.8207 13.7863C37.894 13.713 37.9933 13.6719 38.0969 13.6719H41.2219C41.3255 13.6719 41.4249 13.713 41.4981 13.7863C41.5714 13.8595 41.6125 13.9589 41.6125 14.0625C41.6125 14.1661 41.5714 14.2655 41.4981 14.3387C41.4249 14.412 41.3255 14.4531 41.2219 14.4531Z" fill="#263238"/>
<path d="M39.6594 16.0156C39.5558 16.0156 39.4565 15.9745 39.3832 15.9012C39.31 15.828 39.2688 15.7286 39.2688 15.625V12.5C39.2688 12.3964 39.31 12.297 39.3832 12.2238C39.4565 12.1505 39.5558 12.1094 39.6594 12.1094C39.763 12.1094 39.8624 12.1505 39.9356 12.2238C40.0089 12.297 40.05 12.3964 40.05 12.5V15.625C40.05 15.7286 40.0089 15.828 39.9356 15.9012C39.8624 15.9745 39.763 16.0156 39.6594 16.0156Z" fill="#263238"/>
<path d="M36.5344 18.3594H33.4094C33.3058 18.3594 33.2065 18.3182 33.1332 18.245C33.06 18.1717 33.0188 18.0724 33.0188 17.9688C33.0188 17.8651 33.06 17.7658 33.1332 17.6925C33.2065 17.6193 33.3058 17.5781 33.4094 17.5781H36.5344C36.638 17.5781 36.7374 17.6193 36.8106 17.6925C36.8839 17.7658 36.925 17.8651 36.925 17.9688C36.925 18.0724 36.8839 18.1717 36.8106 18.245C36.7374 18.3182 36.638 18.3594 36.5344 18.3594Z" fill="#263238"/>
<path d="M34.9719 19.9219C34.8683 19.9219 34.769 19.8807 34.6957 19.8075C34.6225 19.7342 34.5813 19.6349 34.5813 19.5312V16.4062C34.5813 16.3026 34.6225 16.2033 34.6957 16.13C34.769 16.0568 34.8683 16.0156 34.9719 16.0156C35.0755 16.0156 35.1749 16.0568 35.2481 16.13C35.3214 16.2033 35.3625 16.3026 35.3625 16.4062V19.5312C35.3625 19.6349 35.3214 19.7342 35.2481 19.8075C35.1749 19.8807 35.0755 19.9219 34.9719 19.9219Z" fill="#263238"/>
</g>
<defs>
<clipPath id="clip0_0_471">
<rect width="50" height="50" fill="white" transform="translate(0.206299)"/>
</clipPath>
</defs>
</svg>
