<svg width="17" height="16" viewBox="0 0 17 16" fill="none" xmlns="http://www.w3.org/2000/svg">
<g clip-path="url(#clip0_0_391)">
<path d="M12.3931 9.50172C12.5737 10.341 12.733 11.1007 12.8711 11.7806C12.9349 12.0675 12.9933 12.3543 13.0464 12.6412C13.0996 12.928 13.15 13.1883 13.1978 13.422C13.2456 13.6558 13.2855 13.855 13.3174 14.0196C13.3492 14.1843 13.3705 14.2879 13.3811 14.3304C13.413 14.5429 13.3652 14.6837 13.2377 14.7527C13.1102 14.8218 12.9668 14.8563 12.8074 14.8563C12.7543 14.8563 12.6772 14.8377 12.5763 14.8005C12.4754 14.7633 12.3984 14.7341 12.3452 14.7129L8.18588 12.2906C7.43156 12.7368 6.74631 13.1352 6.1301 13.4858C5.8645 13.6345 5.60155 13.7833 5.34126 13.932C5.08097 14.0807 4.84458 14.2188 4.6321 14.3463C4.41961 14.4738 4.23635 14.5801 4.08229 14.6651C3.92824 14.7501 3.82466 14.8032 3.77154 14.8244C3.6653 14.8775 3.5564 14.8961 3.44484 14.8802C3.33329 14.8643 3.23236 14.8244 3.14206 14.7607C3.05175 14.6969 2.98535 14.6199 2.94285 14.5296C2.90036 14.4393 2.88973 14.3463 2.91098 14.2507C2.9216 14.2082 2.94816 14.1046 2.99066 13.94C3.03316 13.7753 3.08097 13.5787 3.13409 13.3503C3.18721 13.1219 3.2483 12.8696 3.31735 12.5934C3.38641 12.3171 3.45813 12.0356 3.53249 11.7487C3.69186 11.09 3.87247 10.3463 4.07433 9.51765C3.4475 8.97582 2.88442 8.49242 2.38508 8.06745C2.1726 7.88684 1.96277 7.70889 1.7556 7.53359C1.54843 7.35829 1.36251 7.19893 1.19783 7.0555C1.03316 6.91208 0.8977 6.79521 0.791458 6.70491C0.685216 6.6146 0.626784 6.56414 0.616159 6.55351C0.488669 6.43665 0.379772 6.3065 0.289466 6.16307C0.199161 6.01965 0.164632 5.87356 0.185881 5.72483C0.207129 5.57609 0.265562 5.45922 0.361179 5.37423C0.456797 5.28923 0.563039 5.23611 0.679904 5.21487L5.60421 4.76865L7.43688 0.497735C7.50062 0.327748 7.59093 0.181666 7.70779 0.0594876C7.82466 -0.0626903 7.98402 -0.123779 8.18588 -0.123779C8.29212 -0.123779 8.38508 -0.0998749 8.46477 -0.0520662C8.54445 -0.00425741 8.61085 0.0515195 8.66397 0.115264C8.71709 0.179009 8.76224 0.242755 8.79943 0.3065C8.83661 0.370245 8.86583 0.423365 8.88708 0.465862L10.6719 4.73678L15.5962 5.19893C15.8087 5.25205 15.9575 5.31579 16.0425 5.39016C16.1274 5.46453 16.1699 5.5814 16.1699 5.74076C16.1699 5.8895 16.1248 6.01965 16.0345 6.1312C15.9442 6.24275 15.83 6.37821 15.6919 6.53757L12.3931 9.50172Z" fill="#A797FF"/>
</g>
<defs>
<clipPath id="clip0_0_391">
<rect width="16" height="16" fill="white" transform="translate(0.187012)"/>
</clipPath>
</defs>
</svg>
