<svg width="33" height="33" viewBox="0 0 33 33" fill="none" xmlns="http://www.w3.org/2000/svg">
<g filter="url(#filter0_f_0_451)">
<circle cx="16.5183" cy="18.625" r="10" fill="#00FF69"/>
</g>
<path d="M24.7233 22.33C24.9342 22.1193 25.2202 22.001 25.5183 22.001C25.8164 22.001 26.1024 22.1193 26.3133 22.33L29.3133 25.33C29.524 25.5409 29.6423 25.8269 29.6423 26.125C29.6423 26.4231 29.524 26.709 29.3133 26.92L26.3133 29.92C26.2103 30.0305 26.0861 30.1192 25.9481 30.1807C25.8101 30.2421 25.6611 30.2752 25.5101 30.2779C25.359 30.2805 25.209 30.2528 25.0689 30.1962C24.9288 30.1396 24.8016 30.0554 24.6947 29.9485C24.5879 29.8417 24.5037 29.7145 24.4471 29.5744C24.3905 29.4343 24.3627 29.2843 24.3654 29.1332C24.3681 28.9821 24.4011 28.8332 24.4626 28.6952C24.5241 28.5572 24.6128 28.433 24.7233 28.33L26.9283 26.125L24.7233 23.92C24.5126 23.709 24.3943 23.4231 24.3943 23.125C24.3943 22.8269 24.5126 22.5409 24.7233 22.33Z" fill="#333333"/>
<path d="M19.8933 26.125C19.8933 25.8266 20.0118 25.5405 20.2228 25.3295C20.4338 25.1185 20.7199 25 21.0183 25H28.5183C28.8167 25 29.1028 25.1185 29.3138 25.3295C29.5248 25.5405 29.6433 25.8266 29.6433 26.125C29.6433 26.4234 29.5248 26.7095 29.3138 26.9205C29.1028 27.1315 28.8167 27.25 28.5183 27.25H21.0183C20.7199 27.25 20.4338 27.1315 20.2228 26.9205C20.0118 26.7095 19.8933 26.4234 19.8933 26.125Z" fill="#333333"/>
<path d="M1.89331 15.625C1.89331 7.5475 8.44081 1 16.5183 1C24.5958 1 31.1433 7.5475 31.1433 15.625V15.6265C31.1413 16.7223 31.0145 17.8144 30.7653 18.8815C30.7348 19.0285 30.6751 19.1679 30.5899 19.2915C30.5046 19.415 30.3955 19.5203 30.269 19.6011C30.1424 19.6818 30.0009 19.7364 29.853 19.7617C29.705 19.7869 29.5534 19.7823 29.4072 19.748C29.2611 19.7138 29.1232 19.6506 29.0018 19.5623C28.8805 19.4739 28.778 19.3622 28.7005 19.2336C28.6229 19.1051 28.5719 18.9623 28.5504 18.8137C28.5289 18.6651 28.5374 18.5138 28.5753 18.3685C28.7853 17.4685 28.8903 16.549 28.8933 15.6235C28.893 13.176 28.167 10.7836 26.807 8.74873C25.4471 6.71387 23.5142 5.12796 21.253 4.19156C18.9917 3.25516 16.5036 3.0103 14.1031 3.48797C11.7027 3.96563 9.49786 5.14435 7.76733 6.87508C6.03681 8.60582 4.85835 10.8108 4.38098 13.2113C3.90361 15.6118 4.14877 18.0999 5.08544 20.3611C6.02212 22.6222 7.60826 24.5548 9.64329 25.9145C11.6783 27.2743 14.0708 28 16.5183 28C16.8167 28 17.1028 28.1185 17.3138 28.3295C17.5248 28.5405 17.6433 28.8266 17.6433 29.125C17.6433 29.4234 17.5248 29.7095 17.3138 29.9205C17.1028 30.1315 16.8167 30.25 16.5183 30.25C8.44081 30.25 1.89331 23.7025 1.89331 15.625Z" fill="#333333"/>
<path d="M9.81722 20.625C9.28522 20.625 8.90722 20.5223 8.68322 20.317C8.46855 20.1023 8.36122 19.7897 8.36122 19.379C8.36122 19.267 8.36588 19.0803 8.37522 18.819C8.39388 18.5483 8.41722 18.231 8.44522 17.867C8.47322 17.503 8.50122 17.1063 8.52922 16.677C8.56655 16.2383 8.60388 15.795 8.64122 15.347C8.71588 14.4043 8.76722 13.639 8.79522 13.051C8.83255 12.463 8.86055 12.001 8.87922 11.665C8.90722 11.245 8.93522 10.979 8.96322 10.867C8.99122 10.7457 9.05188 10.685 9.14522 10.685C9.43455 10.685 9.72855 10.6803 10.0272 10.671C10.3352 10.6523 10.6292 10.6337 10.9092 10.615C11.1892 10.5963 11.4506 10.5823 11.6932 10.573C11.9452 10.5543 12.1692 10.545 12.3652 10.545C12.9626 10.545 13.4759 10.6197 13.9052 10.769C14.3346 10.9183 14.6799 11.1283 14.9412 11.399C15.2119 11.6697 15.4079 11.9963 15.5292 12.379C15.6599 12.7617 15.7252 13.191 15.7252 13.667C15.7252 14.395 15.5806 15.0437 15.2912 15.613C15.0019 16.1823 14.5399 16.6163 13.9052 16.915L15.0812 18.595C15.2959 18.9123 15.4592 19.1597 15.5712 19.337C15.6832 19.505 15.7392 19.631 15.7392 19.715C15.7392 19.7803 15.6972 19.8737 15.6132 19.995C15.5386 20.107 15.4219 20.2237 15.2632 20.345C15.1139 20.457 14.9272 20.555 14.7032 20.639C14.4886 20.723 14.2459 20.765 13.9752 20.765C13.6766 20.765 13.4152 20.667 13.1912 20.471C12.9766 20.275 12.7806 20.0183 12.6032 19.701C12.4352 19.3743 12.2859 19.001 12.1552 18.581C12.0339 18.161 11.9172 17.7223 11.8052 17.265C11.4692 17.2463 11.1939 17.2137 10.9792 17.167C10.9512 17.5777 10.9232 17.9697 10.8952 18.343C10.8672 18.7163 10.8439 19.0523 10.8252 19.351C10.8066 19.6403 10.7879 19.883 10.7692 20.079C10.7506 20.2657 10.7412 20.3777 10.7412 20.415C10.7319 20.4897 10.7132 20.5457 10.6852 20.583C10.6572 20.611 10.6012 20.625 10.5172 20.625H9.81722ZM12.0852 12.645C11.9732 12.645 11.8472 12.6543 11.7072 12.673C11.5672 12.6823 11.4179 12.6963 11.2592 12.715C11.2406 13.0417 11.2172 13.4337 11.1892 13.891C11.1706 14.339 11.1426 14.8197 11.1052 15.333C11.4319 15.4077 11.7166 15.445 11.9592 15.445C12.2486 15.445 12.4819 15.389 12.6592 15.277C12.8459 15.165 12.9906 15.0297 13.0932 14.871C13.1959 14.703 13.2612 14.5257 13.2892 14.339C13.3266 14.1523 13.3452 13.9843 13.3452 13.835C13.3452 13.4523 13.2519 13.1583 13.0652 12.953C12.8786 12.7477 12.5519 12.645 12.0852 12.645ZM18.4578 20.625C17.9258 20.625 17.5478 20.5223 17.3238 20.317C17.1092 20.1023 17.0018 19.7897 17.0018 19.379C17.0018 19.2577 17.0065 19.0663 17.0158 18.805C17.0345 18.5343 17.0578 18.217 17.0858 17.853C17.1138 17.489 17.1418 17.0923 17.1698 16.663C17.2072 16.2337 17.2445 15.795 17.2818 15.347C17.3285 14.7963 17.3658 14.325 17.3938 13.933C17.4312 13.5317 17.4592 13.191 17.4778 12.911C17.4965 12.6217 17.5105 12.3837 17.5198 12.197C17.5385 12.001 17.5478 11.833 17.5478 11.693C17.5572 11.5437 17.5618 11.4083 17.5618 11.287C17.5712 11.1657 17.5758 11.035 17.5758 10.895C17.5758 10.8203 17.5992 10.769 17.6458 10.741C17.6925 10.7037 17.7392 10.685 17.7858 10.685C18.0285 10.685 18.2945 10.6803 18.5838 10.671C18.8732 10.6523 19.1625 10.6337 19.4518 10.615C19.7412 10.5963 20.0212 10.5823 20.2918 10.573C20.5625 10.5543 20.8005 10.545 21.0058 10.545C21.6032 10.545 22.1165 10.6197 22.5458 10.769C22.9752 10.909 23.3205 11.119 23.5818 11.399C23.8525 11.6697 24.0485 12.001 24.1698 12.393C24.3005 12.785 24.3658 13.233 24.3658 13.737C24.3658 14.2877 24.2912 14.8197 24.1418 15.333C24.0018 15.837 23.7778 16.285 23.4698 16.677C23.1618 17.069 22.7652 17.3817 22.2798 17.615C21.7945 17.8483 21.2158 17.965 20.5438 17.965C20.1425 17.965 19.8018 17.923 19.5218 17.839L19.3258 20.415C19.3165 20.4897 19.2978 20.5457 19.2698 20.583C19.2418 20.611 19.1858 20.625 19.1018 20.625H18.4578ZM20.7258 12.645C20.6045 12.645 20.4692 12.6543 20.3198 12.673C20.1705 12.6823 20.0118 12.6963 19.8438 12.715C19.8252 13.107 19.8018 13.583 19.7738 14.143C19.7458 14.703 19.7085 15.291 19.6618 15.907C19.8018 15.9443 19.9372 15.9723 20.0678 15.991C20.2078 16.0003 20.3338 16.005 20.4458 16.005C20.7725 16.005 21.0338 15.9303 21.2298 15.781C21.4352 15.6223 21.5938 15.431 21.7058 15.207C21.8178 14.983 21.8925 14.7497 21.9298 14.507C21.9672 14.2643 21.9858 14.0543 21.9858 13.877C21.9858 13.4757 21.8925 13.1723 21.7058 12.967C21.5285 12.7523 21.2018 12.645 20.7258 12.645Z" fill="#333333"/>
<defs>
<filter id="filter0_f_0_451" x="2.51831" y="4.625" width="28" height="28" filterUnits="userSpaceOnUse" color-interpolation-filters="sRGB">
<feFlood flood-opacity="0" result="BackgroundImageFix"/>
<feBlend mode="normal" in="SourceGraphic" in2="BackgroundImageFix" result="shape"/>
<feGaussianBlur stdDeviation="2" result="effect1_foregroundBlur_0_451"/>
</filter>
</defs>
</svg>
