<svg width="30" height="32" viewBox="0 0 30 32" fill="none" xmlns="http://www.w3.org/2000/svg">
<g filter="url(#filter0_f_0_433)">
<ellipse cx="16.2147" cy="17.7743" rx="9.28572" ry="9.35484" fill="url(#paint0_linear_0_433)"/>
</g>
<path d="M3.20939 26.4087H8.58977C9.11765 26.4087 9.5476 25.9845 9.5476 25.4611C9.5476 24.9383 9.12064 24.5136 8.58977 24.5136H3.26732V9.59271L13.2344 2.84154L23.3288 9.95307V14.6847C23.3288 15.2081 23.7557 15.6322 24.2866 15.6322C24.8145 15.6322 25.2444 15.2081 25.2444 14.6847V9.91817C25.2444 9.325 24.953 8.76731 24.4657 8.4244L14.3105 1.27497C13.9994 1.05751 13.6306 0.939281 13.2519 0.935634C12.8732 0.931986 12.5022 1.04309 12.187 1.25452L2.16258 8.0466C1.91518 8.21287 1.71229 8.43804 1.57189 8.70216C1.43148 8.96628 1.35788 9.26121 1.35761 9.56082V24.575C1.35463 25.5863 2.18587 26.4087 3.20939 26.4087Z" fill="black" stroke="black" stroke-width="0.4"/>
<path d="M24.2627 24.0586H14.2239C13.9793 24.058 13.7448 23.9598 13.5718 23.7855C13.3988 23.6112 13.3014 23.375 13.3007 23.1286C13.3007 22.6172 13.7163 22.1985 14.2239 22.1985H24.2633C24.7709 22.1985 25.1865 22.6172 25.1865 23.1286C25.1856 23.375 25.0879 23.6112 24.9149 23.7854C24.7418 23.9596 24.5074 24.0578 24.2627 24.0586Z" fill="black" stroke="black" stroke-width="0.4"/>
<path d="M21.176 28.6359C20.9964 28.6356 20.8208 28.5825 20.6707 28.483C20.5206 28.3835 20.4027 28.2421 20.3313 28.076C20.2599 27.9099 20.2383 27.7264 20.269 27.5481C20.2997 27.3698 20.3815 27.2044 20.5042 27.0723L24.2167 23.0705L20.3137 19.2166C20.148 19.0417 20.0563 18.8086 20.0581 18.5668C20.0598 18.325 20.1549 18.0933 20.3231 17.9208C20.4914 17.7484 20.7197 17.6486 20.9596 17.6426C21.1996 17.6367 21.4325 17.725 21.609 17.8889L26.1527 22.3792C26.3244 22.5495 26.4235 22.7804 26.4288 23.0231C26.4342 23.2657 26.3454 23.5009 26.1814 23.6787L21.8544 28.3435C21.6693 28.5372 21.4215 28.6359 21.176 28.6359Z" fill="black" stroke="black" stroke-width="0.4"/>
<path d="M6.85489 21.6775C6.33222 21.6775 5.95889 21.5748 5.73489 21.3695C5.51089 21.1642 5.39889 20.8702 5.39889 20.4875C5.39889 20.3008 5.41289 19.9835 5.44089 19.5355C5.46889 19.0782 5.50622 18.5602 5.55289 17.9815C5.59955 17.4028 5.64622 16.7915 5.69289 16.1475C5.73955 15.5035 5.78622 14.8968 5.83289 14.3275C5.87955 13.7582 5.91689 13.2588 5.94489 12.8295C5.97289 12.4002 5.98689 12.1062 5.98689 11.9475C5.98689 11.8075 6.06155 11.7375 6.21089 11.7375H11.1389C11.1949 11.7375 11.2462 11.7515 11.2929 11.7795C11.3396 11.8075 11.3629 11.8588 11.3629 11.9335L11.3069 12.7595C11.2882 13.0395 11.2089 13.2682 11.0689 13.4455C10.9382 13.6135 10.6629 13.6975 10.2429 13.6975H8.31089L8.17089 15.6715H10.1589C10.2149 15.6715 10.2662 15.6855 10.3129 15.7135C10.3596 15.7415 10.3829 15.7928 10.3829 15.8675L10.3269 16.6935C10.3082 16.9735 10.2289 17.2022 10.0889 17.3795C9.95822 17.5475 9.68289 17.6315 9.26289 17.6315H8.04489L7.89089 19.7175H10.9709C11.0269 19.7175 11.0782 19.7362 11.1249 19.7735C11.1716 19.8015 11.1949 19.8482 11.1949 19.9135L11.1389 20.7395C11.1202 21.0195 11.0409 21.2482 10.9009 21.4255C10.7702 21.5935 10.4949 21.6775 10.0749 21.6775H6.85489ZM13.8686 21.6775C13.3366 21.6775 12.9586 21.5748 12.7346 21.3695C12.5199 21.1548 12.4126 20.8422 12.4126 20.4315C12.4126 20.3102 12.4172 20.1188 12.4266 19.8575C12.4452 19.5868 12.4686 19.2695 12.4966 18.9055C12.5246 18.5415 12.5526 18.1448 12.5806 17.7155C12.6179 17.2862 12.6552 16.8475 12.6926 16.3995C12.7392 15.8488 12.7766 15.3775 12.8046 14.9855C12.8419 14.5842 12.8699 14.2435 12.8886 13.9635C12.9072 13.6742 12.9212 13.4362 12.9306 13.2495C12.9492 13.0535 12.9586 12.8855 12.9586 12.7455C12.9679 12.5962 12.9726 12.4608 12.9726 12.3395C12.9819 12.2182 12.9866 12.0875 12.9866 11.9475C12.9866 11.8728 13.0099 11.8215 13.0566 11.7935C13.1032 11.7562 13.1499 11.7375 13.1966 11.7375C13.4392 11.7375 13.7052 11.7328 13.9946 11.7235C14.2839 11.7048 14.5732 11.6862 14.8626 11.6675C15.1519 11.6488 15.4319 11.6348 15.7026 11.6255C15.9732 11.6068 16.2112 11.5975 16.4166 11.5975C17.0139 11.5975 17.5272 11.6722 17.9566 11.8215C18.3859 11.9615 18.7312 12.1715 18.9926 12.4515C19.2632 12.7222 19.4592 13.0535 19.5806 13.4455C19.7112 13.8375 19.7766 14.2855 19.7766 14.7895C19.7766 15.3402 19.7019 15.8722 19.5526 16.3855C19.4126 16.8895 19.1886 17.3375 18.8806 17.7295C18.5726 18.1215 18.1759 18.4342 17.6906 18.6675C17.2052 18.9008 16.6266 19.0175 15.9546 19.0175C15.5532 19.0175 15.2126 18.9755 14.9326 18.8915L14.7366 21.4675C14.7272 21.5422 14.7086 21.5982 14.6806 21.6355C14.6526 21.6635 14.5966 21.6775 14.5126 21.6775H13.8686ZM16.1366 13.6975C16.0152 13.6975 15.8799 13.7068 15.7306 13.7255C15.5812 13.7348 15.4226 13.7488 15.2546 13.7675C15.2359 14.1595 15.2126 14.6355 15.1846 15.1955C15.1566 15.7555 15.1192 16.3435 15.0726 16.9595C15.2126 16.9968 15.3479 17.0248 15.4786 17.0435C15.6186 17.0528 15.7446 17.0575 15.8566 17.0575C16.1832 17.0575 16.4446 16.9828 16.6406 16.8335C16.8459 16.6748 17.0046 16.4835 17.1166 16.2595C17.2286 16.0355 17.3032 15.8022 17.3406 15.5595C17.3779 15.3168 17.3966 15.1068 17.3966 14.9295C17.3966 14.5282 17.3032 14.2248 17.1166 14.0195C16.9392 13.8048 16.6126 13.6975 16.1366 13.6975Z" fill="black"/>
<defs>
<filter id="filter0_f_0_433" x="2.92902" y="4.41943" width="26.5714" height="26.7097" filterUnits="userSpaceOnUse" color-interpolation-filters="sRGB">
<feFlood flood-opacity="0" result="BackgroundImageFix"/>
<feBlend mode="normal" in="SourceGraphic" in2="BackgroundImageFix" result="shape"/>
<feGaussianBlur stdDeviation="2" result="effect1_foregroundBlur_0_433"/>
</filter>
<linearGradient id="paint0_linear_0_433" x1="6.92902" y1="17.7743" x2="25.5004" y2="17.7743" gradientUnits="userSpaceOnUse">
<stop offset="1" stop-color="#00FF69"/>
</linearGradient>
</defs>
</svg>
