<svg width="33" height="33" viewBox="0 0 33 33" fill="none" xmlns="http://www.w3.org/2000/svg">
<g filter="url(#filter0_f_0_455)">
<circle cx="16.8933" cy="19" r="10" fill="#00FF69"/>
</g>
<path d="M25.0983 22.705C25.3092 22.4943 25.5952 22.376 25.8933 22.376C26.1914 22.376 26.4774 22.4943 26.6883 22.705L29.6883 25.705C29.899 25.9159 30.0173 26.2019 30.0173 26.5C30.0173 26.7981 29.899 27.084 29.6883 27.295L26.6883 30.295C26.5853 30.4055 26.4611 30.4942 26.3231 30.5557C26.1851 30.6171 26.0361 30.6502 25.8851 30.6529C25.734 30.6555 25.584 30.6278 25.4439 30.5712C25.3038 30.5146 25.1766 30.4304 25.0697 30.3235C24.9629 30.2167 24.8787 30.0895 24.8221 29.9494C24.7655 29.8093 24.7377 29.6593 24.7404 29.5082C24.7431 29.3571 24.7761 29.2082 24.8376 29.0702C24.8991 28.9322 24.9878 28.808 25.0983 28.705L27.3033 26.5L25.0983 24.295C24.8876 24.084 24.7693 23.7981 24.7693 23.5C24.7693 23.2019 24.8876 22.9159 25.0983 22.705Z" fill="#333333"/>
<path d="M20.2683 26.5C20.2683 26.2016 20.3868 25.9155 20.5978 25.7045C20.8088 25.4935 21.0949 25.375 21.3933 25.375H28.8933C29.1917 25.375 29.4778 25.4935 29.6888 25.7045C29.8998 25.9155 30.0183 26.2016 30.0183 26.5C30.0183 26.7984 29.8998 27.0845 29.6888 27.2955C29.4778 27.5065 29.1917 27.625 28.8933 27.625H21.3933C21.0949 27.625 20.8088 27.5065 20.5978 27.2955C20.3868 27.0845 20.2683 26.7984 20.2683 26.5Z" fill="#333333"/>
<path d="M2.26831 16C2.26831 7.9225 8.81581 1.375 16.8933 1.375C24.9708 1.375 31.5183 7.9225 31.5183 16V16.0015C31.5163 17.0973 31.3895 18.1894 31.1403 19.2565C31.1098 19.4035 31.0501 19.5429 30.9649 19.6665C30.8796 19.79 30.7705 19.8953 30.644 19.9761C30.5174 20.0568 30.3759 20.1114 30.228 20.1367C30.08 20.1619 29.9284 20.1573 29.7822 20.123C29.6361 20.0888 29.4982 20.0256 29.3768 19.9373C29.2555 19.8489 29.153 19.7372 29.0755 19.6086C28.9979 19.4801 28.9469 19.3373 28.9254 19.1887C28.9039 19.0401 28.9124 18.8888 28.9503 18.7435C29.1603 17.8435 29.2653 16.924 29.2683 15.9985C29.268 13.551 28.542 11.1586 27.182 9.12373C25.8221 7.08887 23.8892 5.50296 21.628 4.56656C19.3667 3.63016 16.8786 3.3853 14.4781 3.86297C12.0777 4.34063 9.87286 5.51935 8.14233 7.25008C6.41181 8.98082 5.23335 11.1858 4.75598 13.5863C4.27861 15.9868 4.52377 18.4749 5.46044 20.7361C6.39712 22.9972 7.98326 24.9298 10.0183 26.2895C12.0533 27.6493 14.4458 28.375 16.8933 28.375C17.1917 28.375 17.4778 28.4935 17.6888 28.7045C17.8998 28.9155 18.0183 29.2016 18.0183 29.5C18.0183 29.7984 17.8998 30.0845 17.6888 30.2955C17.4778 30.5065 17.1917 30.625 16.8933 30.625C8.81581 30.625 2.26831 24.0775 2.26831 16Z" fill="#333333"/>
<path d="M14.2976 13.02L13.7656 20.79C13.7563 20.93 13.7049 21 13.6116 21H12.8416C12.3189 21 11.9456 20.8973 11.7216 20.692C11.4976 20.4867 11.3856 20.1927 11.3856 19.81C11.3856 19.67 11.3903 19.46 11.3996 19.18C11.4183 18.9 11.4416 18.5733 11.4696 18.2C11.4976 17.8173 11.5256 17.4067 11.5536 16.968C11.5909 16.52 11.6283 16.072 11.6656 15.624C11.7029 15.1667 11.7356 14.714 11.7636 14.266C11.8009 13.818 11.8336 13.4027 11.8616 13.02H9.62161C9.51894 13.02 9.46761 12.9547 9.46761 12.824L9.50961 12.04C9.51894 11.9187 9.53761 11.802 9.56561 11.69C9.60294 11.5687 9.65894 11.4613 9.73361 11.368C9.80827 11.2747 9.90161 11.2 10.0136 11.144C10.1349 11.088 10.2796 11.06 10.4476 11.06H16.7056C16.7616 11.06 16.8129 11.074 16.8596 11.102C16.9063 11.13 16.9296 11.1813 16.9296 11.256L16.8736 12.082C16.8549 12.362 16.7756 12.5907 16.6356 12.768C16.5049 12.936 16.2296 13.02 15.8096 13.02H14.2976ZM18.8328 21C18.3008 21 17.9228 20.8973 17.6988 20.692C17.4842 20.4773 17.3768 20.1647 17.3768 19.754C17.3768 19.6327 17.3815 19.4413 17.3908 19.18C17.4095 18.9093 17.4328 18.592 17.4608 18.228C17.4888 17.864 17.5168 17.4673 17.5448 17.038C17.5822 16.6087 17.6195 16.17 17.6568 15.722C17.7035 15.1713 17.7408 14.7 17.7688 14.308C17.8062 13.9067 17.8342 13.566 17.8528 13.286C17.8715 12.9967 17.8855 12.7587 17.8948 12.572C17.9135 12.376 17.9228 12.208 17.9228 12.068C17.9322 11.9187 17.9368 11.7833 17.9368 11.662C17.9462 11.5407 17.9508 11.41 17.9508 11.27C17.9508 11.1953 17.9742 11.144 18.0208 11.116C18.0675 11.0787 18.1142 11.06 18.1608 11.06C18.4035 11.06 18.6695 11.0553 18.9588 11.046C19.2482 11.0273 19.5375 11.0087 19.8268 10.99C20.1162 10.9713 20.3962 10.9573 20.6668 10.948C20.9375 10.9293 21.1755 10.92 21.3808 10.92C21.9782 10.92 22.4915 10.9947 22.9208 11.144C23.3502 11.284 23.6955 11.494 23.9568 11.774C24.2275 12.0447 24.4235 12.376 24.5448 12.768C24.6755 13.16 24.7408 13.608 24.7408 14.112C24.7408 14.6627 24.6662 15.1947 24.5168 15.708C24.3768 16.212 24.1528 16.66 23.8448 17.052C23.5368 17.444 23.1402 17.7567 22.6548 17.99C22.1695 18.2233 21.5908 18.34 20.9188 18.34C20.5175 18.34 20.1768 18.298 19.8968 18.214L19.7008 20.79C19.6915 20.8647 19.6728 20.9207 19.6448 20.958C19.6168 20.986 19.5608 21 19.4768 21H18.8328ZM21.1008 13.02C20.9795 13.02 20.8442 13.0293 20.6948 13.048C20.5455 13.0573 20.3868 13.0713 20.2188 13.09C20.2002 13.482 20.1768 13.958 20.1488 14.518C20.1208 15.078 20.0835 15.666 20.0368 16.282C20.1768 16.3193 20.3122 16.3473 20.4428 16.366C20.5828 16.3753 20.7088 16.38 20.8208 16.38C21.1475 16.38 21.4088 16.3053 21.6048 16.156C21.8102 15.9973 21.9688 15.806 22.0808 15.582C22.1928 15.358 22.2675 15.1247 22.3048 14.882C22.3422 14.6393 22.3608 14.4293 22.3608 14.252C22.3608 13.8507 22.2675 13.5473 22.0808 13.342C21.9035 13.1273 21.5768 13.02 21.1008 13.02Z" fill="#333333"/>
<defs>
<filter id="filter0_f_0_455" x="2.89331" y="5" width="28" height="28" filterUnits="userSpaceOnUse" color-interpolation-filters="sRGB">
<feFlood flood-opacity="0" result="BackgroundImageFix"/>
<feBlend mode="normal" in="SourceGraphic" in2="BackgroundImageFix" result="shape"/>
<feGaussianBlur stdDeviation="2" result="effect1_foregroundBlur_0_455"/>
</filter>
</defs>
</svg>
