<svg width="17" height="16" viewBox="0 0 17 16" fill="none" xmlns="http://www.w3.org/2000/svg">
<g clip-path="url(#clip0_0_399)">
<path d="M11.9724 6.46527C11.9767 6.46714 11.9809 6.46894 11.9852 6.47066L8.21795 14.7754L8.21464 14.782C8.20652 14.7966 8.19448 14.8086 8.17989 14.8167C8.1653 14.8249 8.14872 14.8288 8.13204 14.828C8.11535 14.8273 8.0992 14.8218 8.08542 14.8124C8.07163 14.803 8.06076 14.7899 8.05401 14.7746L4.41561 6.53169C4.42561 6.52173 4.43498 6.51115 4.44367 6.50003L11.9724 6.46527ZM3.89234 6.50258L7.29675 14.2153L0.827637 6.51672L3.89234 6.50258ZM15.6089 6.44845L8.98739 14.2096L12.5015 6.46281L15.6089 6.44845ZM3.94871 1.859L3.84003 6.03587L0.860824 6.04964L3.94871 1.859ZM7.86481 1.60487C7.97446 1.45737 8.18231 1.42292 8.334 1.52889C8.36561 1.55098 8.39325 1.57827 8.41575 1.60959L11.5686 6.00019L4.77157 6.03158L7.85882 1.61319L7.86481 1.60487ZM12.5529 1.82477L15.4683 5.98219L12.5529 5.99564V1.82477ZM8.76409 1.29688L12.086 1.63839V5.92019L8.79504 1.33727L8.78345 1.32152C8.77715 1.31318 8.77071 1.30496 8.76409 1.29688ZM7.50993 1.30062C7.49812 1.31528 7.48681 1.33033 7.47603 1.34577L4.31131 5.87505L4.42154 1.63937L7.50993 1.30062Z" fill="#BBBBBB"/>
</g>
<defs>
<clipPath id="clip0_0_399">
<rect width="16" height="16" fill="white" transform="translate(0.187012)"/>
</clipPath>
</defs>
</svg>
