<svg width="36" height="34" viewBox="0 0 36 34" fill="none" xmlns="http://www.w3.org/2000/svg">
<g filter="url(#filter0_f_491_3)">
<circle cx="22.9933" cy="18.7" r="8.5" fill="url(#paint0_linear_491_3)"/>
</g>
<circle cx="10.5739" cy="10.8369" r="8.72773" transform="rotate(-89.4198 10.5739 10.8369)" fill="white" stroke="#333333" stroke-width="1.76"/>
<mask id="path-3-outside-1_491_3" maskUnits="userSpaceOnUse" x="11.2817" y="10.1266" width="20.2015" height="20.2015" fill="black">
<rect fill="white" x="11.2817" y="10.1266" width="20.2015" height="20.2015"/>
<path d="M12.3672 21.6889C12.7922 21.6192 13.2089 21.5255 13.6162 21.4085C14.2969 25.0968 17.5107 27.9083 21.4019 27.9477C25.8197 27.9922 29.4376 24.4469 29.4825 20.0291C29.5272 15.6111 25.9818 11.9934 21.5639 11.9485C21.5481 11.9483 21.5319 11.95 21.5161 11.95C21.5492 11.6202 21.5706 11.2864 21.5741 10.9485C21.575 10.8552 21.5704 10.762 21.5691 10.6692C21.5716 10.6692 21.5744 10.6683 21.5769 10.6683C26.7017 10.7203 30.8146 14.9172 30.7627 20.0421C30.7107 25.1668 26.5137 29.2796 21.3889 29.2279C16.8917 29.1823 13.1753 25.9443 12.3672 21.6889Z"/>
</mask>
<path d="M12.3672 21.6889C12.7922 21.6192 13.2089 21.5255 13.6162 21.4085C14.2969 25.0968 17.5107 27.9083 21.4019 27.9477C25.8197 27.9922 29.4376 24.4469 29.4825 20.0291C29.5272 15.6111 25.9818 11.9934 21.5639 11.9485C21.5481 11.9483 21.5319 11.95 21.5161 11.95C21.5492 11.6202 21.5706 11.2864 21.5741 10.9485C21.575 10.8552 21.5704 10.762 21.5691 10.6692C21.5716 10.6692 21.5744 10.6683 21.5769 10.6683C26.7017 10.7203 30.8146 14.9172 30.7627 20.0421C30.7107 25.1668 26.5137 29.2796 21.3889 29.2279C16.8917 29.1823 13.1753 25.9443 12.3672 21.6889Z" fill="#333333"/>
<path d="M12.3672 21.6889L12.3154 21.3731L11.9916 21.4262L12.0528 21.7486L12.3672 21.6889ZM13.6162 21.4085L13.9308 21.3504L13.8668 21.0036L13.5278 21.101L13.6162 21.4085ZM21.4019 27.9477L21.3987 28.2676L21.3987 28.2676L21.4019 27.9477ZM29.4825 20.0291L29.8025 20.0323L29.8025 20.0323L29.4825 20.0291ZM21.5639 11.9485L21.5672 11.6285L21.5672 11.6285L21.5639 11.9485ZM21.5161 11.95L21.1977 11.9179L21.1624 12.2684L21.5147 12.2699L21.5161 11.95ZM21.5741 10.9485L21.894 10.9518L21.894 10.9518L21.5741 10.9485ZM21.5691 10.6692L21.5721 10.3492L21.2443 10.3461L21.2491 10.6739L21.5691 10.6692ZM21.5769 10.6683L21.5801 10.3483L21.5801 10.3483L21.5769 10.6683ZM30.7627 20.0421L31.0827 20.0453L31.0827 20.0453L30.7627 20.0421ZM21.3889 29.2279L21.3857 29.5479L21.3857 29.5479L21.3889 29.2279ZM12.3672 21.6889L12.4189 22.0046C12.8562 21.9329 13.2851 21.8366 13.7045 21.7161L13.6162 21.4085L13.5278 21.101C13.1327 21.2145 12.7282 21.3054 12.3154 21.3731L12.3672 21.6889ZM13.6162 21.4085L13.3015 21.4666C14.0094 25.3026 17.3515 28.2267 21.3987 28.2676L21.4019 27.9477L21.4051 27.6277C17.67 27.5899 14.5843 24.8911 13.9308 21.3504L13.6162 21.4085ZM21.4019 27.9477L21.3987 28.2676C25.9932 28.314 29.7558 24.6269 29.8025 20.0323L29.4825 20.0291L29.1625 20.0258C29.1194 24.267 25.6463 27.6705 21.4051 27.6277L21.4019 27.9477ZM29.4825 20.0291L29.8025 20.0323C29.849 15.4376 26.1618 11.6752 21.5672 11.6285L21.5639 11.9485L21.5607 12.2685C25.8019 12.3116 29.2055 15.7846 29.1625 20.0258L29.4825 20.0291ZM21.5639 11.9485L21.5672 11.6285C21.5483 11.6283 21.531 11.6292 21.5242 11.6296C21.5142 11.6301 21.5152 11.6299 21.5174 11.63L21.5161 11.95L21.5147 12.2699C21.5328 12.27 21.5498 12.2691 21.5558 12.2688C21.565 12.2683 21.5637 12.2685 21.5607 12.2685L21.5639 11.9485ZM21.5161 11.95L21.8345 11.982C21.8684 11.6445 21.8905 11.3009 21.894 10.9518L21.5741 10.9485L21.2541 10.9453C21.2508 11.2718 21.2301 11.5959 21.1977 11.9179L21.5161 11.95ZM21.5741 10.9485L21.894 10.9518C21.895 10.8551 21.8902 10.7407 21.889 10.6644L21.5691 10.6692L21.2491 10.6739C21.2507 10.7833 21.255 10.8553 21.2541 10.9453L21.5741 10.9485ZM21.5691 10.6692L21.5661 10.9892C21.5866 10.9894 21.6031 10.9876 21.6122 10.9864C21.617 10.9858 21.6209 10.9851 21.6233 10.9847C21.6256 10.9844 21.6276 10.984 21.6276 10.984C21.6282 10.9839 21.6269 10.9842 21.6253 10.9844C21.6235 10.9847 21.6202 10.9852 21.616 10.9858C21.6082 10.9868 21.593 10.9885 21.5737 10.9883L21.5769 10.6683L21.5801 10.3483C21.5595 10.3481 21.543 10.3499 21.5339 10.3511C21.5291 10.3517 21.5251 10.3523 21.5227 10.3527C21.5204 10.3531 21.5184 10.3534 21.5183 10.3534C21.5177 10.3535 21.519 10.3533 21.5206 10.353C21.5224 10.3528 21.5257 10.3522 21.5298 10.3517C21.5376 10.3507 21.5527 10.349 21.5721 10.3492L21.5691 10.6692ZM21.5769 10.6683L21.5736 10.9883C26.5217 11.0385 30.4928 15.0907 30.4427 20.0388L30.7627 20.0421L31.0827 20.0453C31.1364 14.7437 26.8816 10.4022 21.5801 10.3483L21.5769 10.6683ZM30.7627 20.0421L30.4427 20.0388C30.3925 24.9868 26.3402 28.9578 21.3922 28.9079L21.3889 29.2279L21.3857 29.5479C26.6871 29.6014 31.0289 25.3467 31.0827 20.0453L30.7627 20.0421ZM21.3889 29.2279L21.3922 28.9079C17.0505 28.8639 13.4618 25.7378 12.6815 21.6292L12.3672 21.6889L12.0528 21.7486C12.8888 26.1508 16.7329 29.5007 21.3857 29.5479L21.3889 29.2279Z" fill="#333333" mask="url(#path-3-outside-1_491_3)"/>
<path d="M7.0573 14.2C6.72877 14.2 6.4941 14.1354 6.3533 14.0064C6.2125 13.8773 6.1421 13.6925 6.1421 13.452C6.1421 13.3346 6.1509 13.1352 6.1685 12.8536C6.1861 12.5661 6.20957 12.2405 6.2389 11.8768C6.26823 11.513 6.29757 11.1288 6.3269 10.724C6.35623 10.3192 6.38557 9.93782 6.4149 9.57995C6.44423 9.22208 6.4677 8.90822 6.4853 8.63835C6.5029 8.36848 6.5117 8.18368 6.5117 8.08395C6.5117 7.99595 6.55863 7.95195 6.6525 7.95195H9.7501C9.7853 7.95195 9.81757 7.96075 9.8469 7.97835C9.87623 7.99595 9.8909 8.02822 9.8909 8.07515L9.8557 8.59435C9.84397 8.77035 9.7941 8.91408 9.7061 9.02555C9.62397 9.13115 9.4509 9.18395 9.1869 9.18395H7.9725L7.8845 10.4248H9.1341C9.1693 10.4248 9.20157 10.4336 9.2309 10.4512C9.26023 10.4688 9.2749 10.501 9.2749 10.548L9.2397 11.0672C9.22797 11.2432 9.1781 11.3869 9.0901 11.4984C9.00797 11.604 8.8349 11.6568 8.5709 11.6568H7.8053L7.7085 12.968H9.6445C9.6797 12.968 9.71197 12.9797 9.7413 13.0032C9.77063 13.0208 9.7853 13.0501 9.7853 13.0912L9.7501 13.6104C9.73837 13.7864 9.6885 13.9301 9.6005 14.0416C9.51837 14.1472 9.3453 14.2 9.0813 14.2H7.0573ZM11.4659 14.2C11.1315 14.2 10.8939 14.1354 10.7531 14.0064C10.6182 13.8714 10.5507 13.6749 10.5507 13.4168C10.5507 13.3405 10.5536 13.2202 10.5595 13.056C10.5712 12.8858 10.5859 12.6864 10.6035 12.4576C10.6211 12.2288 10.6387 11.9794 10.6563 11.7096C10.6798 11.4397 10.7032 11.164 10.7267 10.8824C10.756 10.5362 10.7795 10.24 10.7971 9.99355C10.8206 9.74128 10.8382 9.52715 10.8499 9.35115C10.8616 9.16928 10.8704 9.01968 10.8763 8.90235C10.888 8.77915 10.8939 8.67355 10.8939 8.58555C10.8998 8.49168 10.9027 8.40662 10.9027 8.33035C10.9086 8.25408 10.9115 8.17195 10.9115 8.08395C10.9115 8.03702 10.9262 8.00475 10.9555 7.98715C10.9848 7.96368 11.0142 7.95195 11.0435 7.95195C11.196 7.95195 11.3632 7.94902 11.5451 7.94315C11.727 7.93142 11.9088 7.91968 12.0907 7.90795C12.2726 7.89622 12.4486 7.88742 12.6187 7.88155C12.7888 7.86982 12.9384 7.86395 13.0675 7.86395C13.443 7.86395 13.7656 7.91088 14.0355 8.00475C14.3054 8.09275 14.5224 8.22475 14.6867 8.40075C14.8568 8.57088 14.98 8.77915 15.0563 9.02555C15.1384 9.27195 15.1795 9.55355 15.1795 9.87035C15.1795 10.2165 15.1326 10.5509 15.0387 10.8736C14.9507 11.1904 14.8099 11.472 14.6163 11.7184C14.4227 11.9648 14.1734 12.1613 13.8683 12.308C13.5632 12.4546 13.1995 12.528 12.7771 12.528C12.5248 12.528 12.3107 12.5016 12.1347 12.4488L12.0115 14.068C12.0056 14.1149 11.9939 14.1501 11.9763 14.1736C11.9587 14.1912 11.9235 14.2 11.8707 14.2H11.4659ZM12.8915 9.18395C12.8152 9.18395 12.7302 9.18982 12.6363 9.20155C12.5424 9.20742 12.4427 9.21622 12.3371 9.22795C12.3254 9.47435 12.3107 9.77355 12.2931 10.1256C12.2755 10.4776 12.252 10.8472 12.2227 11.2344C12.3107 11.2578 12.3958 11.2754 12.4779 11.2872C12.5659 11.293 12.6451 11.296 12.7155 11.296C12.9208 11.296 13.0851 11.249 13.2083 11.1552C13.3374 11.0554 13.4371 10.9352 13.5075 10.7944C13.5779 10.6536 13.6248 10.5069 13.6483 10.3544C13.6718 10.2018 13.6835 10.0698 13.6835 9.95835C13.6835 9.70608 13.6248 9.51542 13.5075 9.38635C13.396 9.25142 13.1907 9.18395 12.8915 9.18395Z" fill="#333333"/>
<path d="M20.1621 16.7641C20.7136 16.7641 21.1213 16.8844 21.3853 17.1249C21.6552 17.3654 21.7901 17.6793 21.7901 18.0665C21.7901 18.395 21.6992 18.6473 21.5173 18.8233C21.3355 18.9934 21.0744 19.0785 20.7341 19.0785C20.6285 19.0785 20.5611 19.0697 20.5317 19.0521C20.5024 19.0286 20.4877 18.9846 20.4877 18.9201C20.4877 18.8614 20.4819 18.7852 20.4701 18.6913C20.4643 18.5974 20.4437 18.5065 20.4085 18.4185C20.3733 18.3305 20.3176 18.2572 20.2413 18.1985C20.1651 18.134 20.0595 18.1017 19.9245 18.1017C19.7368 18.1017 19.5696 18.1604 19.4229 18.2777C19.2763 18.3892 19.2029 18.5358 19.2029 18.7177C19.2029 18.8761 19.2616 19.0052 19.3789 19.1049C19.5021 19.2046 19.6547 19.2985 19.8365 19.3865C20.0184 19.4686 20.2149 19.5537 20.4261 19.6417C20.6432 19.7297 20.8427 19.847 21.0245 19.9937C21.2064 20.1345 21.356 20.3134 21.4733 20.5305C21.5965 20.7417 21.6581 21.0116 21.6581 21.3401C21.6581 21.5982 21.6141 21.8417 21.5261 22.0705C21.444 22.2934 21.3179 22.49 21.1477 22.6601C20.9835 22.8244 20.7723 22.9534 20.5141 23.0473C20.2619 23.1412 19.9656 23.1881 19.6253 23.1881C19.332 23.1881 19.0592 23.1558 18.8069 23.0913C18.5605 23.0268 18.3435 22.9476 18.1557 22.8537C17.9739 22.754 17.8301 22.6484 17.7245 22.5369C17.6189 22.4196 17.5661 22.314 17.5661 22.2201C17.5661 21.8329 17.5867 21.5542 17.6277 21.3841C17.6747 21.214 17.7568 21.1289 17.8741 21.1289C17.9563 21.1289 18.0413 21.1641 18.1293 21.2345C18.2232 21.3049 18.3288 21.3841 18.4461 21.4721C18.5635 21.5601 18.6984 21.6393 18.8509 21.7097C19.0093 21.7801 19.1912 21.8153 19.3965 21.8153C19.4787 21.8153 19.5579 21.8094 19.6341 21.7977C19.7163 21.7801 19.7867 21.7537 19.8453 21.7185C19.9099 21.6833 19.9597 21.6364 19.9949 21.5777C20.036 21.519 20.0565 21.4486 20.0565 21.3665C20.0565 21.2198 20.0008 21.1025 19.8893 21.0145C19.7779 20.9265 19.6371 20.8473 19.4669 20.7769C19.2968 20.7006 19.112 20.6244 18.9125 20.5481C18.7189 20.466 18.5371 20.3574 18.3669 20.2225C18.1968 20.0817 18.056 19.9028 17.9445 19.6857C17.8331 19.4686 17.7773 19.19 17.7773 18.8497C17.7773 18.4684 17.8477 18.1457 17.9885 17.8817C18.1352 17.6177 18.32 17.4036 18.5429 17.2393C18.7717 17.0692 19.0269 16.9489 19.3085 16.8785C19.596 16.8022 19.8805 16.7641 20.1621 16.7641ZM23.4183 23.1001C23.0839 23.1001 22.8463 23.0356 22.7055 22.9065C22.5705 22.7716 22.5031 22.575 22.5031 22.3169C22.5031 22.2406 22.506 22.1204 22.5119 21.9561C22.5236 21.786 22.5383 21.5865 22.5559 21.3577C22.5735 21.1289 22.5911 20.8796 22.6087 20.6097C22.6321 20.3398 22.6556 20.0641 22.6791 19.7825C22.7084 19.4364 22.7319 19.1401 22.7495 18.8937C22.7729 18.6414 22.7905 18.4273 22.8023 18.2513C22.814 18.0694 22.8228 17.9198 22.8287 17.8025C22.8404 17.6793 22.8463 17.5737 22.8463 17.4857C22.8521 17.3918 22.8551 17.3068 22.8551 17.2305C22.8609 17.1542 22.8639 17.0721 22.8639 16.9841C22.8639 16.9372 22.8785 16.9049 22.9079 16.8873C22.9372 16.8638 22.9665 16.8521 22.9959 16.8521C23.1484 16.8521 23.3156 16.8492 23.4975 16.8433C23.6793 16.8316 23.8612 16.8198 24.0431 16.8081C24.2249 16.7964 24.4009 16.7876 24.5711 16.7817C24.7412 16.77 24.8908 16.7641 25.0199 16.7641C25.3953 16.7641 25.718 16.811 25.9879 16.9049C26.2577 16.9929 26.4748 17.1249 26.6391 17.3009C26.8092 17.471 26.9324 17.6793 27.0087 17.9257C27.0908 18.1721 27.1319 18.4537 27.1319 18.7705C27.1319 19.1166 27.0849 19.451 26.9911 19.7737C26.9031 20.0905 26.7623 20.3721 26.5687 20.6185C26.3751 20.8649 26.1257 21.0614 25.8207 21.2081C25.5156 21.3548 25.1519 21.4281 24.7295 21.4281C24.4772 21.4281 24.2631 21.4017 24.0871 21.3489L23.9639 22.9681C23.958 23.015 23.9463 23.0502 23.9287 23.0737C23.9111 23.0913 23.8759 23.1001 23.8231 23.1001H23.4183ZM24.8439 18.0841C24.7676 18.0841 24.6825 18.09 24.5887 18.1017C24.4948 18.1076 24.3951 18.1164 24.2895 18.1281C24.2777 18.3745 24.2631 18.6737 24.2455 19.0257C24.2279 19.3777 24.2044 19.7473 24.1751 20.1345C24.2631 20.158 24.3481 20.1756 24.4303 20.1873C24.5183 20.1932 24.5975 20.1961 24.6679 20.1961C24.8732 20.1961 25.0375 20.1492 25.1607 20.0553C25.2897 19.9556 25.3895 19.8353 25.4599 19.6945C25.5303 19.5537 25.5772 19.407 25.6007 19.2545C25.6241 19.102 25.6359 18.97 25.6359 18.8585C25.6359 18.6062 25.5772 18.4156 25.4599 18.2865C25.3484 18.1516 25.1431 18.0841 24.8439 18.0841Z" fill="#333333"/>
<path d="M27.0206 8.8999L30.0206 10.8999L31.5206 7.8999" stroke="#333333" stroke-width="1.2"/>
<path d="M20.0206 1.3999C24.0206 2.3999 28.0854 4.13528 30.0206 10.3999" stroke="#333333" stroke-width="1.44"/>
<defs>
<filter id="filter0_f_491_3" x="10.4933" y="6.19995" width="25" height="25" filterUnits="userSpaceOnUse" color-interpolation-filters="sRGB">
<feFlood flood-opacity="0" result="BackgroundImageFix"/>
<feBlend mode="normal" in="SourceGraphic" in2="BackgroundImageFix" result="shape"/>
<feGaussianBlur stdDeviation="2" result="effect1_foregroundBlur_491_3"/>
</filter>
<linearGradient id="paint0_linear_491_3" x1="14.4933" y1="18.7" x2="31.4933" y2="18.7" gradientUnits="userSpaceOnUse">
<stop offset="1" stop-color="#00FF69"/>
</linearGradient>
</defs>
</svg>
