<svg width="34" height="32" viewBox="0 0 34 32" fill="none" xmlns="http://www.w3.org/2000/svg">
<g filter="url(#filter0_f_491_264)">
<circle cx="21.7071" cy="17.7757" r="8.10117" fill="url(#paint0_linear_491_264)"/>
</g>
<circle cx="9.87042" cy="10.2814" r="8.31822" transform="rotate(-89.4198 9.87042 10.2814)" fill="white" stroke="#333333" stroke-width="1.67742"/>
<mask id="path-3-outside-1_491_264" maskUnits="userSpaceOnUse" x="10.4976" y="9.7115" width="19.1914" height="19.1914" fill="black">
<rect fill="white" x="10.4976" y="9.7115" width="19.1914" height="19.1914"/>
<path d="M11.5796 20.6244C11.9849 20.5579 12.3824 20.4688 12.7708 20.3571C13.4199 23.8722 16.4821 26.5513 20.1905 26.5888L20.5822 26.583C24.4829 26.4251 27.6406 23.3306 27.8776 19.4339L27.8913 19.0414C27.9323 14.9625 24.7627 11.5991 20.7364 11.3543L20.3449 11.3406C20.3296 11.3405 20.3143 11.3422 20.299 11.3421C20.3306 11.0278 20.3513 10.7095 20.3546 10.3875C20.3555 10.2987 20.3517 10.2102 20.3504 10.1218C20.3527 10.1219 20.355 10.1209 20.3573 10.1209C25.2413 10.1706 29.1601 14.1698 29.111 19.0538C29.0615 23.9381 25.0624 27.8578 20.1781 27.8085C15.892 27.7651 12.3499 24.68 11.5796 20.6244Z"/>
</mask>
<path d="M11.5796 20.6244C11.9849 20.5579 12.3824 20.4688 12.7708 20.3571C13.4199 23.8722 16.4821 26.5513 20.1905 26.5888L20.5822 26.583C24.4829 26.4251 27.6406 23.3306 27.8776 19.4339L27.8913 19.0414C27.9323 14.9625 24.7627 11.5991 20.7364 11.3543L20.3449 11.3406C20.3296 11.3405 20.3143 11.3422 20.299 11.3421C20.3306 11.0278 20.3513 10.7095 20.3546 10.3875C20.3555 10.2987 20.3517 10.2102 20.3504 10.1218C20.3527 10.1219 20.355 10.1209 20.3573 10.1209C25.2413 10.1706 29.1601 14.1698 29.111 19.0538C29.0615 23.9381 25.0624 27.8578 20.1781 27.8085C15.892 27.7651 12.3499 24.68 11.5796 20.6244Z" fill="#333333"/>
<path d="M11.5796 20.6244L11.5302 20.3234L11.2216 20.374L11.2799 20.6813L11.5796 20.6244ZM12.7708 20.3571L13.0707 20.3018L13.0097 19.9712L12.6866 20.064L12.7708 20.3571ZM20.1905 26.5888L20.1874 26.8939L20.195 26.8938L20.1905 26.5888ZM20.5822 26.583L20.5867 26.8881L20.5945 26.8878L20.5822 26.583ZM27.8776 19.4339L28.1821 19.4524L28.1824 19.4446L27.8776 19.4339ZM27.8913 19.0414L28.1962 19.0521L28.1963 19.0445L27.8913 19.0414ZM20.7364 11.3543L20.7549 11.0498L20.7471 11.0495L20.7364 11.3543ZM20.3449 11.3406L20.3556 11.0357L20.348 11.0356L20.3449 11.3406ZM20.299 11.3421L19.9955 11.3116L19.962 11.6457L20.2977 11.6471L20.299 11.3421ZM20.3546 10.3875L20.6595 10.3906L20.6595 10.3906L20.3546 10.3875ZM20.3504 10.1218L20.3533 9.81688L20.0409 9.81395L20.0455 10.1264L20.3504 10.1218ZM20.3573 10.1209L20.3604 9.81597L20.3604 9.81597L20.3573 10.1209ZM29.111 19.0538L29.416 19.0569L29.416 19.0569L29.111 19.0538ZM20.1781 27.8085L20.1751 28.1135L20.1751 28.1135L20.1781 27.8085ZM11.5796 20.6244L11.6289 20.9254C12.0458 20.857 12.4549 20.7652 12.855 20.6503L12.7708 20.3571L12.6866 20.064C12.3098 20.1723 11.924 20.2588 11.5302 20.3234L11.5796 20.6244ZM12.7708 20.3571L12.4709 20.4125C13.1459 24.0683 16.3303 26.8548 20.1874 26.8938L20.1905 26.5888L20.1936 26.2839C16.6339 26.2478 13.6938 23.6761 13.0707 20.3018L12.7708 20.3571ZM20.1905 26.5888L20.195 26.8938L20.5867 26.888L20.5822 26.583L20.5777 26.2781L20.186 26.2839L20.1905 26.5888ZM20.5822 26.583L20.5945 26.8878C24.6516 26.7235 27.9355 23.5053 28.182 19.4524L27.8776 19.4339L27.5732 19.4154C27.3457 23.1558 24.3141 26.1267 20.5698 26.2783L20.5822 26.583ZM27.8776 19.4339L28.1824 19.4446L28.1961 19.0521L27.8913 19.0414L27.5865 19.0308L27.5728 19.4232L27.8776 19.4339ZM27.8913 19.0414L28.1963 19.0445C28.2389 14.8023 24.9425 11.3045 20.7549 11.0499L20.7364 11.3543L20.7179 11.6588C24.5829 11.8938 27.6257 15.1226 27.5864 19.0384L27.8913 19.0414ZM20.7364 11.3543L20.7471 11.0495L20.3556 11.0358L20.3449 11.3406L20.3342 11.6454L20.7257 11.6591L20.7364 11.3543ZM20.3449 11.3406L20.348 11.0356C20.3294 11.0354 20.3126 11.0364 20.3061 11.0367C20.2965 11.0372 20.2977 11.0371 20.3003 11.0371L20.299 11.3421L20.2977 11.6471C20.3155 11.6472 20.3321 11.6462 20.3378 11.6459C20.3467 11.6454 20.3451 11.6456 20.3418 11.6456L20.3449 11.3406ZM20.299 11.3421L20.6025 11.3726C20.6348 11.0512 20.6562 10.7235 20.6595 10.3906L20.3546 10.3875L20.0496 10.3844C20.0465 10.6954 20.0264 11.0044 19.9955 11.3116L20.299 11.3421ZM20.3546 10.3875L20.6595 10.3906C20.6605 10.2976 20.6565 10.1936 20.6554 10.1173L20.3504 10.1218L20.0455 10.1264C20.047 10.2267 20.0505 10.2998 20.0496 10.3844L20.3546 10.3875ZM20.3504 10.1218L20.3476 10.4268C20.3695 10.427 20.3871 10.4249 20.3975 10.4233C20.4028 10.4225 20.4072 10.4217 20.4099 10.4212C20.4112 10.4209 20.4124 10.4207 20.4131 10.4206C20.4138 10.4204 20.4144 10.4203 20.4145 10.4203C20.4151 10.4202 20.4135 10.4205 20.4115 10.4209C20.4094 10.4213 20.4056 10.422 20.4008 10.4227C20.3915 10.4241 20.375 10.4261 20.3542 10.4259L20.3573 10.1209L20.3604 9.81597C20.3384 9.81575 20.3207 9.8179 20.3103 9.81946C20.305 9.82027 20.3006 9.82106 20.2979 9.82158C20.2965 9.82184 20.2954 9.82207 20.2946 9.82222C20.2939 9.82236 20.2933 9.82248 20.2932 9.8225C20.2926 9.82262 20.2942 9.82229 20.2961 9.82193C20.2982 9.82153 20.302 9.82084 20.3068 9.82012C20.316 9.81873 20.3325 9.81668 20.3533 9.81688L20.3504 10.1218ZM20.3573 10.1209L20.3542 10.4259C25.0698 10.4739 28.8534 14.3351 28.806 19.0507L29.111 19.0538L29.416 19.0569C29.4668 14.0044 25.4128 9.86737 20.3604 9.81597L20.3573 10.1209ZM29.111 19.0538L28.806 19.0507C28.7583 23.7666 24.8971 27.5511 20.1812 27.5035L20.1781 27.8085L20.1751 28.1135C25.2278 28.1644 29.3648 24.1096 29.416 19.0569L29.111 19.0538ZM20.1781 27.8085L20.1812 27.5035C16.0433 27.4616 12.623 24.4831 11.8792 20.5675L11.5796 20.6244L11.2799 20.6813C12.0769 24.8768 15.7407 28.0686 20.1751 28.1135L20.1781 27.8085Z" fill="#333333" mask="url(#path-3-outside-1_491_264)"/>
<path d="M6.51881 14.0498C6.20569 14.0498 5.98204 13.9883 5.84784 13.8653C5.71365 13.7423 5.64655 13.5661 5.64655 13.3369C5.64655 13.2251 5.65494 13.035 5.67171 12.7666C5.68849 12.4926 5.71085 12.1823 5.73881 11.8356C5.76677 11.4889 5.79473 11.1227 5.82268 10.7369C5.85064 10.3511 5.8786 9.98765 5.90655 9.64658C5.93451 9.3055 5.95688 9.00636 5.97365 8.74916C5.99042 8.49196 5.99881 8.31583 5.99881 8.22077C5.99881 8.1369 6.04354 8.09497 6.133 8.09497H9.08526C9.11881 8.09497 9.14956 8.10335 9.17752 8.12013C9.20548 8.1369 9.21946 8.16765 9.21946 8.21239L9.18591 8.70722C9.17472 8.87497 9.1272 9.01196 9.04333 9.11819C8.96505 9.21884 8.8001 9.26916 8.54849 9.26916H7.39107L7.3072 10.4517H8.49817C8.53171 10.4517 8.56247 10.4601 8.59042 10.4769C8.61838 10.4937 8.63236 10.5244 8.63236 10.5692L8.59881 11.064C8.58763 11.2317 8.5401 11.3687 8.45623 11.475C8.37795 11.5756 8.213 11.6259 7.96139 11.6259H7.23171L7.13946 12.8756H8.98462C9.01817 12.8756 9.04892 12.8868 9.07688 12.9092C9.10483 12.9259 9.11881 12.9539 9.11881 12.993L9.08526 13.4879C9.07408 13.6556 9.02655 13.7926 8.94268 13.8988C8.8644 13.9995 8.69946 14.0498 8.44784 14.0498H6.51881ZM10.7205 14.0498C10.4018 14.0498 10.1754 13.9883 10.0412 13.8653C9.91259 13.7367 9.84829 13.5494 9.84829 13.3034C9.84829 13.2307 9.85109 13.116 9.85668 12.9595C9.86786 12.7973 9.88184 12.6072 9.89861 12.3892C9.91539 12.1711 9.93216 11.9335 9.94894 11.6763C9.9713 11.4191 9.99367 11.1563 10.016 10.8879C10.044 10.558 10.0664 10.2756 10.0831 10.0408C10.1055 9.80034 10.1223 9.59626 10.1335 9.42851C10.1446 9.25518 10.153 9.1126 10.1586 9.00077C10.1698 8.88335 10.1754 8.78271 10.1754 8.69884C10.181 8.60937 10.1838 8.5283 10.1838 8.45561C10.1894 8.38292 10.1922 8.30464 10.1922 8.22077C10.1922 8.17604 10.2061 8.14529 10.2341 8.12851C10.2621 8.10615 10.29 8.09497 10.318 8.09497C10.4633 8.09497 10.6227 8.09217 10.796 8.08658C10.9694 8.0754 11.1427 8.06421 11.316 8.05303C11.4894 8.04185 11.6571 8.03346 11.8193 8.02787C11.9814 8.01669 12.124 8.0111 12.247 8.0111C12.6049 8.0111 12.9124 8.05583 13.1696 8.14529C13.4268 8.22916 13.6337 8.35497 13.7902 8.52271C13.9524 8.68486 14.0698 8.88335 14.1425 9.11819C14.2208 9.35303 14.2599 9.62142 14.2599 9.92335C14.2599 10.2532 14.2152 10.572 14.1257 10.8795C14.0418 11.1814 13.9076 11.4498 13.7231 11.6846C13.5386 11.9195 13.301 12.1068 13.0102 12.2466C12.7195 12.3864 12.3728 12.4563 11.9702 12.4563C11.7298 12.4563 11.5257 12.4311 11.358 12.3808L11.2405 13.924C11.235 13.9687 11.2238 14.0023 11.207 14.0246C11.1902 14.0414 11.1567 14.0498 11.1064 14.0498H10.7205ZM12.0793 9.26916C12.0066 9.26916 11.9255 9.27475 11.836 9.28593C11.7466 9.29153 11.6515 9.29991 11.5509 9.3111C11.5397 9.54593 11.5257 9.8311 11.5089 10.1666C11.4922 10.5021 11.4698 10.8543 11.4418 11.2234C11.5257 11.2457 11.6068 11.2625 11.6851 11.2737C11.7689 11.2793 11.8444 11.2821 11.9115 11.2821C12.1072 11.2821 12.2638 11.2373 12.3812 11.1479C12.5042 11.0528 12.5993 10.9382 12.6664 10.804C12.7335 10.6698 12.7782 10.53 12.8005 10.3846C12.8229 10.2393 12.8341 10.1135 12.8341 10.0072C12.8341 9.76679 12.7782 9.58507 12.6664 9.46206C12.5601 9.33346 12.3644 9.26916 12.0793 9.26916Z" fill="#333333"/>
<path d="M17.5745 22.5322C17.2558 22.5322 17.0294 22.4707 16.8952 22.3477C16.7666 22.2191 16.7023 22.0318 16.7023 21.7858C16.7023 21.7187 16.7051 21.6069 16.7107 21.4503C16.7218 21.2881 16.7358 21.098 16.7526 20.88C16.7694 20.6619 16.7861 20.4243 16.8029 20.1671C16.8253 19.9043 16.8477 19.6387 16.87 19.3703C16.9148 18.8056 16.9455 18.3471 16.9623 17.9948C16.9846 17.6425 17.0014 17.3658 17.0126 17.1645C17.0294 16.9129 17.0461 16.7535 17.0629 16.6864C17.0797 16.6137 17.116 16.5774 17.172 16.5774C17.3453 16.5774 17.5214 16.5746 17.7003 16.569C17.8849 16.5578 18.061 16.5466 18.2287 16.5355C18.3965 16.5243 18.553 16.5159 18.6984 16.5103C18.8494 16.4991 18.9836 16.4935 19.101 16.4935C19.4588 16.4935 19.7664 16.5382 20.0236 16.6277C20.2808 16.7172 20.4877 16.843 20.6442 17.0051C20.8064 17.1673 20.9238 17.363 20.9965 17.5922C21.0748 17.8215 21.1139 18.0787 21.1139 18.3638C21.1139 18.8 21.0272 19.1886 20.8539 19.5296C20.6806 19.8707 20.4038 20.1307 20.0236 20.3096L20.7281 21.3161C20.8567 21.5062 20.9545 21.6544 21.0216 21.7606C21.0887 21.8613 21.1223 21.9367 21.1223 21.9871C21.1223 22.0262 21.0971 22.0821 21.0468 22.1548C21.0021 22.2219 20.9322 22.2918 20.8371 22.3645C20.7477 22.4316 20.6358 22.4903 20.5016 22.5406C20.373 22.5909 20.2277 22.6161 20.0655 22.6161C19.8866 22.6161 19.73 22.5574 19.5958 22.44C19.4672 22.3225 19.3498 22.1688 19.2436 21.9787C19.1429 21.783 19.0535 21.5593 18.9752 21.3077C18.9025 21.0561 18.8326 20.7933 18.7655 20.5193C18.5642 20.5081 18.3993 20.4886 18.2707 20.4606C18.2539 20.7066 18.2371 20.9415 18.2203 21.1651C18.2036 21.3888 18.1896 21.5901 18.1784 21.769C18.1672 21.9423 18.156 22.0877 18.1449 22.2051C18.1337 22.317 18.1281 22.3841 18.1281 22.4064C18.1225 22.4512 18.1113 22.4847 18.0945 22.5071C18.0778 22.5238 18.0442 22.5322 17.9939 22.5322H17.5745ZM18.9332 17.7516C18.8661 17.7516 18.7907 17.7572 18.7068 17.7684C18.6229 17.7739 18.5335 17.7823 18.4384 17.7935C18.4272 17.9892 18.4132 18.2241 18.3965 18.498C18.3853 18.7664 18.3685 19.0544 18.3461 19.3619C18.5418 19.4066 18.7124 19.429 18.8578 19.429C19.0311 19.429 19.1709 19.3955 19.2771 19.3284C19.3889 19.2613 19.4756 19.1802 19.5371 19.0851C19.5986 18.9845 19.6378 18.8782 19.6545 18.7664C19.6769 18.6546 19.6881 18.5539 19.6881 18.4645C19.6881 18.2352 19.6322 18.0591 19.5203 17.9361C19.4085 17.8131 19.2128 17.7516 18.9332 17.7516ZM22.7509 22.5322C22.4322 22.5322 22.2058 22.4707 22.0716 22.3477C21.943 22.2191 21.8787 22.0318 21.8787 21.7858C21.8787 21.7131 21.8815 21.5985 21.8871 21.4419C21.8983 21.2798 21.9122 21.0896 21.929 20.8716C21.9458 20.6535 21.9626 20.4159 21.9793 20.1587C22.0017 19.9015 22.0241 19.6387 22.0464 19.3703C22.0744 19.0404 22.0968 18.758 22.1135 18.5232C22.1359 18.2828 22.1527 18.0787 22.1639 17.9109C22.175 17.7376 22.1834 17.595 22.189 17.4832C22.2002 17.3658 22.2058 17.2651 22.2058 17.1813C22.2114 17.0918 22.2142 17.0107 22.2142 16.938C22.2198 16.8653 22.2226 16.7871 22.2226 16.7032C22.2226 16.6585 22.2365 16.6277 22.2645 16.6109C22.2925 16.5886 22.3204 16.5774 22.3484 16.5774C22.4937 16.5774 22.6531 16.5746 22.8264 16.569C22.9998 16.5578 23.1731 16.5466 23.3464 16.5355C23.5198 16.5243 23.6875 16.5159 23.8497 16.5103C24.0118 16.4991 24.1544 16.4935 24.2774 16.4935C24.6352 16.4935 24.9428 16.5382 25.2 16.6277C25.4572 16.7116 25.6641 16.8374 25.8206 17.0051C25.9828 17.1673 26.1002 17.3658 26.1729 17.6006C26.2512 17.8355 26.2903 18.1038 26.2903 18.4058C26.2903 18.7357 26.2456 19.0544 26.1561 19.3619C26.0722 19.6638 25.938 19.9322 25.7535 20.1671C25.569 20.4019 25.3314 20.5892 25.0406 20.729C24.7499 20.8688 24.4032 20.9387 24.0006 20.9387C23.7602 20.9387 23.5561 20.9135 23.3884 20.8632L23.2709 22.4064C23.2654 22.4512 23.2542 22.4847 23.2374 22.5071C23.2206 22.5238 23.1871 22.5322 23.1368 22.5322H22.7509ZM24.1097 17.7516C24.037 17.7516 23.9559 17.7572 23.8664 17.7684C23.777 17.7739 23.6819 17.7823 23.5813 17.7935C23.5701 18.0284 23.5561 18.3135 23.5393 18.649C23.5226 18.9845 23.5002 19.3367 23.4722 19.7058C23.5561 19.7281 23.6372 19.7449 23.7155 19.7561C23.7993 19.7617 23.8748 19.7645 23.9419 19.7645C24.1376 19.7645 24.2942 19.7198 24.4116 19.6303C24.5346 19.5352 24.6297 19.4206 24.6968 19.2864C24.7639 19.1522 24.8086 19.0124 24.8309 18.8671C24.8533 18.7217 24.8645 18.5959 24.8645 18.4896C24.8645 18.2492 24.8086 18.0675 24.6968 17.9445C24.5905 17.8159 24.3948 17.7516 24.1097 17.7516Z" fill="#333333"/>
<path d="M25.5455 8.4355L28.4047 10.3417L29.8343 7.48242" stroke="#333333" stroke-width="1.14369"/>
<path d="M18.8739 1.28735C22.6862 2.24043 26.5602 3.89439 28.4047 9.86507" stroke="#333333" stroke-width="1.37243"/>
<defs>
<filter id="filter0_f_491_264" x="9.60593" y="5.67456" width="24.2023" height="24.2024" filterUnits="userSpaceOnUse" color-interpolation-filters="sRGB">
<feFlood flood-opacity="0" result="BackgroundImageFix"/>
<feBlend mode="normal" in="SourceGraphic" in2="BackgroundImageFix" result="shape"/>
<feGaussianBlur stdDeviation="2" result="effect1_foregroundBlur_491_264"/>
</filter>
<linearGradient id="paint0_linear_491_264" x1="13.6059" y1="17.7757" x2="29.8083" y2="17.7757" gradientUnits="userSpaceOnUse">
<stop offset="1" stop-color="#00FF69"/>
</linearGradient>
</defs>
</svg>
