<svg width="290" height="139" viewBox="0 0 290 139" fill="none" xmlns="http://www.w3.org/2000/svg">
<rect x="113.5" y="0.5" width="63" height="31" rx="7.5" stroke="#D9D8FF" stroke-opacity="0.6"/>
<path d="M139.946 10.576H141.354V22H139.482V12.832C138.794 13.456 137.93 13.92 136.874 14.224V12.368C137.386 12.24 137.93 12.016 138.506 11.696C139.082 11.344 139.562 10.976 139.946 10.576ZM144.989 19.584C145.341 19.584 145.629 19.696 145.885 19.952C146.125 20.192 146.253 20.496 146.253 20.848C146.253 21.2 146.125 21.488 145.885 21.744C145.629 21.968 145.341 22.096 144.989 22.096C144.637 22.096 144.333 21.968 144.109 21.744C143.853 21.488 143.741 21.2 143.741 20.848C143.741 20.496 143.853 20.192 144.109 19.952C144.333 19.696 144.637 19.584 144.989 19.584ZM150.915 10.576H152.323V22H150.451V12.832C149.763 13.456 148.899 13.92 147.843 14.224V12.368C148.355 12.24 148.899 12.016 149.475 11.696C150.051 11.344 150.531 10.976 150.915 10.576Z" fill="#333333"/>
<rect x="37.5" y="54.5" width="63" height="31" rx="7.5" stroke="#D9D8FF" stroke-opacity="0.6"/>
<path d="M64.1948 64.352C65.2988 64.352 66.2108 64.672 66.9308 65.312C67.6348 65.952 67.9868 66.768 67.9868 67.792C67.9868 68.784 67.6028 69.68 66.8668 70.496C66.4188 70.976 65.6188 71.584 64.4988 72.336C63.3307 73.104 62.6268 73.776 62.3708 74.352H68.0028V76H60.0348C60.0348 74.832 60.4028 73.824 61.1708 72.96C61.5868 72.48 62.4668 71.776 63.7948 70.864C64.5308 70.352 65.0428 69.92 65.3628 69.584C65.8588 69.024 66.1148 68.416 66.1148 67.776C66.1148 67.152 65.9388 66.688 65.6188 66.384C65.2828 66.08 64.7868 65.936 64.1308 65.936C63.4268 65.936 62.8988 66.176 62.5468 66.656C62.1948 67.104 62.0028 67.792 61.9708 68.688H60.0988C60.1148 67.408 60.4828 66.384 61.2188 65.6C61.9708 64.768 62.9628 64.352 64.1948 64.352ZM71.0045 73.584C71.3565 73.584 71.6445 73.696 71.9005 73.952C72.1405 74.192 72.2685 74.496 72.2685 74.848C72.2685 75.2 72.1405 75.488 71.9005 75.744C71.6445 75.968 71.3565 76.096 71.0045 76.096C70.6525 76.096 70.3485 75.968 70.1245 75.744C69.8685 75.488 69.7565 75.2 69.7565 74.848C69.7565 74.496 69.8685 74.192 70.1245 73.952C70.3485 73.696 70.6525 73.584 71.0045 73.584ZM76.9308 64.576H78.3388V76H76.4668V66.832C75.7788 67.456 74.9148 67.92 73.8588 68.224V66.368C74.3708 66.24 74.9148 66.016 75.4908 65.696C76.0668 65.344 76.5468 64.976 76.9308 64.576Z" fill="#333333"/>
<rect x="74.5" y="107.5" width="63" height="31" rx="7.5" stroke="#D9D8FF" stroke-opacity="0.6"/>
<path d="M99.1151 117.352C100.267 117.352 101.211 117.624 101.915 118.184C102.603 118.744 102.955 119.512 102.955 120.504C102.955 121.752 102.315 122.584 101.051 123C101.723 123.208 102.251 123.512 102.603 123.928C102.987 124.36 103.179 124.92 103.179 125.592C103.179 126.648 102.811 127.512 102.075 128.184C101.307 128.872 100.299 129.224 99.0511 129.224C97.8671 129.224 96.9071 128.92 96.1871 128.312C95.3871 127.64 94.9391 126.648 94.8431 125.368H96.7471C96.7791 126.104 97.0031 126.68 97.4511 127.08C97.8511 127.448 98.3791 127.64 99.0351 127.64C99.7551 127.64 100.331 127.432 100.747 127.032C101.115 126.664 101.307 126.216 101.307 125.672C101.307 125.016 101.099 124.536 100.715 124.232C100.331 123.912 99.7711 123.768 99.0351 123.768H98.2351V122.36H99.0351C99.7071 122.36 100.219 122.216 100.571 121.928C100.907 121.64 101.083 121.208 101.083 120.648C101.083 120.088 100.923 119.672 100.619 119.384C100.283 119.096 99.7871 118.952 99.1311 118.952C98.4591 118.952 97.9471 119.112 97.5791 119.448C97.1951 119.784 96.9711 120.296 96.9071 120.984H95.0671C95.1631 119.832 95.5791 118.936 96.3471 118.296C97.0671 117.656 97.9951 117.352 99.1151 117.352ZM105.989 126.584C106.341 126.584 106.629 126.696 106.885 126.952C107.125 127.192 107.253 127.496 107.253 127.848C107.253 128.2 107.125 128.488 106.885 128.744C106.629 128.968 106.341 129.096 105.989 129.096C105.637 129.096 105.333 128.968 105.109 128.744C104.853 128.488 104.741 128.2 104.741 127.848C104.741 127.496 104.853 127.192 105.109 126.952C105.333 126.696 105.637 126.584 105.989 126.584ZM113.179 117.352C114.283 117.352 115.195 117.672 115.915 118.312C116.619 118.952 116.971 119.768 116.971 120.792C116.971 121.784 116.587 122.68 115.851 123.496C115.403 123.976 114.603 124.584 113.483 125.336C112.315 126.104 111.611 126.776 111.355 127.352H116.987V129H109.019C109.019 127.832 109.387 126.824 110.155 125.96C110.571 125.48 111.451 124.776 112.779 123.864C113.515 123.352 114.027 122.92 114.347 122.584C114.843 122.024 115.099 121.416 115.099 120.776C115.099 120.152 114.923 119.688 114.603 119.384C114.267 119.08 113.771 118.936 113.115 118.936C112.411 118.936 111.883 119.176 111.531 119.656C111.179 120.104 110.987 120.792 110.955 121.688H109.083C109.099 120.408 109.467 119.384 110.203 118.6C110.955 117.768 111.947 117.352 113.179 117.352Z" fill="#333333"/>
<rect x="226.5" y="107.5" width="63" height="31" rx="7.5" stroke="#D9D8FF" stroke-opacity="0.6"/>
<path d="M251.115 117.352C252.267 117.352 253.211 117.624 253.915 118.184C254.603 118.744 254.955 119.512 254.955 120.504C254.955 121.752 254.315 122.584 253.051 123C253.723 123.208 254.251 123.512 254.603 123.928C254.987 124.36 255.179 124.92 255.179 125.592C255.179 126.648 254.811 127.512 254.075 128.184C253.307 128.872 252.299 129.224 251.051 129.224C249.867 129.224 248.907 128.92 248.187 128.312C247.387 127.64 246.939 126.648 246.843 125.368H248.747C248.779 126.104 249.003 126.68 249.451 127.08C249.851 127.448 250.379 127.64 251.035 127.64C251.755 127.64 252.331 127.432 252.747 127.032C253.115 126.664 253.307 126.216 253.307 125.672C253.307 125.016 253.099 124.536 252.715 124.232C252.331 123.912 251.771 123.768 251.035 123.768H250.235V122.36H251.035C251.707 122.36 252.219 122.216 252.571 121.928C252.907 121.64 253.083 121.208 253.083 120.648C253.083 120.088 252.923 119.672 252.619 119.384C252.283 119.096 251.787 118.952 251.131 118.952C250.459 118.952 249.947 119.112 249.579 119.448C249.195 119.784 248.971 120.296 248.907 120.984H247.067C247.163 119.832 247.579 118.936 248.347 118.296C249.067 117.656 249.995 117.352 251.115 117.352ZM257.989 126.584C258.341 126.584 258.629 126.696 258.885 126.952C259.125 127.192 259.253 127.496 259.253 127.848C259.253 128.2 259.125 128.488 258.885 128.744C258.629 128.968 258.341 129.096 257.989 129.096C257.637 129.096 257.333 128.968 257.109 128.744C256.853 128.488 256.741 128.2 256.741 127.848C256.741 127.496 256.853 127.192 257.109 126.952C257.333 126.696 257.637 126.584 257.989 126.584ZM266.091 117.576H267.803V125.064H269.499V126.552H267.803V129H266.027V126.552H260.507V124.776L266.091 117.576ZM265.979 119.944L262.027 125.064H266.027V119.944H265.979Z" fill="#333333"/>
<rect x="0.5" y="107.5" width="63" height="31" rx="7.5" stroke="#D9D8FF" stroke-opacity="0.6"/>
<path d="M27.1308 117.352C28.2828 117.352 29.2268 117.624 29.9308 118.184C30.6188 118.744 30.9708 119.512 30.9708 120.504C30.9708 121.752 30.3308 122.584 29.0668 123C29.7388 123.208 30.2668 123.512 30.6188 123.928C31.0028 124.36 31.1948 124.92 31.1948 125.592C31.1948 126.648 30.8268 127.512 30.0908 128.184C29.3228 128.872 28.3148 129.224 27.0668 129.224C25.8828 129.224 24.9228 128.92 24.2028 128.312C23.4028 127.64 22.9548 126.648 22.8588 125.368H24.7628C24.7948 126.104 25.0188 126.68 25.4668 127.08C25.8668 127.448 26.3948 127.64 27.0508 127.64C27.7708 127.64 28.3468 127.432 28.7628 127.032C29.1308 126.664 29.3228 126.216 29.3228 125.672C29.3228 125.016 29.1148 124.536 28.7308 124.232C28.3468 123.912 27.7868 123.768 27.0508 123.768H26.2508V122.36H27.0508C27.7228 122.36 28.2348 122.216 28.5868 121.928C28.9228 121.64 29.0988 121.208 29.0988 120.648C29.0988 120.088 28.9388 119.672 28.6348 119.384C28.2988 119.096 27.8028 118.952 27.1468 118.952C26.4748 118.952 25.9628 119.112 25.5948 119.448C25.2108 119.784 24.9868 120.296 24.9228 120.984H23.0828C23.1788 119.832 23.5948 118.936 24.3628 118.296C25.0828 117.656 26.0108 117.352 27.1308 117.352ZM34.0045 126.584C34.3565 126.584 34.6445 126.696 34.9005 126.952C35.1405 127.192 35.2685 127.496 35.2685 127.848C35.2685 128.2 35.1405 128.488 34.9005 128.744C34.6445 128.968 34.3565 129.096 34.0045 129.096C33.6525 129.096 33.3485 128.968 33.1245 128.744C32.8685 128.488 32.7565 128.2 32.7565 127.848C32.7565 127.496 32.8685 127.192 33.1245 126.952C33.3485 126.696 33.6525 126.584 34.0045 126.584ZM39.9308 117.576H41.3388V129H39.4668V119.832C38.7788 120.456 37.9148 120.92 36.8588 121.224V119.368C37.3708 119.24 37.9148 119.016 38.4908 118.696C39.0668 118.344 39.5468 117.976 39.9308 117.576Z" fill="#333333"/>
<rect x="152.5" y="107.5" width="63" height="31" rx="7.5" stroke="#D9D8FF" stroke-opacity="0.6"/>
<path d="M177.115 117.352C178.267 117.352 179.211 117.624 179.915 118.184C180.603 118.744 180.955 119.512 180.955 120.504C180.955 121.752 180.315 122.584 179.051 123C179.723 123.208 180.251 123.512 180.603 123.928C180.987 124.36 181.179 124.92 181.179 125.592C181.179 126.648 180.811 127.512 180.075 128.184C179.307 128.872 178.299 129.224 177.051 129.224C175.867 129.224 174.907 128.92 174.187 128.312C173.387 127.64 172.939 126.648 172.843 125.368H174.747C174.779 126.104 175.003 126.68 175.451 127.08C175.851 127.448 176.379 127.64 177.035 127.64C177.755 127.64 178.331 127.432 178.747 127.032C179.115 126.664 179.307 126.216 179.307 125.672C179.307 125.016 179.099 124.536 178.715 124.232C178.331 123.912 177.771 123.768 177.035 123.768H176.235V122.36H177.035C177.707 122.36 178.219 122.216 178.571 121.928C178.907 121.64 179.083 121.208 179.083 120.648C179.083 120.088 178.923 119.672 178.619 119.384C178.283 119.096 177.787 118.952 177.131 118.952C176.459 118.952 175.947 119.112 175.579 119.448C175.195 119.784 174.971 120.296 174.907 120.984H173.067C173.163 119.832 173.579 118.936 174.347 118.296C175.067 117.656 175.995 117.352 177.115 117.352ZM183.989 126.584C184.341 126.584 184.629 126.696 184.885 126.952C185.125 127.192 185.253 127.496 185.253 127.848C185.253 128.2 185.125 128.488 184.885 128.744C184.629 128.968 184.341 129.096 183.989 129.096C183.637 129.096 183.333 128.968 183.109 128.744C182.853 128.488 182.741 128.2 182.741 127.848C182.741 127.496 182.853 127.192 183.109 126.952C183.333 126.696 183.637 126.584 183.989 126.584ZM191.115 117.352C192.267 117.352 193.211 117.624 193.915 118.184C194.603 118.744 194.955 119.512 194.955 120.504C194.955 121.752 194.315 122.584 193.051 123C193.723 123.208 194.251 123.512 194.603 123.928C194.987 124.36 195.179 124.92 195.179 125.592C195.179 126.648 194.811 127.512 194.075 128.184C193.307 128.872 192.299 129.224 191.051 129.224C189.867 129.224 188.907 128.92 188.187 128.312C187.387 127.64 186.939 126.648 186.843 125.368H188.747C188.779 126.104 189.003 126.68 189.451 127.08C189.851 127.448 190.379 127.64 191.035 127.64C191.755 127.64 192.331 127.432 192.747 127.032C193.115 126.664 193.307 126.216 193.307 125.672C193.307 125.016 193.099 124.536 192.715 124.232C192.331 123.912 191.771 123.768 191.035 123.768H190.235V122.36H191.035C191.707 122.36 192.219 122.216 192.571 121.928C192.907 121.64 193.083 121.208 193.083 120.648C193.083 120.088 192.923 119.672 192.619 119.384C192.283 119.096 191.787 118.952 191.131 118.952C190.459 118.952 189.947 119.112 189.579 119.448C189.195 119.784 188.971 120.296 188.907 120.984H187.067C187.163 119.832 187.579 118.936 188.347 118.296C189.067 117.656 189.995 117.352 191.115 117.352Z" fill="#333333"/>
<rect x="189.5" y="54.5" width="63" height="31" rx="7.5" stroke="#D9D8FF" stroke-opacity="0.6"/>
<path d="M214.179 64.352C215.283 64.352 216.195 64.672 216.915 65.312C217.619 65.952 217.971 66.768 217.971 67.792C217.971 68.784 217.587 69.68 216.851 70.496C216.403 70.976 215.603 71.584 214.483 72.336C213.315 73.104 212.611 73.776 212.355 74.352H217.987V76H210.019C210.019 74.832 210.387 73.824 211.155 72.96C211.571 72.48 212.451 71.776 213.779 70.864C214.515 70.352 215.027 69.92 215.347 69.584C215.843 69.024 216.099 68.416 216.099 67.776C216.099 67.152 215.923 66.688 215.603 66.384C215.267 66.08 214.771 65.936 214.115 65.936C213.411 65.936 212.883 66.176 212.531 66.656C212.179 67.104 211.987 67.792 211.955 68.688H210.083C210.099 67.408 210.467 66.384 211.203 65.6C211.955 64.768 212.947 64.352 214.179 64.352ZM220.989 73.584C221.341 73.584 221.629 73.696 221.885 73.952C222.125 74.192 222.253 74.496 222.253 74.848C222.253 75.2 222.125 75.488 221.885 75.744C221.629 75.968 221.341 76.096 220.989 76.096C220.637 76.096 220.333 75.968 220.109 75.744C219.853 75.488 219.741 75.2 219.741 74.848C219.741 74.496 219.853 74.192 220.109 73.952C220.333 73.696 220.637 73.584 220.989 73.584ZM228.179 64.352C229.283 64.352 230.195 64.672 230.915 65.312C231.619 65.952 231.971 66.768 231.971 67.792C231.971 68.784 231.587 69.68 230.851 70.496C230.403 70.976 229.603 71.584 228.483 72.336C227.315 73.104 226.611 73.776 226.355 74.352H231.987V76H224.019C224.019 74.832 224.387 73.824 225.155 72.96C225.571 72.48 226.451 71.776 227.779 70.864C228.515 70.352 229.027 69.92 229.347 69.584C229.843 69.024 230.099 68.416 230.099 67.776C230.099 67.152 229.923 66.688 229.603 66.384C229.267 66.08 228.771 65.936 228.115 65.936C227.411 65.936 226.883 66.176 226.531 66.656C226.179 67.104 225.987 67.792 225.955 68.688H224.083C224.099 67.408 224.467 66.384 225.203 65.6C225.955 64.768 226.947 64.352 228.179 64.352Z" fill="#333333"/>
<line x1="70" y1="43.5" x2="221" y2="43.5" stroke="#E8E8FF"/>
<line x1="34" y1="97.5" x2="106" y2="97.5" stroke="#E8E8FF"/>
<line x1="186" y1="97.5" x2="258" y2="97.5" stroke="#E8E8FF"/>
<line x1="221.5" y1="43" x2="221.5" y2="54" stroke="#E8E8FF"/>
<line x1="69.5" y1="43" x2="69.5" y2="54" stroke="#E8E8FF"/>
<line x1="34.5" y1="97" x2="34.5" y2="108" stroke="#E8E8FF"/>
<line x1="186.5" y1="97" x2="186.5" y2="108" stroke="#E8E8FF"/>
<line x1="106.5" y1="97" x2="106.5" y2="108" stroke="#E8E8FF"/>
<line x1="258.5" y1="97" x2="258.5" y2="108" stroke="#E8E8FF"/>
<line x1="145.5" y1="32" x2="145.5" y2="43" stroke="#E8E8FF"/>
<line x1="69.5" y1="86" x2="69.5" y2="97" stroke="#E8E8FF"/>
<line x1="221.5" y1="86" x2="221.5" y2="97" stroke="#E8E8FF"/>
</svg>
