<svg width="29" height="29" viewBox="0 0 29 29" fill="none" xmlns="http://www.w3.org/2000/svg">
<g clip-path="url(#clip0_0_11537)">
<path d="M0 14.5C0 18.3456 1.52767 22.0338 4.24695 24.753C6.96623 27.4723 10.6544 29 14.5 29C18.3456 29 22.0338 27.4723 24.753 24.753C27.4723 22.0338 29 18.3456 29 14.5C29 10.6544 27.4723 6.96623 24.753 4.24695C22.0338 1.52767 18.3456 0 14.5 0C10.6544 0 6.96623 1.52767 4.24695 4.24695C1.52767 6.96623 0 10.6544 0 14.5Z" fill="#07C160"/>
<path d="M9.18747 18.5503C14.3101 18.5503 18.4626 14.3977 18.4626 9.27516C18.4626 4.96656 15.5249 1.34413 11.5431 0.301758C5.82883 1.48577 1.34525 6.03271 0.254639 11.7807C1.34781 15.686 4.93303 18.5503 9.18747 18.5503Z" fill="white" fill-opacity="0.2"/>
<path d="M14.5 29C22.508 29 29 22.508 29 14.5C29 13.6004 28.9181 12.72 28.7611 11.8657C26.2828 9.51846 22.9359 8.07874 19.2528 8.07874C11.6145 8.07874 5.42236 14.2708 5.42236 21.9092C5.42236 23.4656 5.67963 24.9622 6.15366 26.3584C8.51379 28.0227 11.3927 29 14.5 29Z" fill="white" fill-opacity="0.15"/>
<path d="M20.7455 21.4261C21.7761 21.4261 22.6115 20.5907 22.6115 19.5601C22.6115 20.5907 23.4471 21.4261 24.4776 21.4261C23.9946 21.4261 22.6115 22.2617 22.6115 23.2922C22.6115 22.2617 21.7761 21.4261 20.7455 21.4261ZM4.52222 7.00297C5.24968 7.00297 5.8394 6.41325 5.8394 5.68579C5.8394 6.41325 6.42913 7.00297 7.15658 7.00297C6.81572 7.00297 5.8394 7.5927 5.8394 8.32016C5.8394 7.5927 5.24968 7.00297 4.52222 7.00297Z" fill="white" fill-opacity="0.5"/>
<path d="M5.8396 9.43979C6.08209 9.43979 6.27866 9.24323 6.27866 9.00073C6.27866 9.24323 6.47523 9.43979 6.71772 9.43979C6.60409 9.43979 6.27866 9.63636 6.27866 9.87886C6.27866 9.63636 6.08209 9.43979 5.8396 9.43979Z" fill="white" fill-opacity="0.3"/>
<path d="M14.4968 22.5504C15.5799 22.5504 16.5133 21.9148 16.9504 20.9971H12.0431C12.4785 21.913 13.4119 22.5504 14.4968 22.5504ZM21.0978 18.6654H21.0908C20.4239 18.4774 19.9328 17.8714 19.9328 17.1452C19.9328 17.133 19.9363 17.1226 19.9363 17.1121H19.9328V12.8405H19.9224C19.8301 10.1501 17.8554 7.94376 15.2712 7.49276V7.40394C15.2712 6.8676 14.8358 6.43225 14.2995 6.43225C13.7631 6.43225 13.3278 6.8676 13.3278 7.40394V7.49276C10.7453 7.94376 8.76884 10.1501 8.67655 12.8405H8.6661V17.1121H8.66088C8.66261 17.1417 8.6696 17.1696 8.6696 17.2009C8.6696 17.8662 8.27082 18.4373 7.69964 18.6916C7.36354 18.7769 7.11279 19.0799 7.11279 19.4421C7.11279 19.8705 7.46108 20.2188 7.88945 20.2188H21.0943C21.5227 20.2188 21.871 19.8705 21.871 19.4421C21.8745 19.0137 21.5262 18.6654 21.0978 18.6654Z" fill="white"/>
</g>
<defs>
<clipPath id="clip0_0_11537">
<rect width="29" height="29" fill="white"/>
</clipPath>
</defs>
</svg>
