<svg width="24" height="24" viewBox="0 0 24 24" fill="none" xmlns="http://www.w3.org/2000/svg">
<path d="M4.38976 3.66488C4.23827 3.52376 4.03807 3.44703 3.83127 3.4508C3.62447 3.45458 3.4272 3.53858 3.28094 3.68513C3.13469 3.83168 3.05086 4.02936 3.04708 4.23658C3.04331 4.4438 3.11989 4.64441 3.26071 4.79621L4.38974 5.92413C4.54174 6.06122 4.74043 6.13468 4.94487 6.12938C5.1493 6.12407 5.34393 6.04041 5.48865 5.89561C5.63337 5.75082 5.71716 5.55593 5.72277 5.35108C5.72838 5.14623 5.65537 4.94703 5.51879 4.7945L4.38976 3.66488ZM19.5565 3.66488L18.4275 4.79621C18.3524 4.87023 18.2926 4.95843 18.2518 5.05572C18.2109 5.15301 18.1896 5.25746 18.1893 5.36302C18.1889 5.46858 18.2094 5.57317 18.2497 5.67074C18.2899 5.7683 18.349 5.85691 18.4236 5.93145C18.4982 6.00598 18.5868 6.06495 18.6843 6.10496C18.7818 6.14497 18.8862 6.16522 18.9916 6.16454C19.0969 6.16386 19.2011 6.14226 19.2981 6.101C19.395 6.05973 19.4829 5.99962 19.5565 5.92413L20.6856 4.7945C20.7596 4.72022 20.8183 4.63205 20.8583 4.53503C20.8983 4.43801 20.9189 4.33405 20.9188 4.22907C20.9187 4.1241 20.898 4.02017 20.8578 3.92321C20.8177 3.82626 20.7588 3.73818 20.6847 3.66401C20.6106 3.58984 20.5226 3.53102 20.4258 3.49092C20.3289 3.45082 20.2252 3.43023 20.1204 3.43031C20.0157 3.43039 19.9119 3.45115 19.8152 3.49139C19.7184 3.53164 19.6305 3.59059 19.5565 3.66488ZM2.3934 9.98841H0.797314C0.692616 9.98839 0.588939 10.009 0.492206 10.0492C0.395472 10.0893 0.307575 10.1481 0.233536 10.2223C0.159497 10.2965 0.100765 10.3846 0.0606946 10.4815C0.0206241 10.5784 0 10.6823 0 10.7872C0 10.8921 0.0206241 10.996 0.0606946 11.0929C0.100765 11.1899 0.159497 11.2779 0.233536 11.3521C0.307575 11.4263 0.395472 11.4851 0.492206 11.5253C0.588939 11.5654 0.692616 11.586 0.797314 11.586H2.39338C2.49808 11.586 2.60175 11.5654 2.69849 11.5253C2.79522 11.4851 2.88312 11.4263 2.95715 11.3521C3.03119 11.2779 3.08993 11.1899 3.13 11.0929C3.17007 10.996 3.19069 10.8921 3.19069 10.7872C3.19069 10.6823 3.17007 10.5784 3.13 10.4815C3.08993 10.3846 3.03119 10.2965 2.95715 10.2223C2.88312 10.1481 2.79522 10.0893 2.69849 10.0492C2.60175 10.009 2.4981 9.98839 2.3934 9.98841ZM23.1489 9.98841H21.5529C21.4482 9.98839 21.3445 10.009 21.2478 10.0492C21.151 10.0893 21.0631 10.1481 20.9891 10.2223C20.9151 10.2965 20.8563 10.3846 20.8162 10.4815C20.7762 10.5784 20.7556 10.6823 20.7556 10.7872C20.7556 10.8921 20.7762 10.996 20.8162 11.0929C20.8563 11.1899 20.9151 11.2779 20.9891 11.3521C21.0631 11.4263 21.151 11.4851 21.2478 11.5253C21.3445 11.5654 21.4482 11.586 21.5529 11.586H23.1489C23.258 11.5932 23.3674 11.5778 23.4703 11.5409C23.5732 11.504 23.6675 11.4463 23.7472 11.3715C23.827 11.2966 23.8906 11.2061 23.9341 11.1056C23.9776 11.0051 24 10.8967 24 10.7872C24 10.6777 23.9776 10.5693 23.9341 10.4688C23.8906 10.3683 23.827 10.2778 23.7472 10.203C23.6675 10.1281 23.5732 10.0704 23.4703 10.0335C23.3674 9.9966 23.258 9.98125 23.1489 9.98841ZM11.1742 0.800517V2.39813C11.1742 2.61044 11.2584 2.81405 11.4082 2.96418C11.558 3.11431 11.7612 3.19865 11.9731 3.19865C12.185 3.19865 12.3882 3.11431 12.538 2.96418C12.6878 2.81405 12.772 2.61044 12.772 2.39813V0.800517C12.772 0.588207 12.6878 0.384592 12.538 0.234466C12.3882 0.08434 12.185 0 11.9731 0C11.7612 0 11.558 0.08434 11.4082 0.234466C11.2584 0.384592 11.1742 0.588207 11.1742 0.800517ZM6.38439 11.9854C6.38461 11.2504 6.52937 10.5226 6.8104 9.84366C7.09142 9.16471 7.5032 8.54789 8.0222 8.02846C8.54121 7.50903 9.15727 7.09716 9.83519 6.81639C10.5131 6.53563 11.2396 6.39146 11.9731 6.39214C12.7066 6.39168 13.433 6.536 14.1108 6.81684C14.7886 7.09769 15.4046 7.50956 15.9235 8.02894C16.4425 8.54833 16.8543 9.16505 17.1354 9.84391C17.4165 10.5228 17.5614 11.2504 17.5619 11.9854C17.5605 13.4695 16.971 14.8922 15.923 15.9408C14.8749 16.9894 13.4542 17.578 11.9731 17.577C10.4921 17.5779 9.07135 16.9894 8.02331 15.9408C6.97527 14.8922 6.38575 13.4695 6.38439 11.9854ZM4.78833 11.9854C4.78878 12.9304 4.97499 13.8659 5.33632 14.7387C5.69766 15.6115 6.22704 16.4044 6.89423 17.0722C7.56142 17.74 8.35336 18.2695 9.2248 18.6305C10.0962 18.9915 11.0301 19.177 11.9731 19.1763C15.9419 19.1763 19.1579 15.9571 19.1579 11.9854C19.1575 11.0405 18.9713 10.105 18.6099 9.23216C18.2486 8.35937 17.7192 7.56645 17.052 6.89869C16.3848 6.23093 15.5929 5.70141 14.7214 5.34038C13.85 4.97935 12.9161 4.79387 11.9731 4.79455C8.00438 4.79455 4.78833 8.01373 4.78833 11.9854ZM7.86754 21.5728H16.0787C16.1834 21.5728 16.2871 21.5521 16.3838 21.512C16.4806 21.4719 16.5685 21.413 16.6425 21.3388C16.7165 21.2647 16.7753 21.1766 16.8153 21.0797C16.8554 20.9827 16.876 20.8789 16.876 20.774C16.876 20.669 16.8554 20.5652 16.8153 20.4682C16.7753 20.3713 16.7165 20.2832 16.6425 20.2091C16.5685 20.1349 16.4806 20.076 16.3838 20.0359C16.2871 19.9958 16.1834 19.9751 16.0787 19.9751H7.86754C7.76284 19.9751 7.65917 19.9958 7.56243 20.0359C7.4657 20.076 7.3778 20.1349 7.30376 20.2091C7.22972 20.2832 7.17099 20.3713 7.13092 20.4682C7.09085 20.5652 7.07023 20.669 7.07023 20.774C7.07023 20.8789 7.09085 20.9827 7.13092 21.0797C7.17099 21.1766 7.22972 21.2647 7.30376 21.3388C7.3778 21.413 7.4657 21.4719 7.56243 21.512C7.65917 21.5521 7.76284 21.5728 7.86754 21.5728ZM9.5782 24H14.368C14.4727 24 14.5764 23.9794 14.6732 23.9392C14.7699 23.8991 14.8578 23.8403 14.9318 23.7661C15.0059 23.6919 15.0646 23.6038 15.1047 23.5069C15.1447 23.41 15.1654 23.3061 15.1654 23.2012C15.1654 23.0963 15.1447 22.9924 15.1047 22.8955C15.0646 22.7985 15.0059 22.7105 14.9318 22.6363C14.8578 22.5621 14.7699 22.5033 14.6732 22.4632C14.5764 22.423 14.4727 22.4024 14.368 22.4024H9.5782C9.4735 22.4024 9.36982 22.423 9.27309 22.4632C9.17636 22.5033 9.08846 22.5621 9.01442 22.6363C8.94038 22.7105 8.88165 22.7985 8.84158 22.8955C8.80151 22.9924 8.78088 23.0963 8.78088 23.2012C8.78088 23.3061 8.80151 23.41 8.84158 23.5069C8.88165 23.6038 8.94038 23.6919 9.01442 23.7661C9.08846 23.8403 9.17636 23.8991 9.27309 23.9392C9.36982 23.9794 9.4735 24 9.5782 24Z" fill="white"/>
</svg>
