<svg width="24" height="24" viewBox="0 0 24 24" fill="none" xmlns="http://www.w3.org/2000/svg">
<circle cx="12" cy="12" r="11.5" fill="white" stroke="#70C160"/>
<path d="M6.95533 6.46465C6.85454 6.37095 6.72134 6.32 6.58375 6.32251C6.44616 6.32502 6.3149 6.38079 6.2176 6.4781C6.12029 6.5754 6.06451 6.70666 6.062 6.84425C6.05949 6.98184 6.11044 7.11504 6.20413 7.21583L6.95531 7.96474C7.05645 8.05577 7.18864 8.10455 7.32466 8.10103C7.46068 8.0975 7.59017 8.04195 7.68646 7.94581C7.78275 7.84967 7.8385 7.72027 7.84223 7.58425C7.84596 7.44824 7.79738 7.31597 7.70651 7.2147L6.95531 6.46465H6.95533ZM17.0463 6.46465L16.2951 7.21583C16.2451 7.26498 16.2054 7.32354 16.1782 7.38814C16.151 7.45274 16.1369 7.52209 16.1366 7.59218C16.1364 7.66227 16.15 7.73172 16.1768 7.7965C16.2036 7.86128 16.2429 7.92012 16.2925 7.9696C16.3422 8.01909 16.4011 8.05825 16.466 8.08481C16.5309 8.11138 16.6003 8.12482 16.6704 8.12437C16.7405 8.12392 16.8098 8.10958 16.8743 8.08218C16.9389 8.05478 16.9973 8.01487 17.0463 7.96474L17.7975 7.2147C17.8467 7.16537 17.8858 7.10683 17.9124 7.04241C17.939 6.978 17.9527 6.90897 17.9527 6.83927C17.9526 6.76956 17.9388 6.70055 17.9121 6.63618C17.8854 6.5718 17.8462 6.51332 17.7969 6.46407C17.7476 6.41482 17.6891 6.37577 17.6246 6.34915C17.5602 6.32252 17.4912 6.30885 17.4215 6.3089C17.3518 6.30895 17.2828 6.32274 17.2184 6.34946C17.154 6.37618 17.0955 6.41532 17.0463 6.46465ZM5.62708 10.6633H4.56515C4.49549 10.6633 4.42651 10.677 4.36215 10.7037C4.29779 10.7303 4.23931 10.7694 4.19005 10.8187C4.14079 10.8679 4.10171 10.9264 4.07505 10.9907C4.04839 11.0551 4.03467 11.1241 4.03467 11.1937C4.03467 11.2634 4.04839 11.3324 4.07505 11.3967C4.10171 11.4611 4.14079 11.5195 4.19005 11.5688C4.23931 11.6181 4.29779 11.6571 4.36215 11.6838C4.42651 11.7104 4.49549 11.7241 4.56515 11.7241H5.62707C5.69672 11.7241 5.7657 11.7104 5.83006 11.6838C5.89443 11.6571 5.95291 11.6181 6.00217 11.5688C6.05143 11.5195 6.0905 11.4611 6.11716 11.3967C6.14382 11.3324 6.15755 11.2634 6.15755 11.1937C6.15755 11.1241 6.14382 11.0551 6.11716 10.9907C6.0905 10.9264 6.05143 10.8679 6.00217 10.8187C5.95291 10.7694 5.89443 10.7303 5.83006 10.7037C5.7657 10.677 5.69674 10.6633 5.62708 10.6633ZM19.4364 10.6633H18.3745C18.3049 10.6633 18.2359 10.677 18.1715 10.7037C18.1072 10.7303 18.0487 10.7694 17.9994 10.8187C17.9502 10.8679 17.9111 10.9264 17.8844 10.9907C17.8578 11.0551 17.8441 11.1241 17.8441 11.1937C17.8441 11.2634 17.8578 11.3324 17.8844 11.3967C17.9111 11.4611 17.9502 11.5195 17.9994 11.5688C18.0487 11.6181 18.1072 11.6571 18.1715 11.6838C18.2359 11.7104 18.3049 11.7241 18.3745 11.7241H19.4364C19.509 11.7289 19.5818 11.7187 19.6503 11.6942C19.7187 11.6697 19.7815 11.6314 19.8345 11.5817C19.8876 11.5319 19.9299 11.4719 19.9589 11.4051C19.9878 11.3384 20.0027 11.2665 20.0027 11.1937C20.0027 11.121 19.9878 11.049 19.9589 10.9823C19.9299 10.9156 19.8876 10.8555 19.8345 10.8058C19.7815 10.7561 19.7187 10.7178 19.6503 10.6933C19.5818 10.6688 19.509 10.6586 19.4364 10.6633ZM11.4693 4.56278V5.62356C11.4693 5.76453 11.5253 5.89972 11.625 5.9994C11.7246 6.09908 11.8598 6.15508 12.0008 6.15508C12.1418 6.15508 12.277 6.09908 12.3767 5.9994C12.4763 5.89972 12.5323 5.76453 12.5323 5.62356V4.56278C12.5323 4.42181 12.4763 4.28661 12.3767 4.18693C12.277 4.08725 12.1418 4.03125 12.0008 4.03125C11.8598 4.03125 11.7246 4.08725 11.625 4.18693C11.5253 4.28661 11.4693 4.42181 11.4693 4.56278ZM8.28242 11.9893C8.28257 11.5013 8.37889 11.018 8.56586 10.5672C8.75284 10.1164 9.02681 9.70687 9.37212 9.36198C9.71743 9.01708 10.1273 8.74361 10.5784 8.55719C11.0294 8.37077 11.5128 8.27504 12.0008 8.27549C12.4888 8.27519 12.9721 8.37101 13.4231 8.55749C13.874 8.74396 14.2839 9.01744 14.6292 9.3623C14.9744 9.70716 15.2484 10.1166 15.4355 10.5674C15.6225 11.0181 15.7189 11.5013 15.7192 11.9893C15.7183 12.9747 15.3261 13.9194 14.6288 14.6156C13.9315 15.3119 12.9862 15.7026 12.0008 15.702C11.0154 15.7026 10.0702 15.3118 9.37286 14.6156C8.67556 13.9194 8.28333 12.9747 8.28242 11.9893ZM7.22051 11.9893C7.22081 12.6167 7.3447 13.2379 7.58511 13.8174C7.82552 14.397 8.17773 14.9234 8.62164 15.3668C9.06555 15.8102 9.59245 16.1618 10.1723 16.4015C10.7521 16.6412 11.3734 16.7644 12.0008 16.7639C14.6414 16.7639 16.7811 14.6264 16.7811 11.9893C16.7808 11.3619 16.6569 10.7407 16.4165 10.1612C16.1761 9.58169 15.8239 9.05521 15.38 8.61183C14.9361 8.16845 14.4092 7.81687 13.8294 7.57715C13.2496 7.33743 12.6282 7.21428 12.0008 7.21473C9.36026 7.21473 7.22051 9.35219 7.22051 11.9893ZM9.26922 18.3551H14.7324C14.8021 18.3551 14.871 18.3414 14.9354 18.3148C14.9998 18.2881 15.0582 18.249 15.1075 18.1998C15.1568 18.1505 15.1958 18.0921 15.2225 18.0277C15.2492 17.9633 15.2629 17.8944 15.2629 17.8247C15.2629 17.7551 15.2492 17.6861 15.2225 17.6217C15.1958 17.5574 15.1568 17.4989 15.1075 17.4496C15.0582 17.4004 14.9998 17.3613 14.9354 17.3347C14.871 17.308 14.8021 17.2943 14.7324 17.2943H9.26922C9.19956 17.2943 9.13058 17.308 9.06622 17.3347C9.00186 17.3613 8.94338 17.4004 8.89412 17.4496C8.84486 17.4989 8.80578 17.5574 8.77912 17.6217C8.75246 17.6861 8.73874 17.7551 8.73874 17.8247C8.73874 17.8944 8.75246 17.9633 8.77912 18.0277C8.80578 18.0921 8.84486 18.1505 8.89412 18.1998C8.94338 18.249 9.00186 18.2881 9.06622 18.3148C9.13058 18.3414 9.19956 18.3551 9.26922 18.3551ZM10.4074 19.9667H13.5942C13.6639 19.9667 13.7329 19.953 13.7972 19.9264C13.8616 19.8997 13.9201 19.8607 13.9693 19.8114C14.0186 19.7622 14.0577 19.7037 14.0843 19.6393C14.111 19.575 14.1247 19.506 14.1247 19.4363C14.1247 19.3667 14.111 19.2977 14.0843 19.2334C14.0577 19.169 14.0186 19.1105 13.9693 19.0613C13.9201 19.012 13.8616 18.973 13.7972 18.9463C13.7329 18.9197 13.6639 18.9059 13.5942 18.906H10.4074C10.3377 18.9059 10.2687 18.9197 10.2044 18.9463C10.14 18.973 10.0815 19.012 10.0323 19.0613C9.98302 19.1105 9.94394 19.169 9.91728 19.2334C9.89062 19.2977 9.8769 19.3667 9.8769 19.4363C9.8769 19.506 9.89062 19.575 9.91728 19.6393C9.94394 19.7037 9.98302 19.7622 10.0323 19.8114C10.0815 19.8607 10.14 19.8997 10.2044 19.9264C10.2687 19.953 10.3377 19.9667 10.4074 19.9667Z" fill="#70C160"/>
</svg>
