<svg width="108" height="108" viewBox="0 0 108 108" fill="none" xmlns="http://www.w3.org/2000/svg">
<g clip-path="url(#clip0_0_9992)">
<path d="M85.6593 58.2396C88.0389 58.2396 89.9643 56.31 89.9643 53.9349C89.9643 52.564 89.3245 51.3448 88.3276 50.5567L88.3498 50.5296C85.0372 47.9651 81.3545 45.8632 77.3777 44.3413C82.4392 39.9987 85.6593 33.5667 85.6593 26.3737C85.6593 13.2995 75.0572 2.69727 61.9829 2.69727C48.9085 2.69727 38.3063 13.2995 38.3063 26.3737C38.3063 33.5667 41.5265 39.9987 46.588 44.3413C30.4366 50.5379 18.943 66.1555 18.9346 84.4975V84.5058C18.943 86.8767 20.8684 88.8023 23.2395 88.8023C25.6189 88.8023 27.5359 86.8767 27.5443 84.5058C27.5443 65.5167 42.9981 50.0671 61.983 50.0671C69.7674 50.0671 76.9338 52.6928 82.7032 57.0623C83.4743 57.7913 84.5139 58.2396 85.6593 58.2396ZM61.9829 41.4407C53.6759 41.4407 46.9161 34.6808 46.9161 26.3737C46.9161 18.0668 53.6761 11.3069 61.9829 11.3069C70.2898 11.3069 77.0497 18.0668 77.0497 26.3737C77.0497 34.6807 70.2898 41.4407 61.9829 41.4407ZM102.08 72.6675H95.6227V66.21C95.6228 64.4277 94.1765 62.9814 92.3941 62.9814C90.6074 62.9814 89.1655 64.4277 89.1655 66.21V72.6675H82.7082C80.9217 72.6675 79.4797 74.1135 79.4797 75.8961C79.4797 77.6784 80.9217 79.1247 82.7082 79.1247H89.1655V85.5819C89.1655 87.3645 90.6074 88.8103 92.3941 88.8103C94.1765 88.8103 95.6227 87.3645 95.6227 85.5819V79.1247H102.08C103.862 79.1247 105.309 77.6784 105.309 75.8961C105.309 74.1136 103.862 72.6675 102.08 72.6675Z" fill="#5C6273" fill-opacity="0.07"/>
</g>
<defs>
<clipPath id="clip0_0_9992">
<rect width="108" height="108" fill="white"/>
</clipPath>
</defs>
</svg>
