<svg width="102" height="102" viewBox="0 0 102 102" fill="none" xmlns="http://www.w3.org/2000/svg">
<path d="M19.735 67.8518C19.735 68.9605 18.848 69.8474 17.7393 69.8474C16.6306 69.8474 15.7437 68.9605 15.7437 67.8518V65.6344C15.7437 64.5257 16.6306 63.6387 17.7393 63.6387C18.848 63.6387 19.735 64.5257 19.735 65.6344V67.8518ZM19.735 61.1996C19.735 62.3083 18.848 63.1953 17.7393 63.1953C16.6306 63.1953 15.7437 62.3083 15.7437 61.1996V58.9822C15.7437 57.8735 16.6306 56.9866 17.7393 56.9866C18.848 56.9866 19.735 57.8735 19.735 58.9822V61.1996ZM19.735 54.5474C19.735 55.6561 18.848 56.5431 17.7393 56.5431C16.6306 56.5431 15.7437 55.6561 15.7437 54.5474V52.33C15.7437 51.2213 16.6306 50.3344 17.7393 50.3344C18.848 50.3344 19.735 51.2213 19.735 52.33V54.5474ZM19.735 47.8953C19.735 49.0039 18.848 49.8909 17.7393 49.8909C16.6306 49.8909 15.7437 49.0039 15.7437 47.8953V45.6779C15.7437 44.5692 16.6306 43.6822 17.7393 43.6822C18.848 43.6822 19.735 44.5692 19.735 45.6779V47.8953ZM20.4002 42.7953C19.735 43.6822 18.4045 43.6822 17.5176 43.017C16.6306 42.3518 16.6306 41.0213 17.2958 40.1344C17.961 39.2474 18.848 38.5822 19.9567 38.3605C21.0654 37.917 22.1741 38.5822 22.6176 39.4692C23.061 40.5779 22.3958 41.6866 21.5089 42.13C20.8437 42.13 20.6219 42.3518 20.4002 42.7953ZM25.0567 41.9083C23.948 41.9083 23.061 41.0213 23.061 39.9126C23.061 38.8039 23.948 37.917 25.0567 37.917H27.2741C28.3828 37.917 29.2697 38.8039 29.2697 39.9126C29.2697 41.0213 28.3828 41.9083 27.2741 41.9083H25.0567ZM78.2741 41.9083C77.1654 41.9083 76.2784 41.0213 76.2784 39.9126C76.2784 38.8039 77.1654 37.917 78.2741 37.917H80.935C82.0436 38.1387 82.7089 39.0257 82.4871 40.1344C82.2654 41.2431 81.3784 41.9083 80.2697 41.6866H78.2741V41.9083ZM82.0436 43.4605C81.6002 42.3518 82.2654 41.2431 83.3741 41.0213C84.4828 40.7996 85.5915 41.2431 85.8132 42.3518C86.035 43.017 86.2567 43.6822 86.2567 44.3474V45.0126C86.2567 46.1213 85.3697 47.0083 84.261 47.0083C83.1523 47.0083 82.2654 46.1213 82.2654 45.0126V44.3474C82.2654 44.1257 82.2654 43.904 82.0436 43.4605ZM82.2654 49.4474C82.2654 48.3387 83.1523 47.4518 84.261 47.4518C85.3697 47.4518 86.2567 48.3387 86.2567 49.4474V51.6648C86.2567 52.7735 85.3697 53.6605 84.261 53.6605C83.1523 53.6605 82.2654 52.7735 82.2654 51.6648V49.4474ZM82.2654 56.0996C82.2654 54.9909 83.1523 54.104 84.261 54.104C85.3697 54.104 86.2567 54.9909 86.2567 56.0996V58.317C86.2567 59.4257 85.3697 60.3126 84.261 60.3126C83.1523 60.3126 82.2654 59.4257 82.2654 58.317V56.0996ZM82.2654 62.7518C82.2654 61.6431 83.1523 60.7561 84.261 60.7561C85.3697 60.7561 86.2567 61.6431 86.2567 62.7518V64.9692C86.2567 66.0779 85.3697 66.9648 84.261 66.9648C83.1523 66.9648 82.2654 66.0779 82.2654 64.9692V62.7518Z" fill="#5C6273" fill-opacity="0.07"/>
<path d="M17.7389 97.1221C9.53456 97.1221 2.66064 90.4699 2.66064 82.0438C2.66064 73.6177 9.31282 66.9655 17.7389 66.9655C26.165 66.9655 32.8172 73.6177 32.8172 82.0438C32.8172 90.4699 25.9433 97.1221 17.7389 97.1221ZM17.7389 93.796C24.1693 93.796 29.2693 88.4742 29.2693 82.2655C29.2693 76.0568 23.9476 70.7351 17.7389 70.7351C11.5302 70.7351 6.20847 75.6134 6.20847 82.0438C6.20847 88.4742 11.3085 93.796 17.7389 93.796ZM84.2606 97.1221C76.0563 97.1221 69.1824 90.4699 69.1824 82.0438C69.1824 73.6177 75.8346 66.9655 84.2606 66.9655C92.6867 66.9655 99.3389 73.6177 99.3389 82.0438C99.3389 90.4699 92.465 97.1221 84.2606 97.1221ZM84.2606 93.796C90.6911 93.796 95.7911 88.4742 95.7911 82.2655C95.7911 76.0568 90.4693 70.7351 84.2606 70.7351C78.0519 70.7351 72.7302 76.0568 72.7302 82.2655C72.7302 88.4742 77.8302 93.796 84.2606 93.796ZM50.9998 95.3481C47.0085 95.3481 43.9041 92.0221 43.9041 88.2525C43.9041 84.4829 47.2302 81.1568 50.9998 81.1568C54.7693 81.1568 58.0954 84.4829 58.0954 88.2525C58.0954 92.0221 54.9911 95.3481 50.9998 95.3481ZM50.9998 92.0221C53.2172 92.0221 54.9911 90.2481 54.9911 88.0308C54.9911 85.8134 52.9954 84.2612 50.9998 84.2612C48.7824 84.2612 47.0085 86.0351 47.0085 88.2525C47.0085 90.4699 48.7824 92.0221 50.9998 92.0221ZM49.0041 55.4351C49.0041 54.3264 49.8911 53.4395 50.9998 53.4395C52.1085 53.4395 52.9954 54.3264 52.9954 55.4351V57.6525C52.9954 58.7612 52.1085 59.6481 50.9998 59.6481C49.8911 59.6481 49.0041 58.7612 49.0041 57.6525V55.4351ZM49.0041 62.0873C49.0041 60.9786 49.8911 60.0916 50.9998 60.0916C52.1085 60.0916 52.9954 60.9786 52.9954 62.0873V64.3047C52.9954 65.4134 52.1085 66.3003 50.9998 66.3003C49.8911 66.3003 49.0041 65.4134 49.0041 64.3047V62.0873ZM49.0041 68.7395C49.0041 67.6308 49.8911 66.7438 50.9998 66.7438C52.1085 66.7438 52.9954 67.6308 52.9954 68.7395V70.9568C52.9954 72.0655 52.1085 72.9525 50.9998 72.9525C49.8911 72.9525 49.0041 72.0655 49.0041 70.9568V68.7395ZM49.0041 75.3916C49.0041 74.2829 49.8911 73.396 50.9998 73.396C52.1085 73.396 52.9954 74.2829 52.9954 75.3916V77.609C52.9954 78.7177 52.1085 79.6047 50.9998 79.6047C49.8911 79.6047 49.0041 78.7177 49.0041 77.609V75.3916Z" fill="#5C6273" fill-opacity="0.07"/>
<path d="M52.7739 54.1045C38.5826 54.1045 27.2739 42.7958 27.2739 28.6045C27.2739 14.4132 38.8044 3.10449 52.7739 3.10449C66.7435 3.10449 78.2739 14.4132 78.2739 28.6045C78.2739 42.7958 66.9652 54.1045 52.7739 54.1045ZM52.7739 49.6697C64.3044 49.6697 73.8391 40.1349 73.8391 28.6045C73.8391 17.0741 64.3044 7.53928 52.7739 7.53928C41.2435 7.53928 31.7087 17.0741 31.7087 28.6045C31.7087 40.1349 41.2435 49.6697 52.7739 49.6697Z" fill="#5C6273" fill-opacity="0.07"/>
<path d="M88.0305 81.8215C89.1392 80.9346 89.8044 79.3824 89.8044 77.8302C89.8044 74.9476 87.3652 72.5085 84.4826 72.5085C81.6 72.5085 79.1609 74.9476 79.1609 77.8302C79.1609 79.3824 79.8261 80.7128 80.9348 81.8215C78.9391 83.152 77.387 85.3693 77.387 87.8085V88.0302C77.387 88.6954 78.0522 89.3606 78.7174 89.3606C79.3826 89.3606 80.0478 88.9172 80.0478 88.0302C80.0478 85.3693 82.2652 83.3737 84.7044 83.3737C87.3652 83.3737 89.3609 85.3693 89.3609 87.8085V88.0302C89.3609 88.6954 90.0261 89.3606 90.6913 89.3606C91.3565 89.3606 92.0218 88.9172 92.0218 88.0302C91.5783 85.3693 90.2478 83.152 88.0305 81.8215ZM81.6 78.0519C81.6 76.4998 82.9305 75.1693 84.4826 75.1693C86.0348 75.1693 87.3652 76.4998 87.3652 78.0519C87.3652 79.6041 86.0348 80.9346 84.4826 80.9346C82.9305 80.9346 81.6 79.6041 81.6 78.0519ZM59.4261 28.6041C61.4218 26.8302 62.7522 24.1693 62.7522 21.2867C62.7522 15.965 58.5391 11.752 53.4391 11.752C48.3391 11.752 44.1261 15.965 44.1261 21.2867C44.1261 24.1693 45.4565 26.8302 47.4522 28.6041C43.4609 30.8215 40.8 34.8128 40.5783 39.6911V39.9128C40.5783 41.0215 41.4652 41.6867 42.3522 41.6867C43.2392 41.6867 44.1261 40.7998 44.1261 39.9128C44.1261 34.8128 48.1174 30.8215 53.2174 30.8215C58.0957 30.8215 62.3087 34.8128 62.3087 39.6911V39.9128C62.3087 41.0215 63.1957 41.6867 64.0826 41.6867C65.1913 41.6867 65.8565 40.7998 65.8565 39.9128C66.3 35.0346 63.4174 30.8215 59.4261 28.6041ZM47.6739 21.2867C47.6739 18.1824 50.3348 15.5215 53.4391 15.5215C56.5435 15.5215 59.2044 18.1824 59.2044 21.2867C59.2044 24.3911 56.5435 27.052 53.4391 27.052C50.3348 27.052 47.6739 24.3911 47.6739 21.2867ZM21.5087 81.8215C22.6174 80.9346 23.2826 79.3824 23.2826 77.8302C23.2826 74.9476 20.8435 72.5085 17.9609 72.5085C15.0783 72.5085 12.6391 74.9476 12.6391 77.8302C12.6391 79.3824 13.3044 80.7128 14.4131 81.8215C12.4174 83.152 10.8652 85.3693 10.8652 87.8085V88.0302C10.8652 88.6954 11.5305 89.3606 12.1957 89.3606C12.8609 89.3606 13.5261 88.9172 13.5261 88.0302C13.5261 85.3693 15.7435 83.3737 18.1826 83.3737C20.8435 83.3737 22.8391 85.3693 22.8391 87.8085V88.0302C22.8391 88.6954 23.5044 89.3606 24.1696 89.3606C24.8348 89.3606 25.5 88.9172 25.5 88.0302C24.8348 85.3693 23.5044 83.152 21.5087 81.8215ZM14.8565 78.0519C14.8565 76.4998 16.187 75.1693 17.7391 75.1693C19.2913 75.1693 20.6218 76.4998 20.6218 78.0519C20.6218 79.6041 19.2913 80.9346 17.7391 80.9346C16.187 80.9346 14.8565 79.6041 14.8565 78.0519Z" fill="#5C6273" fill-opacity="0.07"/>
</svg>
