<svg width="24" height="24" viewBox="0 0 24 24" fill="none" xmlns="http://www.w3.org/2000/svg">
<path d="M9.23438 2.53369C6.16641 2.53369 3.67969 5.02041 3.67969 8.08838C3.67969 11.1563 6.16641 13.6431 9.23438 13.6431C12.3023 13.6431 14.7891 11.1563 14.7891 8.08838C14.7891 5.02041 12.3023 2.53369 9.23438 2.53369ZM9.23438 11.7048C7.2375 11.7048 5.61797 10.0853 5.61797 8.08838C5.61797 6.0915 7.2375 4.47197 9.23438 4.47197C11.2312 4.47197 12.8508 6.0915 12.8508 8.08838C12.8508 10.0853 11.2312 11.7048 9.23438 11.7048Z" fill="white"/>
<path d="M9.22266 13.6173C12.7641 13.6173 15.6352 16.4884 15.6352 20.0298H17.5547C17.5547 15.429 13.8234 11.6978 9.22266 11.6978C4.62187 11.6978 0.890625 15.429 0.890625 20.0298H2.81016C2.81016 16.4884 5.68125 13.6173 9.22266 13.6173Z" fill="white"/>
<path d="M0.890625 20.0484C0.890625 20.3027 0.991619 20.5465 1.17139 20.7263C1.35116 20.906 1.59498 21.007 1.84922 21.007C2.10345 21.007 2.34728 20.906 2.52705 20.7263C2.70682 20.5465 2.80781 20.3027 2.80781 20.0484C2.80781 19.7942 2.70682 19.5504 2.52705 19.3706C2.34728 19.1908 2.10345 19.0898 1.84922 19.0898C1.59498 19.0898 1.35116 19.1908 1.17139 19.3706C0.991619 19.5504 0.890625 19.7942 0.890625 20.0484Z" fill="white"/>
<path d="M15.6375 20.0484C15.6375 20.3027 15.7384 20.5465 15.9182 20.7263C16.098 20.906 16.3418 21.007 16.596 21.007C16.8503 21.007 17.0941 20.906 17.2739 20.7263C17.4536 20.5465 17.5546 20.3027 17.5546 20.0484C17.5546 19.7942 17.4536 19.5504 17.2739 19.3706C17.0941 19.1908 16.8503 19.0898 16.596 19.0898C16.3418 19.0898 16.098 19.1908 15.9182 19.3706C15.7384 19.5504 15.6375 19.7942 15.6375 20.0484Z" fill="white"/>
<path d="M14.5898 12.6842C14.5898 12.8101 14.6146 12.9347 14.6628 13.051C14.711 13.1673 14.7816 13.273 14.8706 13.362C14.9596 13.451 15.0653 13.5216 15.1816 13.5698C15.2979 13.618 15.4226 13.6428 15.5484 13.6428C15.6743 13.6428 15.799 13.618 15.9153 13.5698C16.0316 13.5216 16.1373 13.451 16.2263 13.362C16.3153 13.273 16.3859 13.1673 16.4341 13.051C16.4822 12.9347 16.507 12.8101 16.507 12.6842C16.507 12.5583 16.4822 12.4336 16.4341 12.3173C16.3859 12.201 16.3153 12.0954 16.2263 12.0064C16.1373 11.9173 16.0316 11.8467 15.9153 11.7986C15.799 11.7504 15.6743 11.7256 15.5484 11.7256C15.4226 11.7256 15.2979 11.7504 15.1816 11.7986C15.0653 11.8467 14.9596 11.9173 14.8706 12.0064C14.7816 12.0954 14.711 12.201 14.6628 12.3173C14.6146 12.4336 14.5898 12.5583 14.5898 12.6842Z" fill="white"/>
<path d="M14.114 3.49668C14.114 3.62256 14.1388 3.74722 14.187 3.86352C14.2352 3.97982 14.3058 4.08549 14.3948 4.17451C14.4838 4.26352 14.5895 4.33413 14.7058 4.38231C14.8221 4.43048 14.9467 4.45527 15.0726 4.45527C15.1985 4.45527 15.3231 4.43048 15.4394 4.38231C15.5557 4.33413 15.6614 4.26352 15.7504 4.17451C15.8394 4.08549 15.9101 3.97982 15.9582 3.86352C16.0064 3.74722 16.0312 3.62256 16.0312 3.49668C16.0312 3.3708 16.0064 3.24614 15.9582 3.12984C15.9101 3.01354 15.8394 2.90787 15.7504 2.81885C15.6614 2.72984 15.5557 2.65923 15.4394 2.61105C15.3231 2.56288 15.1985 2.53809 15.0726 2.53809C14.9467 2.53809 14.8221 2.56288 14.7058 2.61105C14.5895 2.65923 14.4838 2.72984 14.3948 2.81885C14.3058 2.90787 14.2352 3.01354 14.187 3.12984C14.1388 3.24614 14.114 3.3708 14.114 3.49668Z" fill="white"/>
<path d="M23.1797 20.0295C23.1797 16.6615 21.1804 13.76 18.3047 12.4451C19.589 11.4279 20.414 9.85293 20.414 8.08809C20.414 5.09277 18.0422 2.65059 15.0726 2.53809V4.45527C16.9711 4.56543 18.4758 6.16387 18.4758 8.08809C18.4758 9.93496 17.1609 11.5264 15.375 11.7467C15.2437 11.7631 15.0726 11.9201 15.0726 12.0514V13.4717C15.0726 13.0029 15.1453 13.4576 15.2414 13.4646L15.3586 13.6287C18.7172 13.8326 21.2601 16.6193 21.2601 20.0295H21.2625V20.0482C21.2625 20.5779 21.6914 21.0068 22.2211 21.0068C22.7508 21.0068 23.1797 20.5779 23.1797 20.0482V20.0295Z" fill="white"/>
</svg>
