<svg width="90" height="90" viewBox="0 0 90 90" fill="none" xmlns="http://www.w3.org/2000/svg">
<path d="M18.9858 21.0938H13.3608C13.1743 21.0938 12.9955 21.0197 12.8636 20.8878C12.7317 20.7559 12.6577 20.5771 12.6577 20.3906C12.6577 20.2041 12.7317 20.0253 12.8636 19.8934C12.9955 19.7616 13.1743 19.6875 13.3608 19.6875H18.9858C19.1723 19.6875 19.3511 19.7616 19.483 19.8934C19.6148 20.0253 19.6889 20.2041 19.6889 20.3906C19.6889 20.5771 19.6148 20.7559 19.483 20.8878C19.3511 21.0197 19.1723 21.0938 18.9858 21.0938Z" fill="#333333"/>
<path d="M16.1733 23.9062C15.9868 23.9062 15.808 23.8322 15.6761 23.7003C15.5442 23.5684 15.4702 23.3896 15.4702 23.2031V17.5781C15.4702 17.3916 15.5442 17.2128 15.6761 17.0809C15.808 16.9491 15.9868 16.875 16.1733 16.875C16.3598 16.875 16.5386 16.9491 16.6705 17.0809C16.8023 17.2128 16.8764 17.3916 16.8764 17.5781V23.2031C16.8764 23.3896 16.8023 23.5684 16.6705 23.7003C16.5386 23.8322 16.3598 23.9062 16.1733 23.9062ZM11.2514 30.2344H5.6264C5.43992 30.2344 5.26108 30.1603 5.12922 30.0284C4.99736 29.8966 4.92328 29.7177 4.92328 29.5312C4.92328 29.3448 4.99736 29.1659 5.12922 29.0341C5.26108 28.9022 5.43992 28.8281 5.6264 28.8281H11.2514C11.4379 28.8281 11.6167 28.9022 11.7486 29.0341C11.8804 29.1659 11.9545 29.3448 11.9545 29.5312C11.9545 29.7177 11.8804 29.8966 11.7486 30.0284C11.6167 30.1603 11.4379 30.2344 11.2514 30.2344Z" fill="#333333"/>
<path d="M8.4389 33.0469C8.25242 33.0469 8.07358 32.9728 7.94172 32.8409C7.80986 32.7091 7.73578 32.5302 7.73578 32.3438V26.7188C7.73578 26.5323 7.80986 26.3534 7.94172 26.2216C8.07358 26.0897 8.25242 26.0156 8.4389 26.0156C8.62538 26.0156 8.80423 26.0897 8.93609 26.2216C9.06795 26.3534 9.14203 26.5323 9.14203 26.7188V32.3438C9.14203 32.5302 9.06795 32.7091 8.93609 32.8409C8.80423 32.9728 8.62538 33.0469 8.4389 33.0469Z" fill="#333333"/>
<path d="M40.4142 43.5938C40.6462 42.6938 40.7827 41.7544 40.7827 40.7812C40.7827 37.7976 39.5974 34.9361 37.4876 32.8263C35.3778 30.7165 32.5163 29.5313 29.5327 29.5312C26.549 29.5313 23.6875 30.7165 21.5777 32.8263C19.4679 34.9361 18.2827 37.7976 18.2827 40.7812C18.2827 41.7544 18.4191 42.6938 18.6511 43.5938" fill="#FFDE5B"/>
<path d="M40.4142 44.2969C40.3069 44.2968 40.2011 44.2723 40.1047 44.225C40.0084 44.1778 39.9242 44.1091 39.8585 44.0243C39.7928 43.9394 39.7474 43.8407 39.7257 43.7356C39.7041 43.6305 39.7068 43.5219 39.7336 43.418C39.9601 42.5572 40.0768 41.6713 40.0809 40.7812C40.0809 34.965 35.3503 30.2344 29.5341 30.2344C23.7178 30.2344 18.9872 34.965 18.9872 40.7812C18.9872 41.6419 19.1039 42.5292 19.3331 43.418C19.3585 43.5081 19.3656 43.6024 19.3541 43.6953C19.3426 43.7882 19.3126 43.8779 19.2659 43.959C19.2192 44.0402 19.1568 44.1112 19.0824 44.168C19.0079 44.2247 18.9228 44.266 18.8322 44.2894C18.7415 44.3128 18.6471 44.3179 18.5544 44.3043C18.4618 44.2907 18.3728 44.2588 18.2927 44.2104C18.2125 44.162 18.1429 44.098 18.0878 44.0223C18.0327 43.9466 17.9933 43.8607 17.9719 43.7695C17.7157 42.794 17.5843 41.7899 17.5809 40.7812C17.5809 34.1902 22.943 28.8281 29.5341 28.8281C36.1252 28.8281 41.4872 34.1902 41.4872 40.7812C41.4872 41.7572 41.355 42.7627 41.0962 43.7695C41.057 43.9205 40.9687 44.0543 40.8453 44.1497C40.7219 44.2451 40.5702 44.2969 40.4142 44.2969Z" fill="#333333"/>
<path d="M71.3517 43.5938C71.5837 42.6938 71.7202 41.7544 71.7202 40.7812C71.7202 37.7976 70.5349 34.9361 68.4251 32.8263C66.3153 30.7165 63.4538 29.5313 60.4702 29.5312C57.4865 29.5313 54.625 30.7165 52.5152 32.8263C50.4054 34.9361 49.2202 37.7976 49.2202 40.7812C49.2202 41.7544 49.3566 42.6938 49.5886 43.5938" fill="#FFDE5B"/>
<path d="M71.3517 44.2969C71.2444 44.2968 71.1386 44.2723 71.0422 44.225C70.9459 44.1778 70.8617 44.1091 70.796 44.0243C70.7303 43.9394 70.6849 43.8407 70.6632 43.7356C70.6416 43.6305 70.6443 43.5219 70.6711 43.418C70.8976 42.5572 71.0143 41.6713 71.0184 40.7812C71.0184 34.965 66.2878 30.2344 60.4716 30.2344C54.6553 30.2344 49.9247 34.965 49.9247 40.7812C49.9247 41.6419 50.0414 42.5292 50.2706 43.418C50.296 43.5081 50.3031 43.6024 50.2916 43.6953C50.2801 43.7882 50.2501 43.8779 50.2034 43.959C50.1567 44.0402 50.0943 44.1112 50.0199 44.168C49.9454 44.2247 49.8603 44.266 49.7697 44.2894C49.679 44.3128 49.5846 44.3179 49.492 44.3043C49.3993 44.2907 49.3103 44.2588 49.2302 44.2104C49.1501 44.162 49.0804 44.098 49.0253 44.0223C48.9702 43.9466 48.9308 43.8607 48.9094 43.7695C48.6532 42.794 48.5218 41.7899 48.5184 40.7812C48.5184 34.1902 53.8805 28.8281 60.4716 28.8281C67.0627 28.8281 72.4247 34.1902 72.4247 40.7812C72.4247 41.7572 72.2925 42.7627 72.0338 43.7695C71.9945 43.9205 71.9062 44.0543 71.7828 44.1497C71.6594 44.2451 71.5077 44.2969 71.3517 44.2969ZM29.5327 37.9687C29.3462 37.9687 29.1673 37.8947 29.0355 37.7628C28.9036 37.6309 28.8295 37.4521 28.8295 37.2656V35.1562C28.8295 34.9698 28.9036 34.7909 29.0355 34.6591C29.1673 34.5272 29.3462 34.4531 29.5327 34.4531C29.7191 34.4531 29.898 34.5272 30.0298 34.6591C30.1617 34.7909 30.2358 34.9698 30.2358 35.1562V37.2656C30.2358 37.4521 30.1617 37.6309 30.0298 37.7628C29.898 37.8947 29.7191 37.9687 29.5327 37.9687Z" fill="#333333"/>
<path d="M31.9908 44.2997C31.8601 44.2996 31.732 44.2631 31.6209 44.1943C31.5098 44.1255 31.42 44.0271 31.3618 43.9101C31.3035 43.7931 31.279 43.6622 31.291 43.532C31.303 43.4019 31.351 43.2776 31.4297 43.1733C31.5476 43.0166 31.6195 42.8301 31.6373 42.6348C31.6551 42.4395 31.6181 42.2431 31.5305 42.0677C31.4429 41.8923 31.308 41.7447 31.1412 41.6417C30.9743 41.5387 30.782 41.4842 30.5859 41.4844H28.4766C27.1195 41.4844 26.0156 40.3805 26.0156 39.0234C26.0156 37.6664 27.1209 36.5625 28.4766 36.5625H31.6406C31.8271 36.5625 32.0059 36.6366 32.1378 36.7684C32.2697 36.9003 32.3438 37.0791 32.3438 37.2656C32.3438 37.4521 32.2697 37.6309 32.1378 37.7628C32.0059 37.8947 31.8271 37.9688 31.6406 37.9688H28.4766C28.1968 37.9688 27.9286 38.0799 27.7308 38.2777C27.533 38.4755 27.4219 38.7437 27.4219 39.0234C27.4219 39.3032 27.533 39.5714 27.7308 39.7692C27.9286 39.967 28.1968 40.0781 28.4766 40.0781H30.5859C31.043 40.0791 31.4908 40.2072 31.8792 40.4481C32.2677 40.689 32.5814 41.0332 32.7854 41.4423C32.9894 41.8513 33.0756 42.309 33.0344 42.7642C32.9931 43.2194 32.8261 43.6541 32.5519 44.0198C32.4866 44.107 32.4019 44.1776 32.3045 44.2262C32.2071 44.2748 32.0996 44.3 31.9908 44.2997ZM60.4702 37.9688C60.2837 37.9688 60.1048 37.8947 59.973 37.7628C59.8411 37.6309 59.767 37.4521 59.767 37.2656V35.1562C59.767 34.9698 59.8411 34.7909 59.973 34.6591C60.1048 34.5272 60.2837 34.4531 60.4702 34.4531C60.6566 34.4531 60.8355 34.5272 60.9673 34.6591C61.0992 34.7909 61.1733 34.9698 61.1733 35.1562V37.2656C61.1733 37.4521 61.0992 37.6309 60.9673 37.7628C60.8355 37.8947 60.6566 37.9688 60.4702 37.9688Z" fill="#333333"/>
<path d="M62.9269 44.3011C62.7962 44.301 62.6681 44.2645 62.557 44.1957C62.4459 44.1269 62.3561 44.0285 62.2979 43.9115C62.2396 43.7945 62.2151 43.6636 62.2271 43.5334C62.2391 43.4033 62.2871 43.279 62.3658 43.1747C62.484 43.0181 62.5563 42.8316 62.5743 42.6362C62.5924 42.4408 62.5556 42.2443 62.4681 42.0686C62.3806 41.893 62.2458 41.7453 62.0789 41.6421C61.912 41.5389 61.7197 41.4842 61.5234 41.4844H59.4141C58.057 41.4844 56.9531 40.3805 56.9531 39.0234C56.9531 37.6664 58.0584 36.5625 59.4141 36.5625H62.5781C62.7646 36.5625 62.9434 36.6366 63.0753 36.7684C63.2072 36.9003 63.2812 37.0791 63.2812 37.2656C63.2812 37.4521 63.2072 37.6309 63.0753 37.7628C62.9434 37.8947 62.7646 37.9688 62.5781 37.9688H59.4141C59.1343 37.9688 58.8661 38.0799 58.6683 38.2777C58.4705 38.4755 58.3594 38.7437 58.3594 39.0234C58.3594 39.3032 58.4705 39.5714 58.6683 39.7692C58.8661 39.967 59.1343 40.0781 59.4141 40.0781H61.5234C61.9806 40.0792 62.4285 40.2074 62.817 40.4485C63.2054 40.6896 63.5192 41.034 63.723 41.4432C63.9269 41.8524 64.0129 42.3103 63.9714 42.7656C63.9299 43.2209 63.7625 43.6557 63.488 44.0213C63.4227 44.1084 63.338 44.179 63.2406 44.2276C63.1432 44.2762 63.0357 44.3014 62.9269 44.3011ZM45.0014 87.8906H16.1733C13.8473 87.8906 11.9545 85.9978 11.9545 83.6719V61.1719C11.9545 60.9854 12.0286 60.8066 12.1605 60.6747C12.2923 60.5428 12.4712 60.4688 12.6577 60.4688C12.8441 60.4688 13.023 60.5428 13.1548 60.6747C13.2867 60.8066 13.3608 60.9854 13.3608 61.1719V83.6719C13.3608 85.223 14.6222 86.4844 16.1733 86.4844H44.2983V46.4062C44.2983 46.2198 44.3724 46.0409 44.5042 45.9091C44.6361 45.7772 44.8149 45.7031 45.0014 45.7031C45.1879 45.7031 45.3667 45.7772 45.4986 45.9091C45.6305 46.0409 45.7045 46.2198 45.7045 46.4062V87.1875C45.7045 87.374 45.6305 87.5528 45.4986 87.6847C45.3667 87.8165 45.1879 87.8906 45.0014 87.8906Z" fill="#333333"/>
<path d="M32.3452 59.0625H5.62643C5.48585 59.0623 5.34856 59.0199 5.2323 58.9408C5.11604 58.8618 5.02614 58.7497 4.97422 58.6191C4.92229 58.4884 4.91072 58.3452 4.941 58.2079C4.97128 58.0706 5.04202 57.9456 5.14409 57.8489L17.8003 45.8958C17.9306 45.7724 18.1032 45.7034 18.2827 45.7031H45.0014C45.142 45.7034 45.2793 45.7457 45.3956 45.8248C45.5118 45.9038 45.6017 46.0159 45.6536 46.1466C45.7056 46.2772 45.7171 46.4204 45.6869 46.5577C45.6566 46.695 45.5858 46.82 45.4838 46.9167L32.8275 58.8698C32.6972 58.9933 32.5247 59.0622 32.3452 59.0625ZM7.3955 57.6562H32.0653L43.2324 47.1094H18.5625L7.3955 57.6562Z" fill="#333333"/>
<path d="M73.8295 87.8906H45.0014C44.8149 87.8906 44.6361 87.8165 44.5042 87.6847C44.3724 87.5528 44.2983 87.374 44.2983 87.1875V46.4062C44.2983 46.2198 44.3724 46.0409 44.5042 45.9091C44.6361 45.7772 44.8149 45.7031 45.0014 45.7031C45.1879 45.7031 45.3667 45.7772 45.4986 45.9091C45.6305 46.0409 45.7045 46.2198 45.7045 46.4062V86.4844H73.8295C75.3806 86.4844 76.642 85.223 76.642 83.6719V61.1719C76.642 60.9854 76.7161 60.8066 76.848 60.6747C76.9798 60.5428 77.1587 60.4688 77.3452 60.4688C77.5316 60.4688 77.7105 60.5428 77.8423 60.6747C77.9742 60.8066 78.0483 60.9854 78.0483 61.1719V83.6719C78.0483 85.9978 76.1555 87.8906 73.8295 87.8906Z" fill="#333333"/>
<path d="M84.3764 59.0625H57.6577C57.4782 59.0622 57.3056 58.9933 57.1753 58.8698L44.5191 46.9167C44.417 46.82 44.3463 46.695 44.316 46.5577C44.2857 46.4204 44.2973 46.2772 44.3492 46.1466C44.4011 46.0159 44.491 45.9038 44.6073 45.8248C44.7236 45.7457 44.8608 45.7034 45.0014 45.7031H71.7202C71.8997 45.7034 72.0722 45.7724 72.2025 45.8958L84.8588 57.8489C84.9608 57.9456 85.0316 58.0706 85.0619 58.2079C85.0921 58.3452 85.0806 58.4884 85.0286 58.6191C84.9767 58.7497 84.8868 58.8618 84.7706 58.9408C84.6543 59.0199 84.517 59.0623 84.3764 59.0625ZM57.9375 57.6562H82.6074L71.4403 47.1094H46.7705L57.9375 57.6562Z" fill="#333333"/>
<path d="M33.7514 14.0625C33.7514 17.0462 34.9367 19.9077 37.0465 22.0175C39.1562 24.1272 42.0177 25.3125 45.0014 25.3125C47.9851 25.3125 50.8466 24.1272 52.9564 22.0175C55.0661 19.9077 56.2514 17.0462 56.2514 14.0625C56.2514 11.0788 55.0661 8.21733 52.9564 6.10755C50.8466 3.99776 47.9851 2.8125 45.0014 2.8125C42.0177 2.8125 39.1562 3.99776 37.0465 6.10755C34.9367 8.21733 33.7514 11.0788 33.7514 14.0625Z" fill="#FFDE5B"/>
<path d="M45.0014 26.0156C38.4103 26.0156 33.0483 20.6536 33.0483 14.0625C33.0483 7.47141 38.4103 2.10938 45.0014 2.10938C51.5925 2.10938 56.9545 7.47141 56.9545 14.0625C56.9545 20.6536 51.5925 26.0156 45.0014 26.0156ZM45.0014 3.51562C39.1852 3.51562 34.4545 8.24625 34.4545 14.0625C34.4545 19.8787 39.1852 24.6094 45.0014 24.6094C50.8177 24.6094 55.5483 19.8787 55.5483 14.0625C55.5483 8.24625 50.8177 3.51562 45.0014 3.51562Z" fill="#333333"/>
<path d="M45.0014 11.25C44.8149 11.25 44.6361 11.1759 44.5042 11.0441C44.3724 10.9122 44.2983 10.7334 44.2983 10.5469V8.4375C44.2983 8.25102 44.3724 8.07218 44.5042 7.94032C44.6361 7.80845 44.8149 7.73438 45.0014 7.73438C45.1879 7.73438 45.3667 7.80845 45.4986 7.94032C45.6305 8.07218 45.7045 8.25102 45.7045 8.4375V10.5469C45.7045 10.7334 45.6305 10.9122 45.4986 11.0441C45.3667 11.1759 45.1879 11.25 45.0014 11.25ZM45.0014 20.3906C44.8149 20.3906 44.6361 20.3165 44.5042 20.1847C44.3724 20.0528 44.2983 19.874 44.2983 19.6875V17.5781C44.2983 17.3916 44.3724 17.2128 44.5042 17.0809C44.6361 16.9491 44.8149 16.875 45.0014 16.875C45.1879 16.875 45.3667 16.9491 45.4986 17.0809C45.6305 17.2128 45.7045 17.3916 45.7045 17.5781V19.6875C45.7045 19.874 45.6305 20.0528 45.4986 20.1847C45.3667 20.3165 45.1879 20.3906 45.0014 20.3906Z" fill="#333333"/>
<path d="M46.0547 18.2812H42.1875C42.001 18.2812 41.8222 18.2072 41.6903 18.0753C41.5585 17.9434 41.4844 17.7646 41.4844 17.5781C41.4844 17.3916 41.5585 17.2128 41.6903 17.0809C41.8222 16.9491 42.001 16.875 42.1875 16.875H46.0547C46.3344 16.875 46.6027 16.7639 46.8005 16.5661C46.9983 16.3683 47.1094 16.1 47.1094 15.8203C47.1094 15.5406 46.9983 15.2723 46.8005 15.0745C46.6027 14.8767 46.3344 14.7656 46.0547 14.7656H43.9453C42.5883 14.7656 41.4844 13.6617 41.4844 12.3047C41.4844 10.9477 42.5897 9.84375 43.9453 9.84375H47.1094C47.2959 9.84375 47.4747 9.91783 47.6066 10.0497C47.7384 10.1816 47.8125 10.3604 47.8125 10.5469C47.8125 10.7334 47.7384 10.9122 47.6066 11.0441C47.4747 11.1759 47.2959 11.25 47.1094 11.25H43.9453C43.6656 11.25 43.3973 11.3611 43.1995 11.5589C43.0017 11.7567 42.8906 12.025 42.8906 12.3047C42.8906 12.5844 43.0017 12.8527 43.1995 13.0505C43.3973 13.2483 43.6656 13.3594 43.9453 13.3594H46.0547C47.4117 13.3594 48.5156 14.4633 48.5156 15.8203C48.5156 17.1773 47.4117 18.2812 46.0547 18.2812ZM61.1733 64.6875C60.9868 64.6875 60.808 64.6134 60.6761 64.4816C60.5442 64.3497 60.4702 64.1709 60.4702 63.9844V61.1719C60.4702 60.9854 60.5442 60.8066 60.6761 60.6747C60.808 60.5428 60.9868 60.4688 61.1733 60.4688C61.3598 60.4688 61.5386 60.5428 61.6705 60.6747C61.8023 60.8066 61.8764 60.9854 61.8764 61.1719V63.9844C61.8764 64.1709 61.8023 64.3497 61.6705 64.4816C61.5386 64.6134 61.3598 64.6875 61.1733 64.6875ZM54.142 67.0894C53.9555 67.0894 53.7765 67.0156 53.6442 66.8841L51.6544 64.8942C51.5263 64.7616 51.4554 64.584 51.457 64.3996C51.4586 64.2153 51.5326 64.0389 51.6629 63.9086C51.7933 63.7782 51.9697 63.7043 52.154 63.7027C52.3384 63.701 52.516 63.7719 52.6486 63.9L54.6384 65.8898C54.7365 65.9882 54.8032 66.1133 54.8302 66.2495C54.8572 66.3857 54.8433 66.5268 54.7902 66.6551C54.7371 66.7834 54.6472 66.8931 54.5319 66.9704C54.4165 67.0477 54.2809 67.0891 54.142 67.0894ZM68.2045 67.0894C68.0656 67.0893 67.9297 67.0481 67.8142 66.971C67.6986 66.8938 67.6085 66.7841 67.5553 66.6558C67.502 66.5274 67.488 66.3862 67.5149 66.2498C67.5419 66.1135 67.6086 65.9883 67.7067 65.8898L69.6952 63.9C69.8278 63.7719 70.0054 63.701 70.1897 63.7027C70.3741 63.7043 70.5504 63.7782 70.6808 63.9086C70.8112 64.0389 70.8851 64.2153 70.8867 64.3996C70.8883 64.584 70.8175 64.7616 70.6894 64.8942L68.7009 66.8841C68.6358 66.9493 68.5584 67.001 68.4732 67.0362C68.388 67.0714 68.2967 67.0895 68.2045 67.0894ZM61.1733 77.3438C58.0711 77.3438 55.5483 74.8209 55.5483 71.7188C55.5483 68.6166 58.0711 66.0938 61.1733 66.0938C64.2755 66.0938 66.7983 68.6166 66.7983 71.7188C66.7983 74.8209 64.2755 77.3438 61.1733 77.3438ZM61.1733 67.5C58.8473 67.5 56.9545 69.3928 56.9545 71.7188C56.9545 74.0447 58.8473 75.9375 61.1733 75.9375C63.4992 75.9375 65.392 74.0447 65.392 71.7188C65.392 69.3928 63.4992 67.5 61.1733 67.5ZM63.9858 80.8594H58.3608C58.1743 80.8594 57.9955 80.7853 57.8636 80.6534C57.7317 80.5216 57.6577 80.3427 57.6577 80.1562C57.6577 79.9698 57.7317 79.7909 57.8636 79.6591C57.9955 79.5272 58.1743 79.4531 58.3608 79.4531H63.9858C64.1723 79.4531 64.3511 79.5272 64.483 79.6591C64.6148 79.7909 64.6889 79.9698 64.6889 80.1562C64.6889 80.3427 64.6148 80.5216 64.483 80.6534C64.3511 80.7853 64.1723 80.8594 63.9858 80.8594ZM62.5795 83.6719H59.767C59.5805 83.6719 59.4017 83.5978 59.2698 83.4659C59.138 83.3341 59.0639 83.1552 59.0639 82.9688C59.0639 82.7823 59.138 82.6034 59.2698 82.4716C59.4017 82.3397 59.5805 82.2656 59.767 82.2656H62.5795C62.766 82.2656 62.9449 82.3397 63.0767 82.4716C63.2086 82.6034 63.2827 82.7823 63.2827 82.9688C63.2827 83.1552 63.2086 83.3341 63.0767 83.4659C62.9449 83.5978 62.766 83.6719 62.5795 83.6719Z" fill="#333333"/>
<path d="M61.1733 76.6406C60.9868 76.6406 60.808 76.5665 60.6761 76.4347C60.5442 76.3028 60.4702 76.124 60.4702 75.9375V71.7188C60.4702 71.5323 60.5442 71.3534 60.6761 71.2216C60.808 71.0897 60.9868 71.0156 61.1733 71.0156C61.3598 71.0156 61.5386 71.0897 61.6705 71.2216C61.8023 71.3534 61.8764 71.5323 61.8764 71.7188V75.9375C61.8764 76.124 61.8023 76.3028 61.6705 76.4347C61.5386 76.5665 61.3598 76.6406 61.1733 76.6406ZM60.4702 24.6094C60.2837 24.6094 60.1048 24.5353 59.973 24.4034C59.8411 24.2716 59.767 24.0927 59.767 23.9062V21.0938C59.767 20.9073 59.8411 20.7284 59.973 20.5966C60.1048 20.4647 60.2837 20.3906 60.4702 20.3906C60.6566 20.3906 60.8355 20.4647 60.9673 20.5966C61.0992 20.7284 61.1733 20.9073 61.1733 21.0938V23.9062C61.1733 24.0927 61.0992 24.2716 60.9673 24.4034C60.8355 24.5353 60.6566 24.6094 60.4702 24.6094Z" fill="#333333"/>
<path d="M60.4702 18.9844C60.2837 18.9844 60.1048 18.9103 59.973 18.7784C59.8411 18.6466 59.767 18.4677 59.767 18.2812V14.7656C59.767 10.5005 63.2362 7.03125 67.5014 7.03125H71.017C71.2035 7.03125 71.3824 7.10533 71.5142 7.23719C71.6461 7.36905 71.7202 7.54789 71.7202 7.73438C71.7202 7.92086 71.6461 8.0997 71.5142 8.23156C71.3824 8.36342 71.2035 8.4375 71.017 8.4375H67.5014C65.8237 8.43936 64.2151 9.10667 63.0288 10.293C61.8424 11.4794 61.1751 13.0879 61.1733 14.7656V18.2812C61.1733 18.4677 61.0992 18.6466 60.9673 18.7784C60.8355 18.9103 60.6566 18.9844 60.4702 18.9844Z" fill="#333333"/>
<path d="M29.5327 24.6094C29.3462 24.6094 29.1673 24.5353 29.0355 24.4034C28.9036 24.2716 28.8295 24.0927 28.8295 23.9062V21.0938C28.8295 20.9073 28.9036 20.7284 29.0355 20.5966C29.1673 20.4647 29.3462 20.3906 29.5327 20.3906C29.7191 20.3906 29.898 20.4647 30.0298 20.5966C30.1617 20.7284 30.2358 20.9073 30.2358 21.0938V23.9062C30.2358 24.0927 30.1617 24.2716 30.0298 24.4034C29.898 24.5353 29.7191 24.6094 29.5327 24.6094Z" fill="#333333"/>
<path d="M29.5327 18.9844C29.3462 18.9844 29.1673 18.9103 29.0355 18.7784C28.9036 18.6466 28.8295 18.4677 28.8295 18.2812V14.7656C28.8295 11.2767 25.9903 8.4375 22.5014 8.4375H18.9858C18.7993 8.4375 18.6205 8.36342 18.4886 8.23156C18.3567 8.0997 18.2827 7.92086 18.2827 7.73438C18.2827 7.54789 18.3567 7.36905 18.4886 7.23719C18.6205 7.10533 18.7993 7.03125 18.9858 7.03125H22.5014C26.7666 7.03125 30.2358 10.5005 30.2358 14.7656V18.2812C30.2358 18.4677 30.1617 18.6466 30.0298 18.7784C29.898 18.9103 29.7191 18.9844 29.5327 18.9844Z" fill="#333333"/>
</svg>
