<svg width="99" height="127" viewBox="0 0 99 127" fill="none" xmlns="http://www.w3.org/2000/svg">
<path d="M0 1.25703C0.364235 33.6214 24.9354 60.1677 56.4595 63.6434C56.5346 67.2834 59.3691 70.2413 62.958 70.5135V75.0933C59.9635 74.9556 57.2699 73.6895 55.285 71.7062C53.1839 69.6032 51.8851 66.7044 51.8851 63.4963C51.8851 63.1992 51.6439 62.9586 51.3467 62.9586C51.0489 62.9586 50.809 63.1992 50.809 63.4963H50.8102C50.8102 70.3217 56.2005 75.8858 62.958 76.1689V80.739C58.4044 80.5988 54.3 78.7035 51.2926 75.6986C48.1701 72.5734 46.2394 68.2625 46.2394 63.4951C46.2394 63.1985 45.9989 62.9567 45.7011 62.9567C45.4045 62.9567 45.1621 63.1985 45.1621 63.4951H45.1627C45.1627 73.4399 53.0811 81.5297 62.958 81.8153V86.3848C56.8459 86.2439 51.3276 83.7175 47.3008 79.691C43.1551 75.5442 40.5932 69.8225 40.5932 63.4951C40.5932 63.1985 40.352 62.9567 40.0536 62.9567C39.757 62.9567 39.5152 63.1985 39.5152 63.4951H39.5165C39.5171 76.5593 49.963 87.1818 62.958 87.4688V92.0382C55.2862 91.8967 48.3578 88.7322 43.3077 83.6841C38.1407 78.5151 34.9457 71.3806 34.9457 63.4951C34.9457 63.1985 34.7039 62.9567 34.4073 62.9567C34.1095 62.9567 33.8696 63.1985 33.8696 63.4951C33.8696 79.6782 46.8436 92.827 62.9561 93.1145V97.6859C53.7266 97.5424 45.3867 93.7475 39.3153 87.6753C33.1251 81.4859 29.2994 72.9401 29.2982 63.4951C29.2982 63.1985 29.0582 62.9567 28.7604 62.9567C28.4639 62.9567 28.2221 63.1985 28.2221 63.4951H28.2233C28.2239 82.7963 43.7261 98.4733 62.958 98.7609V103.332C52.1675 103.188 42.4168 98.7622 35.3216 91.6696C28.1107 84.4561 23.6525 74.5001 23.6525 63.4951C23.6525 63.1985 23.4113 62.9567 23.1148 62.9567C22.8176 62.9567 22.5764 63.1985 22.5764 63.4951C22.5764 85.9145 40.6067 104.118 62.958 104.408V108.977C50.6084 108.834 39.4457 103.777 31.3298 95.6621C23.097 87.4282 18.0069 76.0582 18.0069 63.4951C18.0069 63.1985 17.7663 62.9567 17.4685 62.9567C17.1707 62.9567 16.9308 63.1985 16.9308 63.4951C16.9308 89.0333 37.4886 109.764 62.958 110.054V114.625C49.0493 114.482 36.4752 108.791 27.3373 99.6532C18.0826 90.3984 12.3606 77.6176 12.3606 63.4951C12.3606 63.1985 12.1194 62.9567 11.8217 62.9567C11.5251 62.9567 11.2833 63.1985 11.2833 63.4951H11.2845C11.2845 92.1515 34.3698 115.411 62.958 115.701V120.271C47.4896 120.127 33.5035 113.806 23.3443 103.646C13.0682 93.3693 6.71497 79.177 6.71375 63.4951C6.71375 63.1985 6.47256 62.9567 6.17539 62.9567C5.87883 62.9567 5.6358 63.1985 5.6358 63.4951H5.63703C5.63888 95.2696 31.2516 121.057 62.958 121.347V125.917C45.93 125.773 30.5342 118.82 19.3518 107.64C8.05317 96.3408 1.06809 80.7358 1.06625 63.4951C1.06625 63.1985 0.825684 62.9567 0.529121 62.9567C0.266411 62.9567 0.0473709 63.1456 0 63.3936V64.1707C0.363617 98.9314 28.6472 126.997 63.4908 127H63.4957C98.5663 127 126.997 98.5705 127 63.4994V63.4859C126.997 63.3044 126.904 63.1444 126.763 63.0484C126.676 62.9906 126.574 62.9567 126.462 62.9567C109.221 62.9567 93.6179 55.9704 82.3181 44.6734C71.0203 33.3734 64.0353 17.769 64.034 0.527939C64.034 0.356888 63.9528 0.207375 63.8285 0.108322C63.7621 0.0547943 63.6827 0.0166473 63.5966 3.8147e-05H0.426994C0.211037 0.0418701 0.0412216 0.211685 0 0.427032V1.25703ZM64.0328 12.207C68.8124 37.9147 89.0742 58.1773 114.78 62.9567H64.0328V12.207ZM62.958 69.4327C60.001 69.1651 57.671 66.7468 57.5381 63.7529C59.3254 63.919 61.1319 64.0107 62.958 64.0267V69.4327Z" fill="url(#paint0_linear_0_10659)" fill-opacity="0.54"/>
<defs>
<linearGradient id="paint0_linear_0_10659" x1="-1.50001" y1="-2" x2="64" y2="231" gradientUnits="userSpaceOnUse">
<stop stop-color="white"/>
</linearGradient>
</defs>
</svg>
