<svg width="11" height="18" viewBox="0 0 11 18" fill="none" xmlns="http://www.w3.org/2000/svg">
<path d="M6.04248 2.71768C5.88887 2.56406 5.68047 2.42227 5.48389 2.46523C5.28623 2.43193 5.10039 2.58555 4.94678 2.71768L0.201953 7.48398C-0.0386719 7.72461 -0.0386719 8.11992 0.201953 8.36055C0.442578 8.60117 0.837891 8.60117 1.07852 8.36055L5.49463 3.82412L9.92148 8.36055C10.1621 8.60117 10.5574 8.60117 10.798 8.36055C11.0387 8.11992 11.0387 7.72461 10.798 7.48398L6.04248 2.71768Z" fill="#333333"/>
<path d="M6.04248 9.37954C5.88887 9.22593 5.68047 9.08413 5.48389 9.1271C5.28623 9.0938 5.10039 9.24741 4.94678 9.37954L0.201953 14.1458C-0.0386719 14.3865 -0.0386719 14.7818 0.201953 15.0224C0.442578 15.263 0.837891 15.263 1.07852 15.0224L5.49463 10.486L9.92148 15.0224C10.1621 15.263 10.5574 15.263 10.798 15.0224C11.0387 14.7818 11.0387 14.3865 10.798 14.1458L6.04248 9.37954Z" fill="#333333" fill-opacity="0.6"/>
</svg>
