<svg width="42" height="42" viewBox="0 0 42 42" fill="none" xmlns="http://www.w3.org/2000/svg">
<rect width="42" height="42" rx="10" fill="#E1FFED"/>
<path d="M11.7416 25.2295L19.7166 17.6034L22.4099 20.4923L30.4911 12.6821V26.3518H11.7416V25.2295Z" fill="#FFDE5B"/>
<path d="M30.0412 27.1521H11.9384C11.3044 27.1521 10.788 26.6357 10.788 26.0017V12.9251C10.788 12.2911 11.3044 11.7747 11.9384 11.7747H30.0412C30.6752 11.7747 31.1916 12.2911 31.1916 12.9251V26.0017C31.1916 26.6357 30.6752 27.1521 30.0412 27.1521ZM12.0663 25.8739H29.9133V13.0529H12.0663V25.8739ZM14.9526 28.9417H26.8979V30.22H14.9526V28.9417Z" fill="#07C160"/>
<path d="M16.443 21.6837L15.5508 20.7685L19.2718 17.1459C19.3945 17.0257 19.5569 16.9606 19.7333 16.9644C19.9045 16.9682 20.0682 17.0424 20.1858 17.1676L22.4304 19.5759L25.3397 16.7087L26.237 17.6189L22.8599 20.9475C22.7372 21.0689 22.5697 21.1366 22.3971 21.1315C22.2246 21.1277 22.061 21.0548 21.9434 20.9283L19.6949 18.5175L16.443 21.6837Z" fill="#07C160"/>
</svg>
