<svg width="19" height="19" viewBox="0 0 19 19" fill="none" xmlns="http://www.w3.org/2000/svg">
<g clip-path="url(#clip0_0_10737)">
<path d="M10.545 15.0416L5.20995 18.8527C5.09157 18.9372 4.9522 18.9874 4.80714 18.9979C4.66207 19.0084 4.51691 18.9788 4.3876 18.9122C4.25829 18.8456 4.14981 18.7447 4.07409 18.6205C3.99836 18.4963 3.9583 18.3537 3.95831 18.2083V17.1435C3.95827 16.9693 4.01566 16.8 4.12158 16.6618C4.2275 16.5235 4.37605 16.4241 4.54421 16.3788C4.71238 16.3336 4.89078 16.345 5.05178 16.4114C5.21278 16.4778 5.34739 16.5954 5.43478 16.746L9.83166 13.6055C9.98078 13.4979 10.1628 13.4458 10.3463 13.4583H16.6249C17.0651 13.4583 17.4174 13.106 17.4174 12.6666V2.37499C17.4174 1.93482 17.0675 1.58332 16.6329 1.58332H2.36707C2.26363 1.58384 2.1613 1.60473 2.06593 1.64479C1.97055 1.68486 1.88401 1.74332 1.81123 1.81683C1.73845 1.89034 1.68087 1.97747 1.64176 2.07324C1.60266 2.16901 1.5828 2.27155 1.58332 2.37499V12.6666C1.58332 13.1068 1.93482 13.4583 2.37262 13.4583H4.35416C4.56412 13.4583 4.76548 13.5417 4.91395 13.6901C5.06242 13.8386 5.14583 14.04 5.14583 14.2499C5.14583 14.4599 5.06242 14.6613 4.91395 14.8097C4.76548 14.9582 4.56412 15.0416 4.35416 15.0416H2.37262C2.06078 15.0418 1.75197 14.9805 1.46386 14.8612C1.17576 14.7419 0.914012 14.5669 0.693622 14.3463C0.473232 14.1257 0.298524 13.8638 0.179502 13.5756C0.0604808 13.2873 -0.000516551 12.9784 3.29495e-06 12.6666V2.37499C3.29495e-06 1.064 1.05845 0 2.36787 0H16.6328C16.9443 0.000206269 17.2526 0.0618356 17.5403 0.18136C17.8279 0.300885 18.0891 0.475958 18.309 0.696559C18.5288 0.917159 18.703 1.17896 18.8216 1.46696C18.9401 1.75497 19.0007 2.06353 18.9999 2.37499V12.6666C18.9999 13.9792 17.9391 15.0416 16.6249 15.0416H10.545ZM4.74998 9.10413C4.33006 9.10413 3.92733 8.93732 3.6304 8.64038C3.33347 8.34345 3.16665 7.94073 3.16665 7.5208C3.16665 7.10088 3.33347 6.69815 3.6304 6.40122C3.92733 6.10429 4.33006 5.93747 4.74998 5.93747C5.16991 5.93747 5.57263 6.10429 5.86956 6.40122C6.1665 6.69815 6.33331 7.10088 6.33331 7.5208C6.33331 7.94073 6.1665 8.34345 5.86956 8.64038C5.57263 8.93732 5.16991 9.10413 4.74998 9.10413ZM14.2499 9.10413C13.83 9.10413 13.4273 8.93732 13.1304 8.64038C12.8334 8.34345 12.6666 7.94073 12.6666 7.5208C12.6666 7.10088 12.8334 6.69815 13.1304 6.40122C13.4273 6.10429 13.83 5.93747 14.2499 5.93747C14.6699 5.93747 15.0726 6.10429 15.3695 6.40122C15.6665 6.69815 15.8333 7.10088 15.8333 7.5208C15.8333 7.94073 15.6665 8.34345 15.3695 8.64038C15.0726 8.93732 14.6699 9.10413 14.2499 9.10413ZM9.49996 9.10413C9.08004 9.10413 8.67731 8.93732 8.38038 8.64038C8.08345 8.34345 7.91663 7.94073 7.91663 7.5208C7.91663 7.10088 8.08345 6.69815 8.38038 6.40122C8.67731 6.10429 9.08004 5.93747 9.49996 5.93747C9.91988 5.93747 10.3226 6.10429 10.6195 6.40122C10.9165 6.69815 11.0833 7.10088 11.0833 7.5208C11.0833 7.94073 10.9165 8.34345 10.6195 8.64038C10.3226 8.93732 9.91988 9.10413 9.49996 9.10413Z" fill="#100D40"/>
</g>
<defs>
<clipPath id="clip0_0_10737">
<rect width="19" height="19" fill="white"/>
</clipPath>
</defs>
</svg>
