<svg width="20" height="18" viewBox="0 0 20 18" fill="none" xmlns="http://www.w3.org/2000/svg">
<g clip-path="url(#clip0_0_10734)">
<path d="M8.76579 3.17404L5.57355 4.70512C5.45438 4.77789 5.31159 4.81667 5.16536 4.81598H1.67658C1.30647 4.81598 0.951513 4.94225 0.689803 5.16701C0.428094 5.39177 0.281067 5.69661 0.281067 6.01447L0.281067 11.4077C0.281067 11.7256 0.428094 12.0304 0.689803 12.2552C0.951513 12.4799 1.30647 12.6062 1.67658 12.6062H5.16536C5.3104 12.6061 5.45186 12.6449 5.57006 12.717L8.7623 14.2481C8.97083 14.3765 9.21653 14.453 9.47238 14.4692C9.72824 14.4854 9.98435 14.4408 10.2126 14.3401C10.4408 14.2395 10.6323 14.0868 10.7661 13.8988C10.8998 13.7107 10.9706 13.4947 10.9707 13.2743V4.14782C10.9702 3.92798 10.8992 3.71251 10.7657 3.52497C10.6321 3.33743 10.441 3.18506 10.2134 3.08453C9.98574 2.98399 9.73029 2.93917 9.47497 2.95495C9.21965 2.97074 8.97431 3.04654 8.76579 3.17404ZM15.8341 14.8683C15.687 14.8686 15.5436 14.8289 15.4244 14.755C15.3052 14.681 15.2162 14.5766 15.1702 14.4567C15.1241 14.3368 15.1234 14.2074 15.1681 14.0871C15.2127 13.9668 15.3005 13.8616 15.4189 13.7867C16.3476 13.2024 17.1028 12.4383 17.6235 11.5565C18.1441 10.6746 18.4154 9.6998 18.4154 8.71108C18.4154 7.72237 18.1441 6.74756 17.6235 5.86572C17.1028 4.98387 16.3476 4.2198 15.4189 3.63546C15.3449 3.58884 15.2823 3.53015 15.2348 3.46275C15.1872 3.39536 15.1555 3.32058 15.1416 3.24267C15.1276 3.16477 15.1317 3.08527 15.1536 3.00872C15.1754 2.93217 15.2146 2.86006 15.2689 2.79652C15.3232 2.73297 15.3915 2.67923 15.47 2.63837C15.5485 2.5975 15.6355 2.57031 15.7262 2.55835C15.817 2.54638 15.9095 2.54988 15.9987 2.56864C16.0878 2.5874 16.1718 2.62105 16.2457 2.66768C17.3518 3.36327 18.2513 4.27298 18.8713 5.32299C19.4914 6.373 19.8146 7.53375 19.8146 8.71108C19.8146 9.88841 19.4914 11.0492 18.8713 12.0992C18.2513 13.1492 17.3518 14.0589 16.2457 14.7545C16.126 14.8289 15.9819 14.8688 15.8341 14.8683Z" fill="#333333"/>
<path d="M13.8559 12.3875C13.72 12.3871 13.5871 12.3526 13.4737 12.2882C13.3602 12.2238 13.2712 12.1324 13.2174 12.0251C13.1637 11.9179 13.1476 11.7995 13.1712 11.6845C13.1947 11.5695 13.2569 11.4629 13.35 11.3778C14.1399 10.6556 14.5796 9.702 14.5796 8.71117C14.5796 7.72033 14.1399 6.76674 13.35 6.04452C13.287 5.98727 13.2378 5.91992 13.2051 5.84632C13.1724 5.77273 13.1569 5.69432 13.1595 5.61559C13.1648 5.45657 13.2433 5.30585 13.378 5.19658C13.5126 5.08732 13.6922 5.02846 13.8774 5.03295C13.9691 5.03518 14.0594 5.05289 14.1431 5.08508C14.2268 5.11727 14.3023 5.1633 14.3653 5.22055C15.4005 6.16537 15.9769 7.41382 15.9769 8.71117C15.9769 10.0085 15.4005 11.257 14.3653 12.2018C14.2996 12.2609 14.2206 12.3079 14.133 12.3399C14.0454 12.3718 13.9511 12.3881 13.8559 12.3875Z" fill="#333333"/>
</g>
<defs>
<clipPath id="clip0_0_10734">
<rect width="19.5372" height="16.7789" fill="white" transform="translate(0.281067 0.321655)"/>
</clipPath>
</defs>
</svg>
