<svg width="32" height="32" viewBox="0 0 32 32" fill="none" xmlns="http://www.w3.org/2000/svg">
<path d="M0 8C0 3.58172 3.58172 0 8 0H24C28.4183 0 32 3.58172 32 8V24C32 28.4183 28.4183 32 24 32H8C3.58172 32 0 28.4183 0 24V8Z" fill="url(#paint0_linear_0_3431)"/>
<path d="M22.25 7C22.913 7 23.5489 7.26339 24.0178 7.73223C24.4866 8.20107 24.75 8.83696 24.75 9.5V22.8333C24.75 23.4964 24.4866 24.1323 24.0178 24.6011C23.5489 25.0699 22.913 25.3333 22.25 25.3333H11.4167C10.8258 25.3333 10.2541 25.124 9.80285 24.7427C9.35158 24.3613 9.04988 23.8325 8.95125 23.25H9.95833C10.448 23.25 10.9182 23.0585 11.2684 22.7163C11.6187 22.3742 11.8212 21.9087 11.8328 21.4192C11.8443 20.9297 11.6639 20.4551 11.3302 20.0969C10.9964 19.7386 10.5357 19.5252 10.0467 19.5021L9.95833 19.5H8.91667V18.0417H9.95833C10.4403 18.0417 10.9038 17.8561 11.2526 17.5234C11.6013 17.1907 11.8085 16.7365 11.8313 16.255L11.8333 16.1667C11.8333 15.6847 11.6477 15.2212 11.315 14.8724C10.9823 14.5237 10.5281 14.3165 10.0467 14.2937L9.95833 14.2917H8.91667V12.8333H9.95833C10.4403 12.8333 10.9038 12.6477 11.2526 12.315C11.6013 11.9823 11.8085 11.5281 11.8313 11.0467L11.8333 10.9583C11.8333 10.4763 11.6477 10.0129 11.315 9.66412C10.9823 9.31536 10.5281 9.10812 10.0467 9.08542L9.95833 9.08333H8.95125C9.04988 8.5008 9.35158 7.97201 9.80285 7.59067C10.2541 7.20933 10.8258 7.00008 11.4167 7H22.25ZM9.95833 20.75C10.1241 20.75 10.2831 20.8158 10.4003 20.9331C10.5175 21.0503 10.5833 21.2092 10.5833 21.375C10.5833 21.5408 10.5175 21.6997 10.4003 21.8169C10.2831 21.9342 10.1241 22 9.95833 22H7.875C7.70924 22 7.55027 21.9342 7.43306 21.8169C7.31585 21.6997 7.25 21.5408 7.25 21.375C7.25 21.2092 7.31585 21.0503 7.43306 20.9331C7.55027 20.8158 7.70924 20.75 7.875 20.75H9.95833ZM21.7917 12.0417C21.6756 11.9256 21.5378 11.8335 21.3861 11.7706C21.2344 11.7078 21.0719 11.6755 20.9077 11.6755C20.7435 11.6755 20.581 11.7078 20.4293 11.7706C20.2776 11.8335 20.1398 11.9256 20.0238 12.0417L14.0354 18.0308C13.9064 18.1598 13.8232 18.3276 13.7987 18.5083L13.63 19.755C13.6213 19.8191 13.6277 19.8844 13.6486 19.9456C13.6695 20.0068 13.7044 20.0623 13.7505 20.1077C13.7966 20.1531 13.8526 20.1872 13.9141 20.2072C13.9757 20.2272 14.041 20.2326 14.105 20.2229L15.3329 20.0379C15.5091 20.0115 15.6723 19.9293 15.7983 19.8033L21.7913 13.81C22.0256 13.5756 22.1572 13.2577 22.1572 12.9263C22.1572 12.5948 22.0256 12.2769 21.7913 12.0425L21.7917 12.0417ZM9.95833 15.5417C10.1241 15.5417 10.2831 15.6075 10.4003 15.7247C10.5175 15.8419 10.5833 16.0009 10.5833 16.1667C10.5833 16.3324 10.5175 16.4914 10.4003 16.6086C10.2831 16.7258 10.1241 16.7917 9.95833 16.7917H7.875C7.70924 16.7917 7.55027 16.7258 7.43306 16.6086C7.31585 16.4914 7.25 16.3324 7.25 16.1667C7.25 16.0009 7.31585 15.8419 7.43306 15.7247C7.55027 15.6075 7.70924 15.5417 7.875 15.5417H9.95833ZM9.95833 10.3333C10.1241 10.3333 10.2831 10.3992 10.4003 10.5164C10.5175 10.6336 10.5833 10.7926 10.5833 10.9583C10.5833 11.1241 10.5175 11.2831 10.4003 11.4003C10.2831 11.5175 10.1241 11.5833 9.95833 11.5833H7.875C7.70924 11.5833 7.55027 11.5175 7.43306 11.4003C7.31585 11.2831 7.25 11.1241 7.25 10.9583C7.25 10.7926 7.31585 10.6336 7.43306 10.5164C7.55027 10.3992 7.70924 10.3333 7.875 10.3333H9.95833Z" fill="url(#paint1_linear_0_3431)"/>
<defs>
<linearGradient id="paint0_linear_0_3431" x1="16" y1="0" x2="16" y2="32" gradientUnits="userSpaceOnUse">
<stop stop-color="#CDA3FF"/>
<stop offset="1" stop-color="#8B77FF"/>
</linearGradient>
<linearGradient id="paint1_linear_0_3431" x1="16" y1="7" x2="16" y2="25.3333" gradientUnits="userSpaceOnUse">
<stop stop-color="white" stop-opacity="0.8"/>
<stop offset="1" stop-color="white"/>
</linearGradient>
</defs>
</svg>
