<svg width="32" height="32" viewBox="0 0 32 32" fill="none" xmlns="http://www.w3.org/2000/svg">
<path d="M0 8C0 3.58172 3.58172 0 8 0H24C28.4183 0 32 3.58172 32 8V24C32 28.4183 28.4183 32 24 32H8C3.58172 32 0 28.4183 0 24V8Z" fill="url(#paint0_linear_0_3414)"/>
<path d="M9.19039 23C8.51839 23 8.03839 22.868 7.75039 22.604C7.46239 22.34 7.31839 21.962 7.31839 21.47C7.31839 21.23 7.33639 20.822 7.37239 20.246C7.40839 19.658 7.45639 18.992 7.51639 18.248C7.57639 17.504 7.63639 16.718 7.69639 15.89C7.75639 15.062 7.81639 14.282 7.87639 13.55C7.93639 12.818 7.98439 12.176 8.02039 11.624C8.05639 11.072 8.07439 10.694 8.07439 10.49C8.07439 10.31 8.17039 10.22 8.36239 10.22H14.6984C14.7704 10.22 14.8364 10.238 14.8964 10.274C14.9564 10.31 14.9864 10.376 14.9864 10.472L14.9144 11.534C14.8904 11.894 14.7884 12.188 14.6084 12.416C14.4404 12.632 14.0864 12.74 13.5464 12.74H11.0624L10.8824 15.278H13.4384C13.5104 15.278 13.5764 15.296 13.6364 15.332C13.6964 15.368 13.7264 15.434 13.7264 15.53L13.6544 16.592C13.6304 16.952 13.5284 17.246 13.3484 17.474C13.1804 17.69 12.8264 17.798 12.2864 17.798H10.7204L10.5224 20.48H14.4824C14.5544 20.48 14.6204 20.504 14.6804 20.552C14.7404 20.588 14.7704 20.648 14.7704 20.732L14.6984 21.794C14.6744 22.154 14.5724 22.448 14.3924 22.676C14.2244 22.892 13.8704 23 13.3304 23H9.19039ZM18.208 23C17.524 23 17.038 22.868 16.75 22.604C16.474 22.328 16.336 21.926 16.336 21.398C16.336 21.242 16.342 20.996 16.354 20.66C16.378 20.312 16.408 19.904 16.444 19.436C16.48 18.968 16.516 18.458 16.552 17.906C16.6 17.354 16.648 16.79 16.696 16.214C16.756 15.506 16.804 14.9 16.84 14.396C16.888 13.88 16.924 13.442 16.948 13.082C16.972 12.71 16.99 12.404 17.002 12.164C17.026 11.912 17.038 11.696 17.038 11.516C17.05 11.324 17.056 11.15 17.056 10.994C17.068 10.838 17.074 10.67 17.074 10.49C17.074 10.394 17.104 10.328 17.164 10.292C17.224 10.244 17.284 10.22 17.344 10.22C17.656 10.22 17.998 10.214 18.37 10.202C18.742 10.178 19.114 10.154 19.486 10.13C19.858 10.106 20.218 10.088 20.566 10.076C20.914 10.052 21.22 10.04 21.484 10.04C22.252 10.04 22.912 10.136 23.464 10.328C24.016 10.508 24.46 10.778 24.796 11.138C25.144 11.486 25.396 11.912 25.552 12.416C25.72 12.92 25.804 13.496 25.804 14.144C25.804 14.852 25.708 15.536 25.516 16.196C25.336 16.844 25.048 17.42 24.652 17.924C24.256 18.428 23.746 18.83 23.122 19.13C22.498 19.43 21.754 19.58 20.89 19.58C20.374 19.58 19.936 19.526 19.576 19.418L19.324 22.73C19.312 22.826 19.288 22.898 19.252 22.946C19.216 22.982 19.144 23 19.036 23H18.208ZM21.124 12.74C20.968 12.74 20.794 12.752 20.602 12.776C20.41 12.788 20.206 12.806 19.99 12.83C19.966 13.334 19.936 13.946 19.9 14.666C19.864 15.386 19.816 16.142 19.756 16.934C19.936 16.982 20.11 17.018 20.278 17.042C20.458 17.054 20.62 17.06 20.764 17.06C21.184 17.06 21.52 16.964 21.772 16.772C22.036 16.568 22.24 16.322 22.384 16.034C22.528 15.746 22.624 15.446 22.672 15.134C22.72 14.822 22.744 14.552 22.744 14.324C22.744 13.808 22.624 13.418 22.384 13.154C22.156 12.878 21.736 12.74 21.124 12.74Z" fill="url(#paint1_linear_0_3414)"/>
<defs>
<linearGradient id="paint0_linear_0_3414" x1="16" y1="0" x2="16" y2="32" gradientUnits="userSpaceOnUse">
<stop stop-color="#FFB000"/>
<stop offset="1" stop-color="#FF9300"/>
</linearGradient>
<linearGradient id="paint1_linear_0_3414" x1="16" y1="5" x2="16" y2="27" gradientUnits="userSpaceOnUse">
<stop stop-color="white" stop-opacity="0.8"/>
<stop offset="1" stop-color="white"/>
</linearGradient>
</defs>
</svg>
