<svg width="32" height="32" viewBox="0 0 32 32" fill="none" xmlns="http://www.w3.org/2000/svg">
<path d="M0 8C0 3.58172 3.58172 0 8 0H24C28.4183 0 32 3.58172 32 8V24C32 28.4183 28.4183 32 24 32H8C3.58172 32 0 28.4183 0 24V8Z" fill="url(#paint0_linear_0_3452)"/>
<path d="M20.95 7.05263H22C22.7956 7.05263 23.5587 7.38534 24.1213 7.97756C24.6839 8.56978 25 9.373 25 10.2105V22.8421C25 23.6796 24.6839 24.4829 24.1213 25.0751C23.5587 25.6673 22.7956 26 22 26H10C9.20435 26 8.44129 25.6673 7.87868 25.0751C7.31607 24.4829 7 23.6796 7 22.8421V10.2105C7 9.373 7.31607 8.56978 7.87868 7.97756C8.44129 7.38534 9.20435 7.05263 10 7.05263H11.05C10.9758 7.43502 10.9834 7.82998 11.0722 8.20891C11.1609 8.58783 11.3286 8.94123 11.5632 9.24351C11.7977 9.54579 12.0931 9.78938 12.4281 9.95663C12.7631 10.1239 13.1292 10.2106 13.5 10.2105H18.5C18.8708 10.2106 19.2369 10.1239 19.5719 9.95663C19.9069 9.78938 20.2023 9.54579 20.4368 9.24351C20.6714 8.94123 20.8391 8.58783 20.9278 8.20891C21.0166 7.82998 21.0242 7.43502 20.95 7.05263ZM12.75 14.4211C12.5511 14.4211 12.3604 14.5043 12.2197 14.6523C12.0791 14.8004 12.0001 15.0012 12.0001 15.2105C12.0001 15.4199 12.0791 15.6207 12.2197 15.7687C12.3604 15.9168 12.5511 16 12.75 16H19.25C19.3485 16 19.446 15.9796 19.537 15.9399C19.6281 15.9003 19.7107 15.8421 19.7804 15.7688C19.8501 15.6955 19.9053 15.6085 19.943 15.5127C19.9807 15.4169 20.0001 15.3142 20.0001 15.2105C20.0001 15.1068 19.9807 15.0042 19.943 14.9084C19.9053 14.8126 19.8501 14.7256 19.7804 14.6522C19.7107 14.5789 19.6281 14.5208 19.537 14.4811C19.446 14.4414 19.3485 14.421 19.25 14.4211H12.75ZM12.75 18.6316C12.6515 18.6316 12.554 18.652 12.463 18.6916C12.3719 18.7313 12.2892 18.7895 12.2196 18.8628C12.1499 18.9361 12.0947 19.0231 12.057 19.1189C12.0193 19.2147 11.9999 19.3174 11.9999 19.4211C11.9999 19.5247 12.0193 19.6274 12.057 19.7232C12.0947 19.819 12.1499 19.906 12.2196 19.9793C12.2892 20.0526 12.3719 20.1108 12.463 20.1505C12.554 20.1901 12.6515 20.2105 12.75 20.2105H19.25C19.3485 20.2105 19.446 20.1901 19.537 20.1505C19.6281 20.1108 19.7107 20.0526 19.7804 19.9793C19.8501 19.906 19.9053 19.819 19.943 19.7232C19.9807 19.6274 20.0001 19.5247 20.0001 19.4211C20.0001 19.3174 19.9807 19.2147 19.943 19.1189C19.9053 19.0231 19.8501 18.9361 19.7804 18.8628C19.7107 18.7895 19.6281 18.7313 19.537 18.6916C19.446 18.652 19.3485 18.6316 19.25 18.6316H12.75ZM13.5 6H18.5C18.8978 6 19.2794 6.16635 19.5607 6.46246C19.842 6.75857 20 7.16018 20 7.57895C20 7.99771 19.842 8.39932 19.5607 8.69543C19.2794 8.99154 18.8978 9.15789 18.5 9.15789H13.5C13.1022 9.15789 12.7206 8.99154 12.4393 8.69543C12.158 8.39932 12 7.99771 12 7.57895C12 7.16018 12.158 6.75857 12.4393 6.46246C12.7206 6.16635 13.1022 6 13.5 6Z" fill="url(#paint1_linear_0_3452)"/>
<defs>
<linearGradient id="paint0_linear_0_3452" x1="16" y1="0" x2="16" y2="32" gradientUnits="userSpaceOnUse">
<stop stop-color="#87EDFF"/>
<stop offset="1" stop-color="#11CFBF"/>
</linearGradient>
<linearGradient id="paint1_linear_0_3452" x1="16" y1="6" x2="16" y2="26" gradientUnits="userSpaceOnUse">
<stop stop-color="white" stop-opacity="0.8"/>
<stop offset="1" stop-color="white"/>
</linearGradient>
</defs>
</svg>
