<svg width="32" height="32" viewBox="0 0 32 32" fill="none" xmlns="http://www.w3.org/2000/svg">
<path d="M0 8C0 3.58172 3.58172 0 8 0H24C28.4183 0 32 3.58172 32 8V24C32 28.4183 28.4183 32 24 32H8C3.58172 32 0 28.4183 0 24V8Z" fill="url(#paint0_linear_0_3401)"/>
<path d="M23.4629 12.7584C22.9078 12.2255 22.3161 11.7514 21.7219 11.3381C21.634 11.2771 21.5658 11.2337 21.4858 11.1812C22.5879 10.8368 23.3593 10.0122 23.3593 9.03479C23.3593 7.72011 21.987 6.71452 20.3587 6.71452C19.9834 6.71452 19.637 6.77877 19.3287 6.88562C19.1844 6.93535 19.1017 6.98602 19.0124 7.03332C18.9573 7.05362 18.808 7.03016 18.7751 6.99195L18.7739 6.99322C18.6492 6.8233 18.4629 6.61332 18.19 6.39884C17.6716 5.98941 16.9317 5.74414 16.2311 5.74414C15.5305 5.74414 15.0411 5.98944 14.5228 6.39952C14.2564 6.60875 14.0742 6.81343 13.9495 6.98073L13.9482 6.98C13.901 7.03116 13.779 7.05727 13.737 7.03841C13.6464 6.98989 13.5349 6.93744 13.384 6.88557C13.0758 6.7786 12.7293 6.71448 12.354 6.71448C10.7245 6.71448 9.4559 7.72013 9.4559 9.03474C9.4559 9.87059 9.919 10.5928 10.7706 11.0015C10.6866 11.0566 10.596 11.1155 10.4989 11.1825C9.90585 11.5846 9.31424 12.0537 8.75917 12.5871C7.14792 14.1367 6.15485 15.7189 6.15485 17.6863C6.15485 23.143 10.8479 25.897 16.2312 25.897C18.4879 25.897 20.4848 25.5165 22.2691 24.5495C24.6911 23.2388 26.3076 20.843 26.3076 17.6863C26.3076 15.837 25.0823 14.3098 23.4632 12.7583L23.4629 12.7584ZM20.5409 16.2616C20.1499 16.6291 19.5647 16.6291 19.1725 16.2616L17.287 13.9596V20.9875C17.287 21.5097 16.9157 21.8667 16.362 21.8667C15.807 21.8667 15.4371 21.5099 15.4371 20.9875V13.9596L13.3772 16.2616C12.9849 16.6291 12.3237 16.6291 11.9326 16.2616C11.5403 15.8922 11.5284 15.294 11.9195 14.926L15.4804 11.3981C15.7128 11.1801 16.2178 11.1219 16.2965 11.1219C16.3135 11.1219 16.328 11.1297 16.3462 11.1306C16.6191 11.1186 16.9682 11.2015 17.1782 11.399L20.541 14.9263C20.9332 15.2943 20.9332 15.8927 20.5409 16.2619L20.5409 16.2616Z" fill="url(#paint1_linear_0_3401)"/>
<defs>
<linearGradient id="paint0_linear_0_3401" x1="16" y1="0" x2="16" y2="32" gradientUnits="userSpaceOnUse">
<stop stop-color="#87FFBD"/>
<stop offset="1" stop-color="#11CF4A"/>
</linearGradient>
<linearGradient id="paint1_linear_0_3401" x1="16.2312" y1="5.74414" x2="16.2312" y2="25.897" gradientUnits="userSpaceOnUse">
<stop stop-color="white" stop-opacity="0.8"/>
<stop offset="1" stop-color="white"/>
</linearGradient>
</defs>
</svg>
