<svg width="32" height="32" viewBox="0 0 32 32" fill="none" xmlns="http://www.w3.org/2000/svg">
<path d="M0 8C0 3.58172 3.58172 0 8 0H24C28.4183 0 32 3.58172 32 8V24C32 28.4183 28.4183 32 24 32H8C3.58172 32 0 28.4183 0 24V8Z" fill="url(#paint0_linear_0_3424)"/>
<path d="M25.9025 14.5979C25.9675 15.0624 26.0001 15.5309 26 16C26 21.5229 21.5229 26 16 26C10.4771 26 6 21.5229 6 16C6 10.4771 10.4771 6 16 6C16.4181 5.9999 16.8357 6.02577 17.2506 6.07744C17.4178 6.09831 17.5845 6.1234 17.7505 6.1527L17.4919 7.53529C17.0073 7.45047 16.5088 7.40625 16 7.40625C11.2538 7.40625 7.40625 11.2538 7.40625 16C7.40625 20.7462 11.2538 24.5938 16 24.5938C20.7462 24.5938 24.5938 20.7462 24.5938 16C24.5938 15.5676 24.5618 15.1426 24.5002 14.7273L25.9025 14.5979Z" fill="white"/>
<path d="M11.7936 21C11.3456 21 11.0256 20.912 10.8336 20.736C10.6416 20.56 10.5456 20.308 10.5456 19.98C10.5456 19.82 10.5576 19.548 10.5816 19.164C10.6056 18.772 10.6376 18.328 10.6776 17.832C10.7176 17.336 10.7576 16.812 10.7976 16.26C10.8376 15.708 10.8776 15.188 10.9176 14.7C10.9576 14.212 10.9896 13.784 11.0136 13.416C11.0376 13.048 11.0496 12.796 11.0496 12.66C11.0496 12.54 11.1136 12.48 11.2416 12.48H15.4656C15.5136 12.48 15.5576 12.492 15.5976 12.516C15.6376 12.54 15.6576 12.584 15.6576 12.648L15.6096 13.356C15.5936 13.596 15.5256 13.792 15.4056 13.944C15.2936 14.088 15.0576 14.16 14.6976 14.16H13.0416L12.9216 15.852H14.6256C14.6736 15.852 14.7176 15.864 14.7576 15.888C14.7976 15.912 14.8176 15.956 14.8176 16.02L14.7696 16.728C14.7536 16.968 14.6856 17.164 14.5656 17.316C14.4536 17.46 14.2176 17.532 13.8576 17.532H12.8136L12.6816 19.32H15.3216C15.3696 19.32 15.4136 19.336 15.4536 19.368C15.4936 19.392 15.5136 19.432 15.5136 19.488L15.4656 20.196C15.4496 20.436 15.3816 20.632 15.2616 20.784C15.1496 20.928 14.9136 21 14.5536 21H11.7936ZM17.8053 21C17.3493 21 17.0253 20.912 16.8333 20.736C16.6493 20.552 16.5573 20.284 16.5573 19.932C16.5573 19.828 16.5613 19.664 16.5693 19.44C16.5853 19.208 16.6053 18.936 16.6293 18.624C16.6533 18.312 16.6773 17.972 16.7013 17.604C16.7333 17.236 16.7653 16.86 16.7973 16.476C16.8373 16.004 16.8693 15.6 16.8933 15.264C16.9253 14.92 16.9493 14.628 16.9653 14.388C16.9813 14.14 16.9933 13.936 17.0013 13.776C17.0173 13.608 17.0253 13.464 17.0253 13.344C17.0333 13.216 17.0373 13.1 17.0373 12.996C17.0453 12.892 17.0493 12.78 17.0493 12.66C17.0493 12.596 17.0693 12.552 17.1093 12.528C17.1493 12.496 17.1893 12.48 17.2293 12.48C17.4373 12.48 17.6653 12.476 17.9133 12.468C18.1613 12.452 18.4093 12.436 18.6573 12.42C18.9053 12.404 19.1453 12.392 19.3773 12.384C19.6093 12.368 19.8133 12.36 19.9893 12.36C20.5013 12.36 20.9413 12.424 21.3093 12.552C21.6773 12.672 21.9733 12.852 22.1973 13.092C22.4293 13.324 22.5973 13.608 22.7013 13.944C22.8133 14.28 22.8693 14.664 22.8693 15.096C22.8693 15.568 22.8053 16.024 22.6773 16.464C22.5573 16.896 22.3653 17.28 22.1013 17.616C21.8373 17.952 21.4973 18.22 21.0813 18.42C20.6653 18.62 20.1693 18.72 19.5933 18.72C19.2493 18.72 18.9573 18.684 18.7173 18.612L18.5493 20.82C18.5413 20.884 18.5253 20.932 18.5013 20.964C18.4773 20.988 18.4293 21 18.3573 21H17.8053ZM19.7493 14.16C19.6453 14.16 19.5293 14.168 19.4013 14.184C19.2733 14.192 19.1373 14.204 18.9933 14.22C18.9773 14.556 18.9573 14.964 18.9333 15.444C18.9093 15.924 18.8773 16.428 18.8373 16.956C18.9573 16.988 19.0733 17.012 19.1853 17.028C19.3053 17.036 19.4133 17.04 19.5093 17.04C19.7893 17.04 20.0133 16.976 20.1813 16.848C20.3573 16.712 20.4933 16.548 20.5893 16.356C20.6853 16.164 20.7493 15.964 20.7813 15.756C20.8133 15.548 20.8293 15.368 20.8293 15.216C20.8293 14.872 20.7493 14.612 20.5893 14.436C20.4373 14.252 20.1573 14.16 19.7493 14.16Z" fill="url(#paint1_linear_0_3424)"/>
<path d="M16.8789 6.83996C16.8789 6.93231 16.8971 7.02375 16.9324 7.10907C16.9677 7.19439 17.0195 7.27192 17.0848 7.33722C17.1501 7.40252 17.2276 7.45433 17.3129 7.48967C17.3982 7.52501 17.4897 7.5432 17.582 7.5432C17.6744 7.5432 17.7658 7.52501 17.8511 7.48967C17.9364 7.45433 18.014 7.40252 18.0793 7.33722C18.1445 7.27192 18.1963 7.19439 18.2317 7.10907C18.267 7.02375 18.2852 6.93231 18.2852 6.83996C18.2852 6.74762 18.267 6.65617 18.2317 6.57085C18.1963 6.48553 18.1445 6.408 18.0793 6.3427C18.014 6.2774 17.9364 6.22559 17.8511 6.19025C17.7658 6.15491 17.6744 6.13672 17.582 6.13672C17.4897 6.13672 17.3982 6.15491 17.3129 6.19025C17.2276 6.22559 17.1501 6.2774 17.0848 6.3427C17.0195 6.408 16.9677 6.48553 16.9324 6.57085C16.8971 6.65617 16.8789 6.74762 16.8789 6.83996Z" fill="white"/>
<path d="M24.4961 14.6329C24.4961 14.7253 24.5143 14.8167 24.5496 14.902C24.5849 14.9874 24.6367 15.0649 24.702 15.1302C24.7673 15.1955 24.8448 15.2473 24.9301 15.2826C25.0154 15.318 25.1069 15.3362 25.1992 15.3362C25.2916 15.3362 25.383 15.318 25.4683 15.2826C25.5536 15.2473 25.6312 15.1955 25.6964 15.1302C25.7617 15.0649 25.8135 14.9874 25.8489 14.902C25.8842 14.8167 25.9024 14.7253 25.9023 14.6329C25.9024 14.5406 25.8842 14.4491 25.8489 14.3638C25.8135 14.2785 25.7617 14.201 25.6964 14.1357C25.6312 14.0704 25.5536 14.0186 25.4683 13.9832C25.383 13.9479 25.2916 13.9297 25.1992 13.9297C25.1069 13.9297 25.0154 13.9479 24.9301 13.9832C24.8448 14.0186 24.7673 14.0704 24.702 14.1357C24.6367 14.201 24.5849 14.2785 24.5496 14.3638C24.5143 14.4491 24.4961 14.5406 24.4961 14.6329Z" fill="white"/>
<path d="M26.8008 7.70312C26.8008 8.09145 26.486 8.40625 26.0977 8.40625H21.7031C21.3148 8.40625 21 8.09145 21 7.70312C21 7.3148 21.3148 7 21.7031 7H26.0977C26.486 7 26.8008 7.3148 26.8008 7.70312Z" fill="white"/>
<path d="M25 10.3661C25 10.7543 25.2226 10.8465 25.4971 10.572L27.707 8.36213C27.9815 8.08762 27.9815 7.64245 27.707 7.3679L25.4971 5.15807C25.2226 4.88356 25 4.97567 25 5.36391V10.3661H25Z" fill="white"/>
<defs>
<linearGradient id="paint0_linear_0_3424" x1="16" y1="0" x2="16" y2="32" gradientUnits="userSpaceOnUse">
<stop stop-color="#69ADFF"/>
<stop offset="1" stop-color="#3672FF"/>
</linearGradient>
<linearGradient id="paint1_linear_0_3424" x1="13" y1="5" x2="13" y2="27" gradientUnits="userSpaceOnUse">
<stop stop-color="white" stop-opacity="0.8"/>
<stop offset="1" stop-color="white"/>
</linearGradient>
</defs>
</svg>
