<svg width="32" height="32" viewBox="0 0 32 32" fill="none" xmlns="http://www.w3.org/2000/svg">
<path d="M0 8C0 3.58172 3.58172 0 8 0H24C28.4183 0 32 3.58172 32 8V24C32 28.4183 28.4183 32 24 32H8C3.58172 32 0 28.4183 0 24V8Z" fill="url(#paint0_linear_32_52)"/>
<path d="M20.1733 10.2227C20.2849 10.2239 20.3955 10.2029 20.4989 10.1611C20.6023 10.1193 20.6964 10.0574 20.7758 9.97907C20.8551 9.90071 20.9182 9.80742 20.9613 9.70456C21.0045 9.60171 21.0268 9.49133 21.0271 9.3798V7.69355C21.0267 7.58205 21.0043 7.47173 20.9611 7.36892C20.9179 7.26612 20.8549 7.17287 20.7755 7.09453C20.6962 7.01619 20.6021 6.95432 20.4988 6.91246C20.3954 6.8706 20.2848 6.84959 20.1733 6.85064C20.0619 6.84965 19.9513 6.8707 19.848 6.91258C19.7447 6.95446 19.6507 7.01635 19.5714 7.09468C19.4921 7.17301 19.4291 7.26625 19.3859 7.36902C19.3428 7.4718 19.3204 7.58209 19.32 7.69355V9.3798C19.324 9.6039 19.4156 9.81754 19.575 9.97505C19.7345 10.1326 19.9492 10.2214 20.1733 10.2227ZM15.9179 10.2227C16.3838 10.2227 16.7717 9.84522 16.7717 9.3798V7.69355C16.7713 7.58205 16.7489 7.47173 16.7057 7.36892C16.6625 7.26612 16.5995 7.17287 16.5201 7.09453C16.4408 7.01619 16.3467 6.95432 16.2434 6.91246C16.14 6.8706 16.0294 6.84959 15.9179 6.85064C15.4538 6.85064 15.0646 7.22814 15.0646 7.69355V9.3798C15.0686 9.6039 15.1601 9.81754 15.3196 9.97505C15.4791 10.1326 15.6938 10.2214 15.9179 10.2227ZM11.6629 10.2227C11.7744 10.2237 11.8849 10.2027 11.9882 10.1608C12.0915 10.1189 12.1855 10.057 12.2648 9.97867C12.3441 9.90034 12.4072 9.80711 12.4503 9.70433C12.4935 9.60156 12.5159 9.49127 12.5163 9.3798V7.69355C12.5159 7.58195 12.4934 7.47152 12.4502 7.36863C12.4069 7.26575 12.3437 7.17244 12.2643 7.09408C12.1848 7.01573 12.0906 6.95388 11.9871 6.9121C11.8836 6.87031 11.7729 6.84943 11.6613 6.85064C11.5498 6.84965 11.4392 6.8707 11.3359 6.91258C11.2326 6.95446 11.1386 7.01635 11.0593 7.09468C10.98 7.17301 10.917 7.26625 10.8739 7.36902C10.8307 7.4718 10.8083 7.58209 10.8079 7.69355V9.3798C10.812 9.6039 10.9035 9.81754 11.0629 9.97505C11.2224 10.1326 11.4371 10.2214 11.6613 10.2227H11.6629ZM23.2971 8.54564H22.7233C22.2578 8.54564 21.8804 8.92302 21.8804 9.38855V9.38855C21.8804 10.3202 21.1154 11.0748 20.1733 11.0748C19.2333 11.0748 18.4679 10.3202 18.4679 9.38855V8.96709C18.4679 8.73433 18.2792 8.54564 18.0465 8.54564V8.54564C17.8137 8.54564 17.625 8.73433 17.625 8.96709V9.38855C17.625 10.3202 16.8583 11.0748 15.9179 11.0748C14.9779 11.0748 14.2113 10.3202 14.2113 9.38855V8.97168C14.2113 8.73638 14.0205 8.54564 13.7852 8.54564V8.54564C13.5499 8.54564 13.3592 8.73638 13.3592 8.97168V9.38855C13.3592 10.3202 12.5942 11.0748 11.6521 11.0748C10.7121 11.0748 9.94668 10.3202 9.94668 9.38855V9.38855C9.94668 8.92302 9.56929 8.54564 9.10376 8.54564H8.53168C8.42022 8.54465 8.30966 8.5657 8.20636 8.60758C8.10306 8.64946 8.00906 8.71135 7.92976 8.78968C7.85046 8.86801 7.78743 8.96125 7.74428 9.06402C7.70113 9.1668 7.67872 9.27709 7.67834 9.38855V23.9756C7.67872 24.0871 7.70113 24.1974 7.74428 24.3002C7.78743 24.4029 7.85046 24.4962 7.92976 24.5745C8.00906 24.6528 8.10306 24.7147 8.20636 24.7566C8.30966 24.7985 8.42022 24.8195 8.53168 24.8186H23.2958C23.4073 24.8195 23.5179 24.7985 23.6212 24.7566C23.7245 24.7147 23.8185 24.6528 23.8978 24.5745C23.9771 24.4962 24.0401 24.4029 24.0832 24.3002C24.1264 24.1974 24.1488 24.0871 24.1492 23.9756V9.38855C24.1488 9.27709 24.1264 9.1668 24.0832 9.06402C24.0401 8.96125 23.9771 8.86801 23.8978 8.78968C23.8185 8.71135 23.7245 8.64946 23.6212 8.60758C23.5179 8.5657 23.4073 8.54465 23.2958 8.54564H23.2975H23.2971ZM11.4696 15.1386H16.2758C16.4897 15.1386 16.6947 15.2235 16.8459 15.3747C16.9972 15.5259 17.0821 15.731 17.0821 15.9448C17.0821 16.1586 16.9972 16.3637 16.8459 16.5149C16.6947 16.6661 16.4897 16.7511 16.2758 16.7511H11.4696C11.2558 16.7511 11.0507 16.6661 10.8995 16.5149C10.7483 16.3637 10.6633 16.1586 10.6633 15.9448C10.6633 15.731 10.7483 15.5259 10.8995 15.3747C11.0507 15.2235 11.2558 15.1386 11.4696 15.1386ZM11.4696 19.4777H20.3546C20.5684 19.4777 20.7735 19.5627 20.9247 19.7139C21.0759 19.8651 21.1608 20.0701 21.1608 20.284C21.1608 20.4978 21.0759 20.7029 20.9247 20.8541C20.7735 21.0053 20.5684 21.0902 20.3546 21.0902H11.4713C11.2574 21.0902 11.0524 21.0053 10.9012 20.8541C10.75 20.7029 10.665 20.4978 10.665 20.284C10.665 20.0701 10.75 19.8651 10.9012 19.7139C11.0524 19.5627 11.2574 19.4777 11.4713 19.4777H11.4696Z" fill="url(#paint1_linear_32_52)"/>
<defs>
<linearGradient id="paint0_linear_32_52" x1="16" y1="0" x2="16" y2="32" gradientUnits="userSpaceOnUse">
<stop stop-color="#FEEB56"/>
<stop offset="1" stop-color="#FFBF00"/>
</linearGradient>
<linearGradient id="paint1_linear_32_52" x1="15.9138" y1="6.85059" x2="15.9138" y2="24.8186" gradientUnits="userSpaceOnUse">
<stop stop-color="white" stop-opacity="0.8"/>
<stop offset="1" stop-color="white"/>
</linearGradient>
</defs>
</svg>
