<svg width="32" height="32" viewBox="0 0 32 32" fill="none" xmlns="http://www.w3.org/2000/svg">
<path d="M0 8C0 3.58172 3.58172 0 8 0H24C28.4183 0 32 3.58172 32 8V24C32 28.4183 28.4183 32 24 32H8C3.58172 32 0 28.4183 0 24V8Z" fill="url(#paint0_linear_0_3442)"/>
<path d="M8.09859 23C7.41459 23 6.92859 22.868 6.64059 22.604C6.36459 22.328 6.22659 21.926 6.22659 21.398C6.22659 21.254 6.23259 21.014 6.24459 20.678C6.26859 20.33 6.29859 19.922 6.33459 19.454C6.37059 18.986 6.40659 18.476 6.44259 17.924C6.49059 17.36 6.53859 16.79 6.58659 16.214C6.68259 15.002 6.74859 14.018 6.78459 13.262C6.83259 12.506 6.86859 11.912 6.89259 11.48C6.92859 10.94 6.96459 10.598 7.00059 10.454C7.03659 10.298 7.11459 10.22 7.23459 10.22C7.60659 10.22 7.98459 10.214 8.36859 10.202C8.76459 10.178 9.14259 10.154 9.50259 10.13C9.86259 10.106 10.1986 10.088 10.5106 10.076C10.8346 10.052 11.1226 10.04 11.3746 10.04C12.1426 10.04 12.8026 10.136 13.3546 10.328C13.9066 10.52 14.3506 10.79 14.6866 11.138C15.0346 11.486 15.2866 11.906 15.4426 12.398C15.6106 12.89 15.6946 13.442 15.6946 14.054C15.6946 14.99 15.5086 15.824 15.1366 16.556C14.7646 17.288 14.1706 17.846 13.3546 18.23L14.8666 20.39C15.1426 20.798 15.3526 21.116 15.4966 21.344C15.6406 21.56 15.7126 21.722 15.7126 21.83C15.7126 21.914 15.6586 22.034 15.5506 22.19C15.4546 22.334 15.3046 22.484 15.1006 22.64C14.9086 22.784 14.6686 22.91 14.3806 23.018C14.1046 23.126 13.7926 23.18 13.4446 23.18C13.0606 23.18 12.7246 23.054 12.4366 22.802C12.1606 22.55 11.9086 22.22 11.6806 21.812C11.4646 21.392 11.2726 20.912 11.1046 20.372C10.9486 19.832 10.7986 19.268 10.6546 18.68C10.2226 18.656 9.86859 18.614 9.59259 18.554C9.55659 19.082 9.52059 19.586 9.48459 20.066C9.44859 20.546 9.41859 20.978 9.39459 21.362C9.37059 21.734 9.34659 22.046 9.32259 22.298C9.29859 22.538 9.28659 22.682 9.28659 22.73C9.27459 22.826 9.25059 22.898 9.21459 22.946C9.17859 22.982 9.10659 23 8.99859 23H8.09859ZM11.0146 12.74C10.8706 12.74 10.7086 12.752 10.5286 12.776C10.3486 12.788 10.1566 12.806 9.95259 12.83C9.92859 13.25 9.89859 13.754 9.86259 14.342C9.83859 14.918 9.80259 15.536 9.75459 16.196C10.1746 16.292 10.5406 16.34 10.8526 16.34C11.2246 16.34 11.5246 16.268 11.7526 16.124C11.9926 15.98 12.1786 15.806 12.3106 15.602C12.4426 15.386 12.5266 15.158 12.5626 14.918C12.6106 14.678 12.6346 14.462 12.6346 14.27C12.6346 13.778 12.5146 13.4 12.2746 13.136C12.0346 12.872 11.6146 12.74 11.0146 12.74ZM19.208 23C18.524 23 18.038 22.868 17.75 22.604C17.474 22.328 17.336 21.926 17.336 21.398C17.336 21.242 17.342 20.996 17.354 20.66C17.378 20.312 17.408 19.904 17.444 19.436C17.48 18.968 17.516 18.458 17.552 17.906C17.6 17.354 17.648 16.79 17.696 16.214C17.756 15.506 17.804 14.9 17.84 14.396C17.888 13.88 17.924 13.442 17.948 13.082C17.972 12.71 17.99 12.404 18.002 12.164C18.026 11.912 18.038 11.696 18.038 11.516C18.05 11.324 18.056 11.15 18.056 10.994C18.068 10.838 18.074 10.67 18.074 10.49C18.074 10.394 18.104 10.328 18.164 10.292C18.224 10.244 18.284 10.22 18.344 10.22C18.656 10.22 18.998 10.214 19.37 10.202C19.742 10.178 20.114 10.154 20.486 10.13C20.858 10.106 21.218 10.088 21.566 10.076C21.914 10.052 22.22 10.04 22.484 10.04C23.252 10.04 23.912 10.136 24.464 10.328C25.016 10.508 25.46 10.778 25.796 11.138C26.144 11.486 26.396 11.912 26.552 12.416C26.72 12.92 26.804 13.496 26.804 14.144C26.804 14.852 26.708 15.536 26.516 16.196C26.336 16.844 26.048 17.42 25.652 17.924C25.256 18.428 24.746 18.83 24.122 19.13C23.498 19.43 22.754 19.58 21.89 19.58C21.374 19.58 20.936 19.526 20.576 19.418L20.324 22.73C20.312 22.826 20.288 22.898 20.252 22.946C20.216 22.982 20.144 23 20.036 23H19.208ZM22.124 12.74C21.968 12.74 21.794 12.752 21.602 12.776C21.41 12.788 21.206 12.806 20.99 12.83C20.966 13.334 20.936 13.946 20.9 14.666C20.864 15.386 20.816 16.142 20.756 16.934C20.936 16.982 21.11 17.018 21.278 17.042C21.458 17.054 21.62 17.06 21.764 17.06C22.184 17.06 22.52 16.964 22.772 16.772C23.036 16.568 23.24 16.322 23.384 16.034C23.528 15.746 23.624 15.446 23.672 15.134C23.72 14.822 23.744 14.552 23.744 14.324C23.744 13.808 23.624 13.418 23.384 13.154C23.156 12.878 22.736 12.74 22.124 12.74Z" fill="url(#paint1_linear_0_3442)"/>
<defs>
<linearGradient id="paint0_linear_0_3442" x1="16" y1="0" x2="16" y2="32" gradientUnits="userSpaceOnUse">
<stop stop-color="#87FFBD"/>
<stop offset="1" stop-color="#11CF4A"/>
</linearGradient>
<linearGradient id="paint1_linear_0_3442" x1="16" y1="5" x2="16" y2="27" gradientUnits="userSpaceOnUse">
<stop stop-color="white" stop-opacity="0.8"/>
<stop offset="1" stop-color="white"/>
</linearGradient>
</defs>
</svg>
