<svg width="32" height="32" viewBox="0 0 32 32" fill="none" xmlns="http://www.w3.org/2000/svg">
<path d="M0 8C0 3.58172 3.58172 0 8 0H24C28.4183 0 32 3.58172 32 8V24C32 28.4183 28.4183 32 24 32H8C3.58172 32 0 28.4183 0 24V8Z" fill="url(#paint0_linear_0_3387)"/>
<path d="M12.5477 10.04C13.6757 10.04 14.5097 10.286 15.0497 10.778C15.6017 11.27 15.8777 11.912 15.8777 12.704C15.8777 13.376 15.6917 13.892 15.3197 14.252C14.9477 14.6 14.4137 14.774 13.7177 14.774C13.5017 14.774 13.3637 14.756 13.3037 14.72C13.2437 14.672 13.2137 14.582 13.2137 14.45C13.2137 14.33 13.2017 14.174 13.1777 13.982C13.1657 13.79 13.1237 13.604 13.0517 13.424C12.9797 13.244 12.8657 13.094 12.7097 12.974C12.5537 12.842 12.3377 12.776 12.0617 12.776C11.6777 12.776 11.3357 12.896 11.0357 13.136C10.7357 13.364 10.5857 13.664 10.5857 14.036C10.5857 14.36 10.7057 14.624 10.9457 14.828C11.1977 15.032 11.5097 15.224 11.8817 15.404C12.2537 15.572 12.6557 15.746 13.0877 15.926C13.5317 16.106 13.9397 16.346 14.3117 16.646C14.6837 16.934 14.9897 17.3 15.2297 17.744C15.4817 18.176 15.6077 18.728 15.6077 19.4C15.6077 19.928 15.5177 20.426 15.3377 20.894C15.1697 21.35 14.9117 21.752 14.5637 22.1C14.2277 22.436 13.7957 22.7 13.2677 22.892C12.7517 23.084 12.1457 23.18 11.4497 23.18C10.8497 23.18 10.2917 23.114 9.77569 22.982C9.27169 22.85 8.82769 22.688 8.44369 22.496C8.07169 22.292 7.77769 22.076 7.56169 21.848C7.34569 21.608 7.23769 21.392 7.23769 21.2C7.23769 20.408 7.27969 19.838 7.36369 19.49C7.45969 19.142 7.62769 18.968 7.86769 18.968C8.03569 18.968 8.20969 19.04 8.38969 19.184C8.58169 19.328 8.79769 19.49 9.03769 19.67C9.27769 19.85 9.55369 20.012 9.86569 20.156C10.1897 20.3 10.5617 20.372 10.9817 20.372C11.1497 20.372 11.3117 20.36 11.4677 20.336C11.6357 20.3 11.7797 20.246 11.8997 20.174C12.0317 20.102 12.1337 20.006 12.2057 19.886C12.2897 19.766 12.3317 19.622 12.3317 19.454C12.3317 19.154 12.2177 18.914 11.9897 18.734C11.7617 18.554 11.4737 18.392 11.1257 18.248C10.7777 18.092 10.3997 17.936 9.99169 17.78C9.59569 17.612 9.22369 17.39 8.87569 17.114C8.52769 16.826 8.23969 16.46 8.01169 16.016C7.78369 15.572 7.66969 15.002 7.66969 14.306C7.66969 13.526 7.81369 12.866 8.10169 12.326C8.40169 11.786 8.77969 11.348 9.23569 11.012C9.70369 10.664 10.2257 10.418 10.8017 10.274C11.3897 10.118 11.9717 10.04 12.5477 10.04ZM19.208 23C18.524 23 18.038 22.868 17.75 22.604C17.474 22.328 17.336 21.926 17.336 21.398C17.336 21.242 17.342 20.996 17.354 20.66C17.378 20.312 17.408 19.904 17.444 19.436C17.48 18.968 17.516 18.458 17.552 17.906C17.6 17.354 17.648 16.79 17.696 16.214C17.756 15.506 17.804 14.9 17.84 14.396C17.888 13.88 17.924 13.442 17.948 13.082C17.972 12.71 17.99 12.404 18.002 12.164C18.026 11.912 18.038 11.696 18.038 11.516C18.05 11.324 18.056 11.15 18.056 10.994C18.068 10.838 18.074 10.67 18.074 10.49C18.074 10.394 18.104 10.328 18.164 10.292C18.224 10.244 18.284 10.22 18.344 10.22C18.656 10.22 18.998 10.214 19.37 10.202C19.742 10.178 20.114 10.154 20.486 10.13C20.858 10.106 21.218 10.088 21.566 10.076C21.914 10.052 22.22 10.04 22.484 10.04C23.252 10.04 23.912 10.136 24.464 10.328C25.016 10.508 25.46 10.778 25.796 11.138C26.144 11.486 26.396 11.912 26.552 12.416C26.72 12.92 26.804 13.496 26.804 14.144C26.804 14.852 26.708 15.536 26.516 16.196C26.336 16.844 26.048 17.42 25.652 17.924C25.256 18.428 24.746 18.83 24.122 19.13C23.498 19.43 22.754 19.58 21.89 19.58C21.374 19.58 20.936 19.526 20.576 19.418L20.324 22.73C20.312 22.826 20.288 22.898 20.252 22.946C20.216 22.982 20.144 23 20.036 23H19.208ZM22.124 12.74C21.968 12.74 21.794 12.752 21.602 12.776C21.41 12.788 21.206 12.806 20.99 12.83C20.966 13.334 20.936 13.946 20.9 14.666C20.864 15.386 20.816 16.142 20.756 16.934C20.936 16.982 21.11 17.018 21.278 17.042C21.458 17.054 21.62 17.06 21.764 17.06C22.184 17.06 22.52 16.964 22.772 16.772C23.036 16.568 23.24 16.322 23.384 16.034C23.528 15.746 23.624 15.446 23.672 15.134C23.72 14.822 23.744 14.552 23.744 14.324C23.744 13.808 23.624 13.418 23.384 13.154C23.156 12.878 22.736 12.74 22.124 12.74Z" fill="url(#paint1_linear_0_3387)"/>
<defs>
<linearGradient id="paint0_linear_0_3387" x1="16" y1="0" x2="16" y2="32" gradientUnits="userSpaceOnUse">
<stop stop-color="#CDA3FF"/>
<stop offset="1" stop-color="#8B77FF"/>
</linearGradient>
<linearGradient id="paint1_linear_0_3387" x1="16.5" y1="5" x2="16.5" y2="27" gradientUnits="userSpaceOnUse">
<stop stop-color="white" stop-opacity="0.8"/>
<stop offset="1" stop-color="white"/>
</linearGradient>
</defs>
</svg>
