<svg width="32" height="32" viewBox="0 0 32 32" fill="none" xmlns="http://www.w3.org/2000/svg">
<path d="M0 8C0 3.58172 3.58172 0 8 0H24C28.4183 0 32 3.58172 32 8V24C32 28.4183 28.4183 32 24 32H8C3.58172 32 0 28.4183 0 24V8Z" fill="url(#paint0_linear_0_3447)"/>
<path d="M13.377 12.74L12.693 22.73C12.681 22.91 12.615 23 12.495 23H11.505C10.833 23 10.353 22.868 10.065 22.604C9.77695 22.34 9.63295 21.962 9.63295 21.47C9.63295 21.29 9.63895 21.02 9.65095 20.66C9.67495 20.3 9.70495 19.88 9.74095 19.4C9.77695 18.908 9.81295 18.38 9.84895 17.816C9.89695 17.24 9.94495 16.664 9.99295 16.088C10.041 15.5 10.083 14.918 10.119 14.342C10.167 13.766 10.209 13.232 10.245 12.74H7.36495C7.23295 12.74 7.16695 12.656 7.16695 12.488L7.22095 11.48C7.23295 11.324 7.25695 11.174 7.29295 11.03C7.34095 10.874 7.41295 10.736 7.50895 10.616C7.60495 10.496 7.72495 10.4 7.86895 10.328C8.02495 10.256 8.21095 10.22 8.42695 10.22H16.473C16.545 10.22 16.611 10.238 16.671 10.274C16.731 10.31 16.761 10.376 16.761 10.472L16.689 11.534C16.665 11.894 16.563 12.188 16.383 12.416C16.215 12.632 15.861 12.74 15.321 12.74H13.377ZM19.208 23C18.524 23 18.038 22.868 17.75 22.604C17.474 22.328 17.336 21.926 17.336 21.398C17.336 21.242 17.342 20.996 17.354 20.66C17.378 20.312 17.408 19.904 17.444 19.436C17.48 18.968 17.516 18.458 17.552 17.906C17.6 17.354 17.648 16.79 17.696 16.214C17.756 15.506 17.804 14.9 17.84 14.396C17.888 13.88 17.924 13.442 17.948 13.082C17.972 12.71 17.99 12.404 18.002 12.164C18.026 11.912 18.038 11.696 18.038 11.516C18.05 11.324 18.056 11.15 18.056 10.994C18.068 10.838 18.074 10.67 18.074 10.49C18.074 10.394 18.104 10.328 18.164 10.292C18.224 10.244 18.284 10.22 18.344 10.22C18.656 10.22 18.998 10.214 19.37 10.202C19.742 10.178 20.114 10.154 20.486 10.13C20.858 10.106 21.218 10.088 21.566 10.076C21.914 10.052 22.22 10.04 22.484 10.04C23.252 10.04 23.912 10.136 24.464 10.328C25.016 10.508 25.46 10.778 25.796 11.138C26.144 11.486 26.396 11.912 26.552 12.416C26.72 12.92 26.804 13.496 26.804 14.144C26.804 14.852 26.708 15.536 26.516 16.196C26.336 16.844 26.048 17.42 25.652 17.924C25.256 18.428 24.746 18.83 24.122 19.13C23.498 19.43 22.754 19.58 21.89 19.58C21.374 19.58 20.936 19.526 20.576 19.418L20.324 22.73C20.312 22.826 20.288 22.898 20.252 22.946C20.216 22.982 20.144 23 20.036 23H19.208ZM22.124 12.74C21.968 12.74 21.794 12.752 21.602 12.776C21.41 12.788 21.206 12.806 20.99 12.83C20.966 13.334 20.936 13.946 20.9 14.666C20.864 15.386 20.816 16.142 20.756 16.934C20.936 16.982 21.11 17.018 21.278 17.042C21.458 17.054 21.62 17.06 21.764 17.06C22.184 17.06 22.52 16.964 22.772 16.772C23.036 16.568 23.24 16.322 23.384 16.034C23.528 15.746 23.624 15.446 23.672 15.134C23.72 14.822 23.744 14.552 23.744 14.324C23.744 13.808 23.624 13.418 23.384 13.154C23.156 12.878 22.736 12.74 22.124 12.74Z" fill="url(#paint1_linear_0_3447)"/>
<defs>
<linearGradient id="paint0_linear_0_3447" x1="16" y1="0" x2="16" y2="32" gradientUnits="userSpaceOnUse">
<stop stop-color="#87EDFF"/>
<stop offset="1" stop-color="#11CFBF"/>
</linearGradient>
<linearGradient id="paint1_linear_0_3447" x1="16.5" y1="5" x2="16.5" y2="27" gradientUnits="userSpaceOnUse">
<stop stop-color="white" stop-opacity="0.8"/>
<stop offset="1" stop-color="white"/>
</linearGradient>
</defs>
</svg>
