<svg width="32" height="32" viewBox="0 0 32 32" fill="none" xmlns="http://www.w3.org/2000/svg">
<path d="M0 8C0 3.58172 3.58172 0 8 0H24C28.4183 0 32 3.58172 32 8V24C32 28.4183 28.4183 32 24 32H8C3.58172 32 0 28.4183 0 24V8Z" fill="url(#paint0_linear_0_3436)"/>
<path d="M14.2188 17.375V14.6738C14.2188 13.6797 15.0254 12.873 16.0195 12.873H22.3242V9.71875C22.3242 8.72461 21.5176 7.91797 20.5234 7.91797H9.71484C8.7207 7.91797 7.91406 8.72461 7.91406 9.71875V22.3281C7.91406 23.3223 8.7207 24.1289 9.71484 24.1289H20.5215C21.5156 24.1289 22.3223 23.3223 22.3223 22.3281V19.1758H16.0195C15.0254 19.1758 14.2188 18.3691 14.2188 17.375ZM23.2246 13.7715H16.0195C15.5215 13.7715 15.1191 14.1738 15.1191 14.6719V17.373C15.1191 17.8711 15.5215 18.2734 16.0195 18.2734H23.2246C23.7227 18.2734 24.125 17.8711 24.125 17.373V14.6738C24.125 14.1758 23.7227 13.7715 23.2246 13.7715ZM17.3711 16.9238C16.873 16.9238 16.4707 16.5215 16.4707 16.0234C16.4707 15.5254 16.873 15.123 17.3711 15.123C17.8691 15.123 18.2715 15.5254 18.2715 16.0234C18.2715 16.5215 17.8672 16.9238 17.3711 16.9238Z" fill="url(#paint1_linear_0_3436)"/>
<defs>
<linearGradient id="paint0_linear_0_3436" x1="16" y1="0" x2="16" y2="32" gradientUnits="userSpaceOnUse">
<stop stop-color="#FF7974"/>
<stop offset="1" stop-color="#FF525F"/>
</linearGradient>
<linearGradient id="paint1_linear_0_3436" x1="16.0195" y1="7.91797" x2="16.0195" y2="24.1289" gradientUnits="userSpaceOnUse">
<stop stop-color="white" stop-opacity="0.8"/>
<stop offset="1" stop-color="white"/>
</linearGradient>
</defs>
</svg>
